<svg xmlns="http://www.w3.org/2000/svg" width="256" height="256" viewBox="0 0 100 100"><rect width="100" height="100" rx="20" fill="#592e1e"></rect><path d="M41.75 63.85L29 50.65L29 65.10Q28.70 65.20 28.20 65.33Q27.70 65.45 27.10 65.45L27.10 65.45Q24.90 65.45 24.90 63.60L24.90 63.60L24.90 34.85Q25.15 34.75 25.68 34.63Q26.20 34.50 26.80 34.50L26.80 34.50Q29 34.50 29 36.35L29 36.35L29 48.80L42.75 34.55Q44.05 34.60 44.70 35.20Q45.35 35.80 45.35 36.60L45.35 36.60Q45.35 37.25 45 37.80Q44.65 38.35 44 39L44 39L33.20 49.60Q37.75 54.05 41.08 57.53Q44.40 61.00 46.80 63.15L46.80 63.15Q46.70 64.25 46.13 64.88Q45.55 65.50 44.65 65.50L44.65 65.50Q43.80 65.50 43.13 65.03Q42.45 64.55 41.75 63.85L41.75 63.85ZM70.05 63.85L57.30 50.65L57.30 65.10Q57 65.20 56.50 65.33Q56 65.45 55.40 65.45L55.40 65.45Q53.20 65.45 53.20 63.60L53.20 63.60L53.20 34.85Q53.45 34.75 53.98 34.63Q54.50 34.50 55.10 34.50L55.10 34.50Q57.30 34.50 57.30 36.35L57.30 36.35L57.30 48.80L71.05 34.55Q72.35 34.60 73 35.20Q73.65 35.80 73.65 36.60L73.65 36.60Q73.65 37.25 73.30 37.80Q72.95 38.35 72.30 39L72.30 39L61.50 49.60Q66.05 54.05 69.38 57.53Q72.70 61.00 75.10 63.15L75.10 63.15Q75 64.25 74.42 64.88Q73.85 65.50 72.95 65.50L72.95 65.50Q72.10 65.50 71.42 65.03Q70.75 64.55 70.05 63.85L70.05 63.85Z" fill="#f2e8df"></path></svg>