<svg xmlns="http://www.w3.org/2000/svg" width="256" height="256" viewBox="0 0 100 100"><rect width="100" height="100" rx="20" fill="#7ed321"></rect><path fill="#fff" d="M54.00 70.29L54.00 70.29Q54.44 72.93 53.69 74.42Q52.94 75.92 51.58 76.66Q50.22 77.41 48.46 77.50Q46.70 77.59 45.12 77.32L45.12 77.32Q44.24 76.09 43.54 74.25Q42.84 72.40 42.22 70.42Q41.61 68.45 41.12 66.51Q40.64 64.58 40.29 63.08L40.29 63.08Q40.73 62.03 40.86 60.67Q40.99 59.31 41.04 57.90Q41.08 56.49 41.12 55.04Q41.17 53.59 41.34 52.27L41.34 52.27Q41.96 48.58 43.14 45.24Q44.33 41.90 45.03 38.30L45.03 38.30Q45.21 37.51 44.90 36.81Q44.59 36.10 44.77 35.49L44.77 35.49Q44.86 35.14 45.30 35.00Q45.74 34.87 45.83 34.43L45.83 34.43Q46.09 33.47 45.96 32.85Q45.83 32.24 46.26 31.36L46.26 31.36Q46.70 30.65 47.36 29.29Q48.02 27.93 47.85 26.43L47.85 26.43Q48.64 25.91 49.34 25.20Q50.04 24.50 50.79 23.93Q51.54 23.36 52.46 22.92Q53.38 22.48 54.70 22.48L54.70 22.48Q55.41 23.36 55.63 24.41Q55.84 25.47 56.06 26.52Q56.28 27.58 56.72 28.50Q57.16 29.42 58.22 29.95L58.22 29.95Q58.22 30.65 58.22 31.71Q58.22 32.76 58.31 33.77Q58.39 34.78 58.70 35.62Q59.01 36.45 59.71 36.72L59.71 36.72Q58.13 40.94 56.77 45.07Q55.41 49.20 54.53 53.37Q53.65 57.55 53.43 61.77Q53.21 65.99 54.00 70.29Z"></path></svg>