<?xml version="1.0" encoding="UTF-8"?>
<svg id="Layer_1" data-name="Layer 1" xmlns="http://www.w3.org/2000/svg" viewBox="0 0 33 33">
  <defs>
    <style>
      .cls-1 {
        fill: none;
      }

      .cls-1, .cls-2 {
        stroke: #333;
        stroke-miterlimit: 10;
        stroke-width: 3px;
      }

      .cls-2 {
        fill: #736357;
      }
    </style>
  </defs>
  <path class="cls-2" d="M1.67,14.2c-.82-1.7,1.5-3.29,2.06-5.05,.54-1.7-.6-3.64,.47-5.19,.9-1.3,2.99-1.8,4.88-2.18,1.17-.24,2.47-.47,3.56-.05,1.14,.44,1.65,1.43,2.28,2.27,1.05,1.41,2.68,2.58,4.6,3.3,.82,.31,1.74,.57,2.24,1.15,.32,.38,.42,.84,.44,1.28,.13,2.3-1.31,4.71-.14,6.84,1.22,2.21,4.68,3.11,6.92,4.81,2.19,1.66,3.13,4.26,2.1,6.47s-4.09,3.84-7.19,3.64c-4.62-.3-7.42-4.02-8.39-7.44-.96-3.38-1.87-5.22-6.03-6.81-2.24-.86-6.8-.96-7.81-3.04Z"/>
  <path class="cls-1" d="M10.15,6.89c.12,.04,.28,0,.35-.07-.06-.09-.14-.19-.27-.19s-.2,.17-.07,.18"/>
  <path class="cls-1" d="M9.35,13.92l.02,.42c.18,0,.35,0,.53,0,.1-.2-.15-.45-.43-.43"/>
  <path class="cls-1" d="M18.23,11.52c.15,.09,.37,.12,.56,.07-.12-.18-.41-.28-.67-.23"/>
  <path class="cls-1" d="M23.72,25.48c.1,.18,.38,.3,.64,.27,.04-.21-.29-.41-.55-.33"/>
  <path class="cls-1" d="M21.52,18.98l.02,.34c.19-.01,.38-.02,.57-.03-.24-.13-.47-.26-.71-.39"/>
</svg>