<?xml version="1.0" encoding="UTF-8"?>
<svg id="Layer_1" data-name="Layer 1" xmlns="http://www.w3.org/2000/svg" viewBox="0 0 54.23 30">
  <defs>
    <style>
      .cls-1 {
        fill: #f2f2f2;
      }

      .cls-2 {
        fill: #ed1e79;
      }

      .cls-3 {
        opacity: .7;
      }
    </style>
  </defs>
  <g class="cls-3">
    <rect class="cls-1" x="1.38" y="4" width="51.62" height="21.2" rx="10.6" ry="10.6"/>
    <path class="cls-2" d="M42.4,4H11.98C6.12,4,1.38,8.75,1.38,14.6s4.75,10.6,10.6,10.6h30.42c5.85,0,10.6-4.75,10.6-10.6s-4.75-10.6-10.6-10.6h0Z"/>
  </g>
  <g>
    <path class="cls-1" d="M6.38,11.89s-.02-.08-.03-.12c-.02-.04-.03-.07-.05-.12-.03-.06-.06-.13-.08-.21-.02-.07-.04-.16-.04-.27,.01-.05,.03-.09,.04-.12,.02-.02,.04-.04,.05-.06l.04-.15h.13s.1,0,.15,0h.15c.22,0,.46,0,.69-.02s.48-.03,.73-.06c.27-.03,.56-.06,.88-.07,.03-.06,.05-.1,.06-.11s.02-.03,.03-.06l.1-.05c.14,0,.23,0,.28,.04,.05,.04,.09,.07,.12,.1,.15-.01,.31-.03,.47-.04,.16-.02,.32-.04,.5-.06,.24-.03,.48-.05,.72-.08,.24-.03,.48-.04,.71-.04,.1,0,.2,0,.28,0,.09,0,.17,.01,.26,.02l.11,.07s.05,.07,.09,.1c.04,.03,.08,.06,.12,.1,.09,.06,.18,.15,.26,.24,.09,.1,.12,.24,.09,.43l-.04,.08s-.05,.04-.09,.06l-.09,.1h-.1c-.06,0-.1,0-.13,.01-.03,0-.06,.02-.11,.04-.02,.01-.05,.02-.08,.03-.03,0-.06,.02-.1,.03-.06,0-.12,0-.15,0h-.12c-.18,0-.37,.01-.58,.03-.21,.02-.41,.05-.6,.07-.14,.02-.28,.03-.41,.04-.13,.01-.25,.03-.35,.04-.06,.14-.11,.26-.16,.37s-.1,.21-.15,.32-.1,.22-.15,.33c-.05,.11-.09,.23-.13,.37-.07,.1-.13,.19-.18,.28-.05,.09-.09,.19-.12,.3-.09,.09-.15,.19-.19,.3-.04,.11-.07,.2-.1,.27l-.04,.12s-.07,.07-.08,.09-.02,.05-.05,.07c-.02,.07-.04,.14-.07,.2-.01,.03-.02,.06-.04,.08-.01,.03-.02,.05,0,.07-.01,.06-.03,.1-.05,.14,0,.03,0,.06,0,.1,0,.03-.01,.06-.02,.1-.01,.04-.02,.07-.03,.1,0,.03,0,.06,0,.08,.02,.02,.04,.04,.05,.06s.03,.05,.04,.08c.01,.01,.03,.02,.04,.02,.02,0,.03,.01,.04,.02,.05,.04,.09,.06,.13,.06l.09,.1c.04,.19,0,.34-.1,.45-.11,.12-.28,.19-.53,.19h-.12s-.06-.07-.07-.08c-.05-.02-.1-.04-.13-.05-.04-.01-.07-.04-.1-.08-.01-.01-.03-.02-.04-.02-.02,0-.03,0-.04-.02-.06-.02-.11-.03-.14-.06l-.1-.05c0-.05,0-.09,0-.11-.05-.06-.08-.12-.11-.19-.03-.07-.05-.14-.07-.22-.02-.06-.03-.11-.05-.16s-.04-.09-.07-.13c-.01-.38,.03-.69,.12-.95,.09-.25,.19-.5,.29-.74,.06-.13,.12-.26,.17-.39,.05-.13,.1-.27,.14-.41l.1-.09s.07-.05,.08-.06c0-.07,.01-.14,.04-.21,.03-.07,.06-.14,.1-.21,.02-.04,.05-.09,.07-.13,.02-.04,.03-.08,.04-.11-.04,0-.08,0-.11,0-.03,0-.07,0-.1,.01-.08,.02-.15,.02-.22,.02-.05,0-.09,0-.12,0-.05,.02-.09,.03-.13,.04-.04,0-.08,0-.12,0h-.21c-.07,0-.13,0-.17,.02h-.45s-.1,0-.16-.01c-.06,0-.12-.03-.19-.06l-.06-.06c-.04-.06-.07-.09-.1-.1l-.1-.02v-.09Z"/>
    <path class="cls-1" d="M13.12,15.6c-.06,.21-.12,.38-.17,.49s-.13,.22-.23,.34c-.08-.01-.13,0-.16,.02-.03,.03-.06,.05-.1,.07-.05,.01-.09,.01-.12,0s-.04-.02-.06-.04-.04-.03-.07-.04c-.03-.01-.07-.02-.12-.02-.01-.04-.03-.08-.04-.12-.01-.04-.05-.05-.12-.04,.01-.04,.01-.08,0-.11,0-.03-.01-.06-.02-.08,0-.02-.02-.05-.02-.07,0-.02,0-.05,0-.09-.03,0-.05-.02-.07-.06-.02-.04-.04-.07-.06-.11,.02-.1,.04-.19,.05-.27,.02-.09,.04-.17,.07-.24,.03-.08,.05-.15,.07-.23,.02-.08,0-.15-.03-.23,.02,.02,.04,.01,.05-.01,.01-.02,.02-.06,.03-.1,0-.04,0-.08,0-.12s0-.07,0-.1c.06-.14,.11-.28,.15-.43,.04-.15,.07-.29,.11-.44,.03-.14,.07-.29,.1-.43,.04-.14,.08-.27,.14-.39,.06-.01,.14,0,.22,.02,.08,.02,.13,.06,.15,.09,.15-.11,.29-.24,.41-.39,.12-.15,.24-.3,.36-.45,.12-.15,.26-.27,.41-.39,.15-.11,.34-.18,.57-.2,.12,.08,.25,.16,.39,.25,.14,.08,.26,.19,.36,.33,.05,.02,.09,.04,.12,.07,.03,.02,.07,.05,.12,.08v.1c.07,.06,.13,.13,.17,.21,.04,.08,.08,.16,.12,.25,.04,.09,.07,.18,.11,.27,.04,.09,.08,.17,.12,.25-.01,.03-.02,.05-.02,.07s0,.04,.01,.06,.02,.04,.02,.06,0,.05,0,.09c-.02,.24-.1,.43-.25,.57s-.33,.26-.54,.36c-.21,.09-.44,.17-.68,.24-.24,.06-.46,.13-.66,.21,0,.02,.01,.03,.03,.03s.03,.01,.02,.04c.14,.08,.25,.15,.34,.19,.08,.05,.16,.09,.23,.12,.07,.03,.15,.06,.24,.08,.09,.02,.21,.05,.36,.08,.15,.03,.27,.06,.36,.08,.09,.02,.16,.03,.23,.05,.07,.01,.14,.02,.22,.03,.07,0,.18,.02,.31,.03,.05,.05,.1,.11,.14,.17,.04,.07,.06,.13,.08,.2,.01,.07,.01,.13,0,.19,0,.06-.03,.11-.06,.15,0,.02,.02,.02,.04,.02,.02,0,.04,0,.07,0-.04,.02-.06,.05-.09,.08-.02,.03-.05,.06-.07,.1-.02,.03-.05,.06-.08,.08-.03,.02-.07,.04-.12,.04-.18,.06-.41,.07-.69,.01-.28-.06-.63-.16-1.05-.31-.21-.08-.39-.14-.52-.2s-.25-.11-.35-.17c-.1-.06-.19-.12-.27-.18-.08-.06-.18-.14-.29-.23Zm1.27-2.76c-.06,.09-.14,.16-.22,.23-.08,.07-.16,.14-.23,.21-.07,.07-.14,.15-.2,.24-.06,.09-.1,.19-.12,.31,.21-.02,.42-.07,.65-.16s.44-.16,.64-.24c-.02-.17-.09-.3-.19-.4-.1-.1-.21-.17-.32-.2Z"/>
    <path class="cls-1" d="M19.26,14.32s-.08,.07-.11,.12c-.03,.05-.06,.09-.09,.14-.03,.06-.06,.12-.1,.17-.04,.05-.08,.1-.13,.14-.03,.08-.06,.14-.09,.19-.03,.05-.08,.1-.14,.16-.06,.21-.2,.45-.42,.7,0,.05-.02,.1-.05,.14-.03,.05-.05,.09-.08,.13-.01,.02-.02,.03-.04,.05-.01,.02-.02,.03-.03,.04l-.02,.08s-.06,.08-.1,.11c-.04,.03-.07,.06-.1,.09-.01,.02-.03,.04-.06,.06l-.13,.05c-.43-.05-.69-.26-.79-.63v-.08s.03-.05,.04-.08c0-.03,.02-.06,.03-.09,.02-.08,.05-.15,.08-.23,.03-.08,.08-.14,.15-.2,.01-.04,.04-.1,.08-.18,.04-.08,.11-.21,.21-.37,.08-.13,.15-.23,.2-.31,.05-.08,.09-.13,.11-.18-.06-.09-.13-.16-.21-.23-.08-.13-.14-.26-.2-.39-.06-.12-.1-.23-.13-.33,0-.07-.01-.13-.03-.18s-.02-.1-.04-.15c-.02-.06-.03-.12-.04-.18-.01-.06-.02-.12-.02-.19-.03-.04-.05-.08-.05-.11l.02-.08s.02-.09,0-.15c-.01-.06-.03-.12-.04-.19-.01-.05-.03-.11-.04-.18-.01-.06-.02-.13-.01-.19s.03-.12,.06-.18c.03-.06,.09-.11,.16-.15h.15c.05,.02,.1,.04,.16,.07,.05,.02,.1,.05,.15,.08,.06,.03,.13,.05,.19,.08,.06,.03,.12,.06,.19,.1l.06,.11,.12,.09v.09s0,.05,0,.09c0,.07,.01,.11,.04,.13l.04,.1c0,.08,0,.15,.03,.21,.02,.07,.04,.13,.05,.19,.02,.06,.04,.12,.05,.19,.02,.06,.02,.13,0,.21,.04-.02,.06-.03,.09-.06,.01-.01,.02-.02,.04-.02,.01,0,.02-.01,.04-.02l.52-.64-.02-.08,.19-.16s.09-.08,.14-.12,.08-.08,.11-.12l.1-.06c.19-.27,.46-.43,.81-.5l.12-.02,.04,.1c.02,.06,.07,.11,.15,.16s.15,.09,.23,.14l.08,.05c.03,.05,.04,.09,.04,.12s0,.05,0,.07l.04,.08c-.05,.13-.1,.22-.17,.28-.07,.06-.13,.11-.2,.16-.05,.04-.1,.08-.15,.12s-.08,.08-.1,.13l-.06,.06c-.12,.06-.2,.15-.24,.26l-.03,.1h-.11s-.02,0-.04,.03c-.02,.02-.05,.07-.09,.14-.04,.05-.07,.09-.09,.1-.02,.02-.03,.03-.04,.04,0,.02-.01,.04-.02,.06,0,.02-.02,.04-.03,.07-.08,.07-.12,.12-.14,.16-.02,.04-.04,.07-.06,.12-.02,.04-.05,.08-.07,.12-.02,.04-.05,.08-.1,.12l-.04,.12Z"/>
    <path class="cls-1" d="M28.1,15.76c-.04,.09-.09,.18-.16,.28-.07,.09-.15,.18-.24,.25s-.19,.13-.31,.18-.23,.08-.35,.08c-.08-.02-.13-.03-.15-.05-.03-.02-.06-.04-.08-.05-.02-.01-.03-.02-.05-.03-.01,0-.03-.01-.04-.02l-.11-.04,.04-.1s0-.08,0-.1c-.02-.02-.05-.06-.11-.1l-.05-.05s-.03-.03-.04-.05l-.15-.15,.24-.06c.15-.04,.25-.09,.3-.15s.07-.16,.06-.3c-.12-.02-.22-.02-.3,0-.08,.02-.16,.04-.24,.06-.11,.03-.21,.05-.32,.07-.11,.02-.23,.03-.36,.03-.05,0-.09,0-.13,0-.04,0-.09,0-.13-.01l-.09-.02c-.01-.06-.02-.09-.04-.1-.01,0-.02-.02-.04-.03-.03-.03-.06-.06-.09-.11-.03-.05-.04-.1-.02-.17-.03-.05-.05-.1-.05-.15-.04,.06-.06,.13-.08,.2l-.04,.08-.09,.02s-.02,.02-.03,.04c0,.02,0,.03,0,.04l-.04,.14s-.02,.02-.04,.03c-.01,0-.02,.02-.04,.03-.01,.05-.03,.1-.04,.15s-.04,.09-.05,.14c-.03,.07-.05,.14-.08,.21-.02,.07-.03,.13-.02,.2l-.04,.09s-.06,.06-.1,.08c-.04,.02-.07,.04-.11,.05-.01,.01-.03,.02-.05,.03-.02,0-.04,.02-.05,.02l-.03,.09-.11,.02c-.07,.01-.11,.02-.14,.02-.03,0-.06,0-.09,0h-.09c-.06-.06-.12-.1-.15-.12-.04-.03-.08-.06-.12-.08-.05-.06-.08-.11-.09-.14s-.01-.06-.02-.09c-.01-.03-.02-.06-.02-.08,0-.02-.01-.04-.02-.05l-.12-.1,.1-.07v-.14c.13-.27,.25-.54,.39-.79,.13-.25,.27-.51,.41-.77,.05-.09,.09-.17,.14-.26,.04-.09,.09-.17,.14-.26,0-.02,0-.03,0-.06s0-.05,.02-.07c.06-.09,.12-.17,.16-.25,.04-.07,.08-.15,.12-.22,.05-.09,.1-.18,.15-.27,.05-.09,.11-.17,.19-.27l.14-.06s.04-.01,.06-.02c.02,0,.05-.01,.08-.01l.13,.02c.17-.07,.31-.17,.43-.29s.25-.28,.38-.45l.09-.11,.12,.06s.07,.03,.12,.04c.05,.01,.11,.03,.17,.04,.11,.02,.21,.05,.3,.07,.09,.03,.17,.07,.23,.12,.04,.09,.06,.15,.06,.19,0,.04,.01,.09,.03,.13,.02,.09,.03,.18,.05,.27,.01,.09,.02,.19,.03,.31,.03,.09,.05,.18,.08,.27,.02,.09,.04,.18,.06,.27,.03,.13,.06,.25,.09,.37,.03,.12,.07,.23,.12,.34,.05,0,.08,0,.09,0,.03-.01,.06-.02,.09-.02,.03,0,.07-.01,.11-.02h.1s.04,.07,.04,.07c0,.03,.04,.05,.09,.08,.08,0,.13,.02,.17,.04,.04,.02,.07,.05,.1,.08,.02,.02,.05,.04,.07,.05l.13,.05-.07,.12c-.06,.1-.14,.19-.25,.28s-.23,.16-.37,.22c0,.03,.01,.06,.01,.09s.01,.06,.02,.09c.02,.09,.03,.19,.04,.28s.01,.2,0,.3l-.02,.03Zm-2.56-1.39c.18-.01,.34-.02,.48-.04,.14-.01,.31-.04,.48-.07-.04-.16-.09-.33-.13-.5-.05-.17-.1-.35-.15-.52l-.05,.08c-.12,.11-.23,.24-.34,.38-.11,.14-.2,.27-.28,.39-.04,.05-.07,.1-.11,.14-.04,.05-.07,.1-.1,.15,.04,0,.07,0,.1,0s.06,0,.09,0Z"/>
    <path class="cls-1" d="M34.97,14.98c-.14,.23-.33,.41-.56,.54s-.48,.23-.76,.31c-.28,.08-.57,.16-.87,.22-.3,.06-.6,.15-.88,.25-.08,0-.16,0-.22,0s-.12,.01-.18,.02-.11,.02-.16,.02c-.05,0-.11,.02-.18,.02-.02,0-.04,0-.04,.01,0,.01-.02,.03-.03,.04-.1,.02-.19,.02-.27,.02h-.2c-.07,0-.14,0-.22,.03-.07,.02-.14,.03-.2,.02-.44-.02-.79-.17-1.04-.43s-.39-.63-.42-1.11c0-.03,0-.04-.01-.05-.02,0-.03-.01-.04-.02,0-.05,0-.1,.02-.14s.02-.09,0-.15c.15-.29,.33-.57,.52-.82,.2-.25,.43-.48,.7-.67,.04-.03,.08-.06,.11-.1,.03-.03,.06-.06,.08-.1,.03-.03,.06-.06,.09-.08,.04-.02,.08-.04,.13-.05,.12-.13,.27-.25,.44-.35,.17-.11,.35-.21,.54-.31,.19-.1,.38-.2,.56-.3,.19-.1,.36-.21,.51-.33,.06,.03,.11,.04,.14,.02,.03-.01,.06-.01,.1,0,.04,.08,.1,.14,.17,.17,.07,.03,.15,.07,.22,.1,.07,.03,.14,.08,.21,.12,.06,.05,.12,.11,.15,.19-.04,0-.05,.01-.05,.04,0,.02,.01,.05,.02,.07,.01,.02,.02,.05,.01,.07,0,.02-.03,.04-.07,.04,0,.03,.02,.04,.06,.04,.03,0,.05,.02,.05,.04s0,.05-.02,.06-.02,.04,0,.08c-.12,.07-.25,.14-.39,.2-.15,.06-.3,.13-.45,.21-.16,.07-.32,.15-.49,.23-.17,.08-.33,.18-.49,.29-.16,.11-.32,.23-.49,.36-.17,.13-.32,.27-.48,.41-.15,.14-.3,.29-.43,.45s-.25,.3-.35,.45c.01,.03,.03,.05,.04,.06s.03,.03,.04,.06c.19,.01,.36,0,.53,0,.16-.01,.33,0,.49,.03,.02-.01,.03-.03,.04-.05s.02-.04,.04-.05c.34-.03,.65-.08,.94-.15,.29-.07,.58-.14,.89-.21-.05-.02-.09-.03-.13-.04-.04-.01-.08-.03-.11-.04-.03-.03-.03-.05,0-.07,.03-.02,.06-.04,.08-.06-.08-.04-.15-.1-.2-.16-.05-.06-.08-.15-.09-.26,.04-.03,.05-.06,.05-.1s-.02-.07-.05-.09c-.02,0-.04,0-.04,0,0,0-.01,.01-.01,.02s0,.02-.01,.03c0,0-.02,0-.04,0,0-.05,.02-.09,.04-.12,.02-.03,.04-.07,.05-.11l.61-.37c.06,.04,.14,.09,.24,.14,.09,.05,.19,.1,.3,.15,.1,.05,.21,.1,.32,.15,.11,.05,.21,.1,.31,.15,.08,.03,.16,.08,.22,.13,.06,.05,.13,.11,.19,.17,.06,.06,.12,.11,.18,.17s.13,.1,.22,.14c-.01,.07,0,.13,0,.17,.02,.04,.02,.1,.02,.16Z"/>
    <path class="cls-1" d="M39.3,15.76c-.04,.09-.09,.18-.16,.28-.07,.09-.15,.18-.24,.25s-.19,.13-.31,.18-.23,.08-.35,.08c-.08-.02-.13-.03-.15-.05-.03-.02-.06-.04-.08-.05-.02-.01-.03-.02-.05-.03-.01,0-.03-.01-.04-.02l-.11-.04,.04-.1s0-.08,0-.1c-.02-.02-.05-.06-.11-.1l-.05-.05s-.03-.03-.04-.05l-.15-.15,.24-.06c.15-.04,.25-.09,.3-.15s.07-.16,.06-.3c-.12-.02-.22-.02-.3,0-.08,.02-.16,.04-.24,.06-.11,.03-.21,.05-.32,.07-.11,.02-.23,.03-.36,.03-.05,0-.09,0-.13,0-.04,0-.09,0-.13-.01l-.09-.02c-.01-.06-.02-.09-.04-.1-.01,0-.02-.02-.04-.03-.03-.03-.06-.06-.09-.11-.03-.05-.04-.1-.02-.17-.03-.05-.05-.1-.05-.15-.04,.06-.06,.13-.08,.2l-.04,.08-.09,.02s-.02,.02-.03,.04c0,.02,0,.03,0,.04l-.04,.14s-.02,.02-.04,.03c-.01,0-.02,.02-.04,.03-.01,.05-.03,.1-.04,.15s-.04,.09-.05,.14c-.03,.07-.05,.14-.08,.21-.02,.07-.03,.13-.02,.2l-.04,.09s-.06,.06-.1,.08c-.04,.02-.07,.04-.11,.05-.01,.01-.03,.02-.05,.03-.02,0-.04,.02-.05,.02l-.03,.09-.11,.02c-.07,.01-.11,.02-.14,.02-.03,0-.06,0-.09,0h-.09c-.06-.06-.12-.1-.15-.12-.04-.03-.08-.06-.12-.08-.05-.06-.08-.11-.09-.14s-.01-.06-.02-.09c-.01-.03-.02-.06-.02-.08,0-.02-.01-.04-.02-.05l-.12-.1,.1-.07v-.14c.13-.27,.25-.54,.39-.79,.13-.25,.27-.51,.41-.77,.05-.09,.09-.17,.14-.26,.04-.09,.09-.17,.14-.26,0-.02,0-.03,0-.06s0-.05,.02-.07c.06-.09,.12-.17,.16-.25,.04-.07,.08-.15,.12-.22,.05-.09,.1-.18,.15-.27,.05-.09,.11-.17,.19-.27l.14-.06s.04-.01,.06-.02c.02,0,.05-.01,.08-.01l.13,.02c.17-.07,.31-.17,.43-.29s.25-.28,.38-.45l.09-.11,.12,.06s.07,.03,.12,.04c.05,.01,.11,.03,.17,.04,.11,.02,.21,.05,.3,.07,.09,.03,.17,.07,.23,.12,.04,.09,.06,.15,.06,.19,0,.04,.01,.09,.03,.13,.02,.09,.03,.18,.05,.27,.01,.09,.02,.19,.03,.31,.03,.09,.05,.18,.08,.27,.02,.09,.04,.18,.06,.27,.03,.13,.06,.25,.09,.37,.03,.12,.07,.23,.12,.34,.05,0,.08,0,.09,0,.03-.01,.06-.02,.09-.02,.03,0,.07-.01,.11-.02h.1s.04,.07,.04,.07c0,.03,.04,.05,.09,.08,.08,0,.13,.02,.17,.04,.04,.02,.07,.05,.1,.08,.02,.02,.05,.04,.07,.05l.13,.05-.07,.12c-.06,.1-.14,.19-.25,.28s-.23,.16-.37,.22c0,.03,.01,.06,.01,.09s.01,.06,.02,.09c.02,.09,.03,.19,.04,.28s.01,.2,0,.3l-.02,.03Zm-2.56-1.39c.18-.01,.34-.02,.48-.04,.14-.01,.31-.04,.48-.07-.04-.16-.09-.33-.13-.5-.05-.17-.1-.35-.15-.52l-.05,.08c-.12,.11-.23,.24-.34,.38-.11,.14-.2,.27-.28,.39-.04,.05-.07,.1-.11,.14-.04,.05-.07,.1-.1,.15,.04,0,.07,0,.1,0s.06,0,.09,0Z"/>
    <path class="cls-1" d="M41.76,15.87c.03,.16,.02,.29-.03,.38s-.12,.16-.21,.21c-.09,.05-.2,.07-.31,.08s-.23,0-.34-.02c-.06-.08-.11-.17-.16-.28s-.09-.23-.13-.35c-.04-.12-.08-.24-.11-.36-.03-.12-.06-.22-.08-.31,.03-.06,.05-.14,.06-.22s.01-.17,.02-.25c0-.09,0-.17,0-.26,0-.09,.01-.17,.02-.25,.04-.23,.1-.44,.18-.64,.08-.2,.14-.42,.19-.64,.01-.05,0-.09-.01-.14s-.02-.08-.01-.12c0-.02,.02-.04,.05-.04,.03,0,.05-.03,.05-.05,.02-.06,.02-.11,.01-.15,0-.04,0-.08,.03-.14,.03-.04,.07-.11,.11-.19,.04-.08,.06-.17,.05-.26,.05-.03,.1-.07,.15-.11,.05-.04,.1-.08,.15-.12,.05-.04,.11-.07,.17-.09s.14-.04,.23-.04c.05,.05,.08,.11,.09,.18s.03,.13,.04,.19,.04,.12,.07,.18c.03,.06,.08,.1,.15,.13v.16c0,.06,0,.13,0,.19,0,.06,.02,.12,.04,.17,.02,.05,.05,.08,.1,.1-.11,.26-.21,.51-.3,.76-.09,.25-.17,.51-.23,.76-.06,.25-.1,.51-.11,.77-.02,.26,0,.52,.06,.78Z"/>
    <path class="cls-1" d="M44.61,14.97c-.05,.01-.09,.04-.12,.08-.02,.05-.05,.09-.07,.14-.02,.05-.04,.09-.06,.13-.02,.04-.05,.06-.09,.06,0,.04-.02,.08-.05,.11-.03,.03-.05,.07-.08,.1-.02,.04-.04,.07-.05,.11-.01,.04,0,.09,.02,.14-.05,.03-.08,.08-.09,.14-.01,.06-.03,.12-.04,.17s-.04,.1-.08,.14c-.04,.04-.1,.05-.19,.05-.02,.02-.02,.03,0,.04s.02,.02,.03,.06c-.06-.01-.11,0-.15,.01-.03,.02-.07,.03-.12,.04-.11-.03-.21-.09-.28-.17-.07-.08-.14-.17-.2-.27-.06-.1-.11-.2-.15-.3-.04-.1-.09-.19-.13-.27,.02-.06,.02-.12,0-.17-.01-.06-.03-.1-.06-.14,.29-.56,.61-1.15,.95-1.79,.34-.63,.67-1.26,.97-1.87,.14,.05,.27,.1,.4,.17,.13,.06,.25,.13,.36,.21s.2,.17,.28,.28c.08,.1,.13,.22,.15,.35-.01,.03-.02,.04-.04,.04-.02,0-.03,0-.04,.01,.02,.03,.04,.05,.04,.06,0,.01,0,.02,0,.03,0,.01,0,.03,0,.04s0,.04,.03,.08c-.02,0-.04,0-.05,0,0,.01-.03,.01-.06,0,.02,.06,.03,.11,.02,.15,0,.04-.02,.07-.04,.1-.02,.03-.03,.06-.04,.1-.01,.03,0,.08,0,.13-.02,0-.03,0-.04,.01,0,0-.02,.02-.02,.02,0,0-.01,.02-.02,.02,0,0-.02,0-.04,0,.02,.12,.02,.24,.02,.35,0,.12-.01,.24-.01,.36s0,.25,0,.38c0,.13,.03,.27,.06,.41,.21-.11,.38-.26,.51-.43,.13-.18,.23-.38,.31-.6,.08-.22,.14-.46,.18-.71,.04-.25,.09-.51,.13-.77,.05-.05,.09-.11,.12-.18,.03-.07,.06-.14,.08-.22,.02-.08,.05-.16,.07-.23,.02-.08,.05-.15,.09-.21,.09,.01,.16,.04,.23,.08,.06,.04,.12,.08,.17,.13,.05,.05,.11,.09,.17,.13,.06,.04,.13,.07,.22,.08,.07,.09,.14,.18,.19,.27s.1,.18,.12,.27c-.03,.04-.05,.09-.07,.15s-.03,.11-.05,.16-.04,.1-.07,.15c-.03,.05-.07,.08-.12,.12-.02,.14-.04,.27-.07,.38-.03,.12-.05,.23-.08,.34-.03,.11-.05,.23-.07,.35-.02,.12-.02,.25-.02,.4-.05,.12-.1,.25-.15,.39-.05,.14-.09,.27-.12,.38-.09,.07-.17,.15-.22,.25-.05,.1-.11,.19-.17,.29-.02,.02-.04,.03-.04,.02s-.03-.02-.06-.02c0,.02,0,.04,0,.05s-.01,.02-.02,.03c0,0-.02,.02-.02,.04s0,.04,.01,.06c-.08,.03-.16,.08-.22,.14-.06,.06-.13,.11-.21,.16s-.16,.08-.27,.1c-.1,.02-.24,0-.4-.06-.24-.16-.46-.35-.64-.56-.19-.21-.34-.46-.46-.75Z"/>
  </g>
</svg>