<?xml version="1.0" encoding="UTF-8"?>
<svg id="Layer_1" data-name="Layer 1" xmlns="http://www.w3.org/2000/svg" viewBox="0 0 49.02 36.18">
  <defs>
    <style>
      .cls-1 {
        fill: none;
      }

      .cls-1, .cls-2 {
        stroke: #333;
        stroke-miterlimit: 10;
        stroke-width: 3px;
      }

      .cls-2 {
        fill: #736357;
      }
    </style>
  </defs>
  <path class="cls-2" d="M12.75,5.75c-.94,1.99-1.31,4.34-1.66,6.65-.06,.38-.12,.77-.03,1.14,.12,.55,.52,.9,.9,1.14,1.38,.86,2.96,.87,4.47,1.21s3.11,1.19,3.78,3.02c.78,2.13,0,4.75,.52,7.02,.52,2.31,2.23,3.74,3.89,4.68,2.88,1.64,6.14,2.45,9.16,1.32,5-1.88,8.29-9.6,6.95-16.29-.16-.8-.39-1.61-.82-2.22-.55-.78-1.35-1.13-2.14-1.32-5.78-1.36-9.28,.83-14.38-4.17-3.24-3.18-7.25-9.28-10.62-2.18Z"/>
  <path class="cls-1" d="M34.78,21.97c-.16,.15-.33,.33-.36,.58s.19,.54,.35,.39c0-.33,0-.67,0-1"/>
  <path class="cls-1" d="M28.96,15.54c.18,.46,.63,.68,.99,.49-.19-.46-.65-.68-1.02-.5"/>
  <path class="cls-1" d="M29.35,28.2c-.23,.02-.45,.3-.43,.61s.32,.53,.51,.35,.07-.68-.16-.65"/>
  <path class="cls-1" d="M16.87,5.43c-.12,.19-.16,.47-.09,.7,.34,.28,.82-.36,.62-.82-.22-.1-.46-.08-.66,.07"/>
  <path class="cls-1" d="M20.99,13.61c-.15,.21-.32,.46-.31,.75s.3,.55,.45,.34c.07-.36-.16-.77-.44-.79"/>
</svg>