<?xml version="1.0" encoding="UTF-8"?>
<svg id="Layer_1" data-name="Layer 1" xmlns="http://www.w3.org/2000/svg" viewBox="0 0 1367 763">
  <defs>
    <style>
      .cls-1, .cls-2, .cls-3, .cls-4, .cls-5, .cls-6, .cls-7, .cls-8, .cls-9, .cls-10, .cls-11, .cls-12, .cls-13, .cls-14 {
        stroke-miterlimit: 10;
      }

      .cls-1, .cls-2, .cls-4, .cls-6, .cls-8, .cls-12, .cls-14 {
        stroke: #231f20;
        stroke-linecap: round;
      }

      .cls-1, .cls-2, .cls-12, .cls-14 {
        stroke-width: 3px;
      }

      .cls-1, .cls-15 {
        fill: #f2f2f2;
      }

      .cls-2, .cls-5, .cls-7, .cls-8, .cls-9, .cls-11 {
        fill: none;
      }

      .cls-3 {
        fill: #c1272d;
        stroke: #c1272d;
      }

      .cls-3, .cls-7 {
        stroke-width: 5px;
      }

      .cls-16 {
        fill: #004ca2;
      }

      .cls-17 {
        fill: #0056a2;
      }

      .cls-18 {
        fill: #004aa2;
      }

      .cls-19 {
        fill: #0047a2;
      }

      .cls-20 {
        fill: #0033a2;
      }

      .cls-21 {
        fill: #002d59;
      }

      .cls-22 {
        fill: #000087;
      }

      .cls-23 {
        fill: #ed1e79;
      }

      .cls-24 {
        fill: #ff0;
      }

      .cls-25 {
        fill: #ff931e;
      }

      .cls-26 {
        fill: #666;
      }

      .cls-27 {
        fill: #c69c6d;
      }

      .cls-28 {
        fill: #231f20;
      }

      .cls-29 {
        fill: #1365c1;
      }

      .cls-30 {
        fill: #1358c1;
      }

      .cls-31 {
        fill: gray;
      }

      .cls-32 {
        fill: #39b54a;
      }

      .cls-5, .cls-9, .cls-10 {
        stroke: #000;
      }

      .cls-5, .cls-10 {
        opacity: .5;
      }

      .cls-5, .cls-10, .cls-13 {
        stroke-width: 6px;
      }

      .cls-6, .cls-8, .cls-9 {
        stroke-width: 2px;
      }

      .cls-6, .cls-12 {
        fill: #ff7bac;
      }

      .cls-7 {
        stroke: #004ea2;
      }

      .cls-11 {
        stroke: #f2f2f2;
      }

      .cls-33 {
        opacity: .2;
      }

      .cls-34 {
        opacity: .3;
      }

      .cls-35 {
        opacity: .4;
      }

      .cls-36 {
        opacity: .6;
      }

      .cls-37 {
        opacity: .7;
      }

      .cls-13 {
        fill: #4d4d4d;
        stroke: #4d4d4d;
      }

      .cls-14 {
        fill: #3fa9f5;
      }
    </style>
  </defs>
  <g>
    <path class="cls-22" d="M24.54,742.91v-10.25c.21-12.75,.21-24.19,0-34.93V24.91H1340.54V742.91H24.54Z"/>
    <path class="cls-22" d="M1315.54,49.91V717.91H49.69c.02-7.14-.03-13.9-.15-20.42V49.91H1315.54M1365.54-.09H-.46V697.96c.22,11.49,.19,22.99,0,34.49v35.46H1365.54V-.09h0Z"/>
  </g>
  <g>
    <path class="cls-26" d="M603.32,743.91c-3.61-.18-7.22-.39-10.84-.61-3.11-.19-6.39-.28-10.04-.28-4.05,0-7.98,.11-11.79,.22-3.62,.1-7.04,.2-10.39,.2-1.26,0-2.53-.01-3.79-.05-.27,0-.56-.01-.84-.01-.96,0-1.92,.04-2.87,.13-3.77-.13-7.31-.23-10.99-.23-1.44,0-2.89,.02-4.34,.05l-2.35,.06c-2.38-.66-4.85-1.03-7.35-1.08-.27,0-.54,0-.8,0-3.27,0-6.15,.4-8.52,.84-.68-.08-1.3-.17-1.89-.28-1.8-.32-3.62-.48-5.42-.48-1.17,0-2.33,.07-3.48,.2-2.78-.38-5.68-.57-8.73-.57-4.56,0-8.74,.42-12.43,.79-.82,.08-1.63,.16-2.44,.24-2.35,.22-4.95,.32-7.94,.32-3.98,0-8.11-.18-12.49-.38l-1.82-.08c-2.14-.09-4.29-.2-6.43-.31-6.57-.33-13.37-.67-20.36-.67-.89,0-1.79,0-2.68,.02-5.42,.07-10.5,.65-15.08,1.23-1.04-.11-2.1-.16-3.16-.16-1.51,0-3,.11-4.47,.33-1.43-.08-2.92-.12-4.49-.12-1.17-.14-2.34-.2-3.53-.2h-2.8c-7.7,0-15.4-.04-23.09-.09-7.79-.04-15.58-.09-23.38-.09-5.54,0-10.53,.02-15.25,.07-1.73,.02-3.45,.03-5.18,.03-8.31,0-16.64-.2-24.75-.6-1.46-.07-2.93-.11-4.51-.11-3.54,0-6.95,.18-9.96,.34l-2.28,.12c-2.82,.14-5.39,.51-7.79,.96-6.84-.29-14.08-.56-21.45-.64-2.85-.03-5.7-.05-8.55-.05-8.24,0-16.52,.12-24.54,.23-7.84,.11-15.95,.23-23.83,.23-2.78,0-5.56-.01-8.34-.05h-.36c-.98,0-1.95,.04-2.93,.14-8.88-.09-16.87-.14-24.32-.14-3.96-.34-7.16-.49-10.25-.49-1.84,0-3.6,.06-5.3,.17-6.01-.77-12.44-1.42-19.18-1.42-6.06,0-11.66,.52-17.02,1.57-1.14-.04-2.27-.08-3.41-.13-1.87-.08-3.76-.16-5.65-.25-5.94-.27-12.09-.55-18.44-.55-5.1,0-9.78,.19-14.16,.57-1.75-.31-3.55-.47-5.38-.47-.22,0-.44,0-.66,0-15.32,.33-29.61,.61-43.7,.78-.18-4.6-.35-8.95-.42-13.31-.08-4.39,.17-9.08,.43-14.04,.23-4.41,.48-9.1,.51-13.98,45.38-21.53,126.82-40.98,232.47-55.34,123.17-16.75,269.94-25.6,424.45-25.6s301.22,8.85,424.36,25.59c106.83,14.52,188.92,34.25,234.02,56.06,.17,2.11,.37,4.19,.56,6.26v.02c-.16,3.07-.19,5.88-.19,8.09,0,.14,0,.29,0,.43-.08,1.95-.04,3.77,.03,5.42-.02,.46-.03,.91-.03,1.37v8.42c-.12,.85-.24,1.63-.37,2.38-.52,2.9-.63,5.8-.33,8.64-3.28-.09-6.63-.17-10.02-.22-.92-.01-1.85-.03-2.77-.05-2.24-.04-4.49-.08-6.75-.08-2.54,0-4.8,.05-6.94,.16-.42-.03-.83-.06-1.25-.07-1.98-.07-3.94-.15-5.91-.23-5.72-.24-11.64-.48-17.71-.48-1.37,0-2.74,.01-4.11,.04-3.74,.08-7.26,.29-10.66,.49-3.66,.22-7.11,.43-10.32,.43-.78,0-1.55-.01-2.33-.04-2.22-.08-4.44-.19-6.66-.3-4.87-.24-9.91-.48-15.13-.48-1.3,0-2.56,.01-3.78,.05-3.43-.58-7.1-.86-11.13-.86-1.6,0-3.27,.04-5.28,.13-4.03,.18-7.74,.57-11.32,.94-3.61,.38-7.02,.73-9.98,.77-.29,0-.58,0-.87,0-4,0-8.34-.33-12.94-.68-5.25-.4-10.68-.82-16.51-.83h-.2c-5.56,0-11.17,.5-16.72,1.48-.43,0-.85,0-1.28,0-.59,0-1.18,0-1.77,0-6-1.26-12.44-1.88-19.57-1.88-6.66,0-12.96,.53-18.33,1.02-1.31,.12-2.63,.18-4.06,.18-2.79,0-5.77-.23-8.58-.47-2.52-.22-5.22-.44-8.22-.44-2.23,0-4.36,.12-6.41,.37-2.22-.39-4.48-.59-6.77-.59-2.04,0-4.12,.16-6.17,.47-.33,.05-.94,.11-2.06,.11-1.23,0-2.71-.07-4.28-.14-1.98-.09-4.22-.2-6.62-.2-2.91,0-5.57,.15-8.12,.47-2.49,.31-5.12,.6-7.98,.89-.69-.03-1.38-.07-2.07-.11-3.87-.2-7.87-.41-12.15-.41h-1.03c-4.53,.04-8.99,.18-13.3,.31-4.4,.14-8.55,.27-12.67,.29-.72,0-1.44,0-2.16,0-6.53,0-13.54-.17-22.71-.55-1.27-.05-2.55-.08-3.91-.08-3.89,0-7.63,.22-10.92,.42-1.55,.09-3.09,.19-4.64,.25-.07,0-.14,0-.21,0-3.86-.33-8.19-.69-12.76-.69-1.28,0-2.52,.03-3.74,.08-4.27-.71-8.74-1.06-13.54-1.06-5.64,0-10.93,.47-15.87,.95-4.08,.4-8.6,.58-14.22,.58-3.61,0-7.36-.07-10.99-.15-9.01-.18-19.23-.38-29.22-.38s-18.79,.2-26.99,.62h-.11c-7.21-.57-14.66-1.16-22.5-1.16-4.38,0-8.42,.18-12.3,.56-5.11-.17-10.54-.25-16.5-.25-9.75,0-19.52,.23-28.96,.45-8.55,.2-17.39,.4-25.97,.43-1.34-.07-2.69-.15-4.03-.21-6.27-.32-12.94-.48-20.4-.48-8.49,0-16.97,.2-25.17,.4-5.36,.13-10.86,.26-16.3,.33-2.74-.82-5.61-1.25-8.54-1.25h-1.22c-2.37,0-4.69,.28-6.96,.82-.77,.04-1.65,.06-2.65,.06-1.59,0-3.32-.05-5.14-.1-2.1-.06-4.27-.12-6.58-.12-1.51,0-2.89,.03-4.23,.08-1.71,.07-3.42,.16-5.13,.25-.78-.07-1.57-.1-2.36-.1-1.15,0-2.32,.07-3.46,.21-1.68,.21-3.61,.33-6.18,.38Z"/>
    <path class="cls-26" d="M682.54,645.91c153.37,0,298.94,8.77,420.99,25.36,57.89,7.87,108.23,17.23,149.63,27.81,27.08,6.92,46.94,13.51,61.41,19.26-.09,0-.19,0-.28,.01-.19,0-.37-.02-.56-.02-1.92-.07-3.84-.15-5.76-.23-5.97-.25-12.15-.5-18.74-.5-1.57,0-3.12,.02-4.61,.05-4.24,.08-8.18,.32-11.66,.53-3.27,.2-6.36,.38-8.82,.38-.51,0-.98,0-1.41-.02-2.02-.07-4.12-.18-6.35-.29-4.93-.24-10.52-.51-16.36-.51-.71,0-1.41,0-2.11,.01-4.05-.56-8.3-.83-12.8-.83-1.98,0-4.01,.05-6.41,.16-4.76,.21-9.02,.66-12.78,1.05-3.03,.32-5.89,.61-7.73,.64-.18,0-.36,0-.55,0-3.05,0-6.92-.3-11.02-.61-5.44-.42-11.61-.89-18.36-.9h-.24c-6,0-12.03,.46-18.02,1.36-6.69-1.18-13.73-1.76-21.33-1.76s-14.25,.54-20.61,1.12c-.55,.05-1.12,.07-1.78,.07-1.83,0-4.26-.19-6.4-.38-2.93-.26-6.4-.53-10.4-.53-1.99,0-3.93,.07-5.83,.2-2.43-.28-4.88-.42-7.34-.42-2.87,0-5.78,.19-8.64,.57-.7-.02-1.72-.06-2.71-.11-2.14-.1-4.8-.22-7.79-.22-3.95,0-7.61,.22-11.19,.66-1.76,.22-3.6,.43-5.56,.64-.04,0-.08,0-.12,0-3.99-.21-8.52-.44-13.44-.44-.42,0-.84,0-1.25,0-4.81,.04-9.42,.18-13.87,.32-4.24,.13-8.24,.26-12.04,.28-.67,0-1.35,0-2.02,0-6.18,0-12.86-.16-21.67-.53-1.6-.07-3.26-.1-4.94-.1-4.64,0-8.77,.25-12.42,.46-.99,.06-1.96,.12-2.86,.16-3.85-.32-8.37-.64-13.26-.64-.76,0-1.5,0-2.24,.02-4.82-.67-9.79-1-15.04-1-6.76,0-12.99,.55-18.29,1.07-3.26,.32-7,.47-11.78,.47-3.37,0-6.99-.07-10.5-.14-9.13-.18-19.49-.39-29.72-.39s-18.46,.19-26.61,.57c-6.96-.54-14.75-1.11-22.97-1.11-4.58,0-8.88,.17-13.04,.52-4.96-.15-10.14-.22-15.75-.22-10.04,0-19.96,.23-29.55,.45-8.56,.2-16.67,.39-24.74,.42-1.13-.06-2.26-.12-3.4-.18-6.7-.34-13.79-.51-21.68-.51-8.78,0-17.41,.2-25.75,.4-4.38,.1-8.62,.2-12.79,.28-3.73-.79-7.56-1.2-11.45-1.2h-1.22c-3.33,0-6.62,.3-9.85,.89-1.18,0-2.64-.05-4.17-.09-2.18-.06-4.64-.14-7.32-.14-1.85,0-3.58,.03-5.27,.1-1.34,.06-2.66,.12-3.96,.18-.83-.04-1.66-.06-2.49-.06-2.16,0-4.34,.13-6.53,.4-.78,.1-1.86,.15-2.77,.17-2.89-.15-6.01-.33-9.68-.55-3.61-.22-7.38-.32-11.53-.32-4.4,0-8.51,.12-12.49,.23-3.44,.1-6.69,.19-9.69,.19-1.13,0-2.15-.01-3.14-.04-.5-.01-1-.02-1.49-.02-1.13,0-2.26,.03-3.39,.1-3.51-.12-6.89-.2-10.48-.2-1.41,0-2.8,.01-4.15,.04-3.08-.6-6.22-.94-9.38-1-.44,0-.87-.01-1.31-.01-3.16,0-6.06,.23-8.61,.56-2.4-.31-4.81-.47-7.22-.47-1,0-1.99,.03-2.99,.08-2.99-.3-6.06-.46-9.22-.46-5.8,0-10.85,.51-14.91,.91-.76,.08-1.51,.15-2.27,.22-1.58,.15-3.42,.22-5.63,.22-3.42,0-7.29-.17-11.39-.35l-1.82-.08c-2.1-.09-4.2-.2-6.3-.3-6.87-.34-13.98-.7-21.58-.7-1,0-2.01,0-3.01,.02-5.69,.07-10.91,.58-15.44,1.12-.82-.04-1.65-.06-2.47-.06-1.82,0-3.63,.09-5.43,.26-.72-.02-1.45-.04-2.19-.05-1.62-.14-3.25-.21-4.88-.21h-2.82c-7.6,0-15.4-.04-22.95-.09-7.68-.04-15.63-.09-23.52-.09-5.63,0-10.7,.02-15.48,.07-1.64,.02-3.28,.02-4.92,.02-7.9,0-15.82-.19-23.53-.57-1.87-.09-3.75-.14-5.74-.14-4.21,0-7.97,.2-11.3,.38-.73,.04-1.45,.08-2.18,.11-2.94,.15-5.66,.45-8.16,.84-6.27-.26-12.84-.47-19.56-.55-2.83-.03-5.72-.05-8.82-.05-8.42,0-16.79,.12-24.9,.23-8.11,.11-15.77,.22-23.48,.22-2.84,0-5.48-.01-8.05-.05h0c-.22,0-.44,0-.66,0-1.27,0-2.54,.04-3.81,.13-8.17-.08-15.53-.12-22.39-.13-3.1-.25-7.07-.49-11.29-.49-1.51,0-2.97,.03-4.41,.09-6.09-.73-12.91-1.33-20.07-1.33-6.58,0-12.78,.49-18.8,1.49-.21,0-.41-.02-.62-.02-1.83-.07-3.67-.16-5.52-.24-5.93-.27-12.65-.58-19.57-.58-4.71,0-9.15,.14-13.37,.43-2.03-.22-4.09-.34-6.17-.34-.38,0-.76,0-1.19,.01-5.55,.12-10.96,.23-16.27,.34,14.32-5.6,33.71-11.97,59.82-18.65,41.4-10.59,91.75-19.95,149.64-27.82,122.07-16.6,267.68-25.37,421.08-25.37m0-50c-320.87,0-592.37,38.43-682.87,91.35,2.28,14.29-.24,28.67,.02,43.05,.2,11.61,1.01,23.2,.95,34.8,1.87,1.08,3.82,2.15,5.84,3.21,20.95-.05,41.9-.48,62.85-.92,.04,0,.09,0,.13,0,1.17,0,2.11,.35,2.85,.9,5.47-.75,11.07-1,16.69-1,7.74,0,15.52,.47,23.09,.78,2.26,.09,4.52,.17,6.79,.24,.12-.04,.24-.08,.37-.11,4.7-1.13,9.48-1.56,14.27-1.56,6.23,0,12.48,.72,18.64,1.56,1.9-.23,3.86-.32,5.84-.32,3.03,0,6.11,.21,9.15,.49h.31c8.92,0,17.82,.06,26.73,.16,.4-.1,.83-.16,1.3-.16,.02,0,.04,0,.07,0,2.88,.03,5.76,.05,8.64,.05,16.13,0,32.25-.46,48.38-.46,2.75,0,5.5,.01,8.26,.04,7.92,.09,15.84,.4,23.76,.75,2.29-.51,4.6-.99,7-1.1,3.65-.18,7.33-.43,11-.43,1.1,0,2.19,.02,3.28,.08,8.68,.43,17.32,.63,26,.63,1.8,0,3.61,0,5.41-.03,5-.05,10-.07,14.99-.07,15.49,0,30.97,.18,46.46,.18,.94,0,1.88,0,2.82,0h0c.56,0,1.07,.08,1.54,.22,.57-.01,1.14-.02,1.71-.02,2.02,0,3.99,.08,5.91,.28,.37-.08,.77-.13,1.19-.13,.06,0,.11,.01,.18,.02,.57-.24,1.22-.37,1.97-.37,.85,0,1.59,.18,2.22,.48,5.43-.68,10.86-1.48,16.35-1.55,.79-.01,1.57-.02,2.36-.02,8.57,0,17.15,.57,25.7,.95,5.13,.22,10.26,.48,15.39,.48,3.42,0,6.84-.12,10.26-.43,4.16-.39,8.37-.92,12.55-.92,3.14,0,6.26,.3,9.33,1.18,.01,0,.02,.01,.04,.02,.8-.51,1.76-.82,2.84-.82,.34,0,.69,.03,1.04,.09,2.62,.47,5.26,.73,7.9,.89,2.25-.51,4.46-1.07,6.89-1.07,.1,0,.2,0,.31,0,1.23,.02,2.24,.5,3.04,1.21,2.59-.05,5.17-.13,7.75-.19,1.25-.03,2.49-.04,3.73-.04,4.14,0,8.27,.15,12.4,.3,.44-.13,.93-.2,1.47-.2,.05,0,.11,0,.16,0,1.49,.04,2.98,.06,4.47,.06,7.4,0,14.79-.41,22.18-.41,2.85,0,5.69,.06,8.54,.23,3.98,.24,7.95,.46,11.92,.66,3.22-.05,6.43-.18,9.64-.58,.14-.02,.28-.03,.41-.03,.4,0,.79,.07,1.17,.2,2.45-.13,4.91-.26,7.36-.37,1.06-.04,2.12-.06,3.19-.06,3.89,0,7.82,.23,11.73,.23,2.54,0,5.07-.1,7.57-.42,.61-.29,1.28-.47,2.04-.47h1.22c1.32,0,2.39,.51,3.2,1.3,15.62-.07,31.2-.77,46.79-.77,6.37,0,12.74,.12,19.12,.44,1.55,.08,3.11,.16,4.66,.25,18.53-.04,37.06-.88,55.58-.88,5.55,0,11.1,.08,16.66,.27,.19,0,.37,.02,.55,.05,3.82-.45,7.7-.62,11.59-.62,7.45,0,14.96,.64,22.28,1.21,9.09-.5,18.2-.67,27.3-.67,9.57,0,19.15,.19,28.72,.38,3.85,.08,7.67,.15,11.49,.15,5.54,0,11.07-.16,16.64-.7,4.5-.44,8.98-.83,13.44-.83,4.02,0,8.03,.32,12.02,1.22,1.76-.18,3.51-.25,5.26-.25,4.05,0,8.1,.38,12.18,.73,.36,0,.71-.02,1.07-.04,.07,0,.13-.01,.2-.01,0,0,0,0,.01,0,.03,0,.06,0,.09,0,4.99-.19,9.98-.67,14.98-.67,.96,0,1.91,.02,2.87,.06,7.92,.33,15.82,.57,23.74,.57,.77,0,1.55,0,2.32,0,8.68-.05,17.35-.53,26.02-.6,.28,0,.56,0,.84,0,4.96,0,9.91,.35,14.85,.58,3.47-.34,6.94-.71,10.41-1.14,1.69-.21,3.37-.28,5.04-.28,3.65,0,7.28,.34,10.91,.34,1.93,0,3.85-.1,5.78-.39,.82-.12,1.64-.19,2.45-.19,2.07,0,4.08,.42,5.81,1.31,2.32-.83,4.84-1.09,7.36-1.09,2.04,0,4.09,.17,6.03,.34,3.72,.33,7.21,.57,10.77,.57,2.08,0,4.17-.08,6.34-.28,5.24-.48,10.65-.91,16.05-.91,5.71,0,11.4,.49,16.85,1.91,1.5-.03,3.01-.04,4.51-.04,.85,0,1.69,0,2.54,.02,.23,0,.45,.04,.67,.07,4.83-1.02,9.75-1.57,14.79-1.57,.05,0,.09,0,.14,0,9.85,.02,19.64,1.51,29.49,1.51,.4,0,.8,0,1.2,0,7.4-.09,14.72-1.4,22.1-1.73,1.34-.06,2.73-.11,4.15-.11,3.02,0,6.15,.21,9.07,.96,1.94-.1,3.88-.14,5.84-.14,6.91,0,13.89,.51,20.87,.77,1.09,.04,2.17,.06,3.26,.06,7.18,0,14.28-.78,21.48-.92,1.21-.02,2.41-.03,3.62-.03,7.57,0,15.14,.43,22.7,.7,.45,.02,.86,.09,1.25,.2,2.61-.2,5.23-.26,7.86-.26,3.06,0,6.12,.08,9.14,.13,7.3,.11,14.59,.35,21.89,.62,.48-.16,1.02-.24,1.62-.24,.02,0,.04,0,.07,0,1.2,.01,2.37,.06,3.52,.28,3.61-1.87,6.99-3.75,10.13-5.66-2.13-6.16-1.69-12.89-.76-19.59-.95-1.08-1.47-2.59-1.14-4.38,.32-1.74,.56-3.49,.77-5.24v-10c0-.34,.03-.67,.09-.97-.11-1.73-.18-3.47-.09-5.19,0-.15,.04-.28,.06-.42-.02-.2-.06-.39-.06-.61,0-2.84,.06-5.66,.27-8.48-.65-7.08-1.41-14.17-1.22-21.24-90.57-52.91-362.01-91.32-682.79-91.32h0Z"/>
  </g>
  <g class="cls-37">
    <path class="cls-26" d="M550.32,734.91c-3.61-.18-7.22-.39-10.84-.61-3.11-.19-6.39-.28-10.04-.28-4.05,0-7.98,.11-11.79,.22-3.62,.1-7.04,.2-10.39,.2-1.26,0-2.53-.01-3.79-.05-.27,0-.56-.01-.84-.01-.96,0-1.92,.04-2.87,.13-3.77-.13-7.31-.23-10.99-.23-1.44,0-2.89,.02-4.34,.05l-2.35,.06c-2.38-.66-4.85-1.03-7.35-1.08-.27,0-.54,0-.8,0-3.27,0-6.15,.4-8.51,.84-.68-.08-1.31-.17-1.89-.28-1.8-.32-3.62-.48-5.42-.48-1.17,0-2.33,.07-3.48,.2-2.78-.38-5.68-.57-8.73-.57-4.56,0-8.74,.42-12.43,.79-.82,.08-1.63,.16-2.44,.24-2.35,.22-4.95,.32-7.94,.32-3.98,0-8.11-.18-12.49-.38l-1.82-.08c-2.14-.09-4.29-.2-6.43-.31-6.57-.33-13.37-.67-20.36-.67-.89,0-1.79,0-2.68,.02-5.42,.07-10.5,.65-15.08,1.23-1.04-.11-2.1-.16-3.16-.16-1.51,0-3,.11-4.47,.33-1.43-.08-2.92-.12-4.49-.12-1.17-.14-2.34-.2-3.53-.2h-2.8c-7.7,0-15.4-.04-23.09-.09-7.79-.04-15.58-.09-23.38-.09-5.54,0-10.53,.02-15.25,.07-1.73,.02-3.45,.03-5.18,.03-8.31,0-16.64-.2-24.75-.6-1.46-.07-2.93-.11-4.51-.11-3.54,0-6.95,.18-9.96,.34l-2.28,.12c-2.82,.14-5.39,.51-7.79,.96-6.84-.29-14.08-.56-21.45-.64-2.85-.03-5.7-.05-8.55-.05-8.24,0-16.52,.12-24.54,.23-7.84,.11-15.95,.23-23.83,.23-2.78,0-5.56-.01-8.34-.05h-.36c-.98,0-1.96,.04-2.93,.14-8.88-.09-16.87-.14-24.32-.14-3.96-.34-7.16-.49-10.25-.49-1.84,0-3.6,.06-5.3,.17-6.01-.77-12.44-1.42-19.18-1.42-6.06,0-11.66,.52-17.02,1.57-1.14-.04-2.27-.08-3.4-.13-1.87-.08-3.76-.16-5.65-.25-5.94-.27-12.09-.55-18.44-.55-4.07,0-7.87,.12-11.47,.36,.32-19.05,.26-39.29-.84-59.75,57.56-17.41,138.11-32.19,234.74-42.99,111.3-12.44,239.63-19.01,371.11-19.01,154.47,0,301.22,8.85,424.36,25.59,106.83,14.52,188.92,34.25,234.02,56.06,.17,2.11,.37,4.19,.56,6.26v.02c-.16,3.07-.19,5.88-.19,8.09,0,.14,0,.28,0,.42-.08,1.95-.04,3.77,.03,5.43-.02,.46-.03,.91-.03,1.37v8.42c-.12,.85-.24,1.63-.37,2.37-.53,2.9-.63,5.8-.33,8.64-3.28-.09-6.63-.17-10.02-.22-.92-.01-1.85-.03-2.77-.05-2.24-.04-4.49-.08-6.75-.08-2.54,0-4.8,.05-6.94,.16-.42-.03-.83-.06-1.25-.07-1.98-.07-3.94-.15-5.91-.23-5.72-.24-11.64-.48-17.71-.48-1.37,0-2.74,.01-4.11,.04-3.74,.08-7.26,.29-10.66,.49-3.66,.22-7.11,.43-10.32,.43-.78,0-1.55-.01-2.33-.04-2.22-.08-4.44-.19-6.66-.3-4.87-.24-9.91-.48-15.13-.48-1.3,0-2.56,.01-3.78,.05-3.43-.58-7.1-.86-11.13-.86-1.6,0-3.27,.04-5.28,.13-4.03,.18-7.74,.57-11.32,.94-3.61,.38-7.02,.73-9.98,.77-.29,0-.58,0-.87,0-4,0-8.34-.33-12.94-.68-5.25-.4-10.68-.82-16.51-.83h-.2c-5.56,0-11.17,.5-16.72,1.48-.43,0-.85,0-1.28,0-.59,0-1.18,0-1.77,0-6-1.26-12.44-1.88-19.57-1.88-6.66,0-12.96,.53-18.33,1.02-1.31,.12-2.63,.18-4.06,.18-2.79,0-5.77-.23-8.58-.47-2.52-.22-5.22-.44-8.22-.44-2.23,0-4.36,.12-6.41,.37-2.21-.39-4.48-.59-6.77-.59-2.04,0-4.12,.16-6.17,.47-.33,.05-.94,.11-2.06,.11-1.23,0-2.71-.07-4.28-.14-1.98-.09-4.22-.2-6.62-.2-2.91,0-5.57,.15-8.12,.47-2.49,.31-5.12,.6-7.98,.89-.69-.03-1.38-.07-2.07-.11-3.87-.2-7.87-.41-12.15-.41h-1.03c-4.53,.04-8.99,.18-13.3,.31-4.4,.14-8.55,.27-12.67,.29-.72,0-1.44,0-2.16,0-6.53,0-13.54-.17-22.71-.55-1.27-.05-2.55-.08-3.91-.08-3.89,0-7.63,.22-10.92,.42-1.55,.09-3.09,.19-4.64,.25-.07,0-.14,0-.21,0-3.86-.33-8.19-.69-12.76-.69-1.28,0-2.52,.03-3.74,.08-4.27-.71-8.74-1.06-13.54-1.06-5.64,0-10.93,.47-15.87,.95-4.08,.4-8.6,.58-14.22,.58-3.61,0-7.36-.07-10.99-.15-9.01-.18-19.23-.38-29.22-.38s-18.79,.2-26.99,.62h-.11c-7.21-.57-14.66-1.16-22.5-1.16-4.38,0-8.42,.18-12.3,.56-5.11-.17-10.54-.25-16.5-.25-9.75,0-19.52,.23-28.96,.45-8.55,.2-17.39,.4-25.97,.43-1.34-.07-2.69-.15-4.03-.21-6.27-.32-12.94-.48-20.4-.48-8.49,0-16.97,.2-25.17,.4-5.36,.13-10.86,.26-16.3,.33-2.74-.82-5.61-1.25-8.54-1.25h-1.22c-2.37,0-4.69,.28-6.96,.82-.77,.04-1.65,.06-2.65,.06-1.59,0-3.32-.05-5.14-.1-2.1-.06-4.27-.12-6.58-.12-1.51,0-2.89,.03-4.23,.08-1.71,.07-3.42,.16-5.13,.25-.78-.07-1.57-.1-2.36-.1-1.15,0-2.32,.07-3.46,.21-1.68,.21-3.6,.33-6.18,.38Z"/>
    <path class="cls-26" d="M629.54,636.91c153.37,0,298.94,8.77,420.99,25.36,57.89,7.87,108.23,17.23,149.63,27.81,27.08,6.92,46.94,13.51,61.41,19.26-.09,0-.19,0-.28,.01-.19,0-.37-.02-.56-.02-1.92-.07-3.84-.15-5.76-.23-5.97-.25-12.15-.5-18.74-.5-1.57,0-3.12,.02-4.61,.05-4.24,.08-8.18,.32-11.66,.53-3.27,.2-6.36,.38-8.82,.38-.51,0-.98,0-1.41-.02-2.02-.07-4.12-.18-6.35-.29-4.93-.24-10.52-.51-16.36-.51-.71,0-1.41,0-2.11,.01-4.05-.56-8.3-.83-12.8-.83-1.98,0-4.01,.05-6.4,.16-4.76,.21-9.02,.66-12.78,1.05-3.03,.32-5.89,.61-7.73,.64-.18,0-.36,0-.55,0-3.05,0-6.92-.3-11.02-.61-5.44-.42-11.61-.89-18.36-.9h-.24c-6,0-12.03,.46-18.02,1.36-6.69-1.18-13.73-1.76-21.33-1.76s-14.25,.54-20.61,1.12c-.55,.05-1.12,.07-1.78,.07-1.83,0-4.26-.19-6.4-.38-2.93-.26-6.4-.53-10.4-.53-1.99,0-3.93,.07-5.83,.2-2.43-.28-4.88-.42-7.34-.42-2.87,0-5.78,.19-8.64,.57-.7-.02-1.72-.06-2.71-.11-2.14-.1-4.8-.22-7.79-.22-3.95,0-7.61,.22-11.19,.66-1.76,.22-3.6,.43-5.56,.64-.04,0-.08,0-.12,0-3.99-.21-8.52-.44-13.44-.44-.42,0-.84,0-1.25,0-4.81,.04-9.42,.18-13.87,.32-4.24,.13-8.24,.26-12.04,.28-.67,0-1.35,0-2.02,0-6.18,0-12.86-.16-21.67-.53-1.6-.07-3.26-.1-4.94-.1-4.64,0-8.77,.25-12.42,.46-.99,.06-1.96,.12-2.86,.16-3.85-.32-8.37-.64-13.26-.64-.76,0-1.5,0-2.24,.02-4.82-.67-9.79-1-15.04-1-6.76,0-12.99,.55-18.3,1.07-3.26,.32-7,.47-11.78,.47-3.37,0-6.99-.07-10.5-.14-9.13-.18-19.49-.39-29.72-.39s-18.46,.19-26.61,.57c-6.96-.54-14.75-1.11-22.97-1.11-4.58,0-8.88,.17-13.04,.52-4.96-.15-10.14-.22-15.75-.22-10.04,0-19.96,.23-29.55,.45-8.56,.2-16.67,.39-24.74,.42-1.13-.06-2.26-.12-3.39-.18-6.7-.34-13.79-.51-21.68-.51-8.78,0-17.41,.2-25.75,.4-4.38,.1-8.62,.2-12.79,.28-3.73-.79-7.56-1.2-11.45-1.2h-1.22c-3.33,0-6.62,.3-9.85,.89-1.18,0-2.64-.05-4.17-.09-2.18-.06-4.64-.14-7.32-.14-1.85,0-3.58,.03-5.27,.1-1.34,.06-2.66,.12-3.96,.18-.83-.04-1.66-.06-2.49-.06-2.16,0-4.34,.13-6.54,.4-.77,.1-1.86,.15-2.77,.17-2.89-.15-6.02-.33-9.68-.55-3.61-.22-7.38-.32-11.53-.32-4.4,0-8.51,.12-12.49,.23-3.44,.1-6.69,.19-9.69,.19-1.13,0-2.15-.01-3.14-.04-.5-.01-1-.02-1.49-.02-1.13,0-2.26,.03-3.39,.1-3.51-.12-6.89-.2-10.48-.2-1.41,0-2.8,.01-4.15,.04-3.08-.6-6.22-.94-9.38-1-.44,0-.87-.01-1.31-.01-3.16,0-6.06,.23-8.61,.56-2.4-.31-4.81-.47-7.21-.47-1,0-1.99,.03-2.99,.08-2.99-.3-6.06-.46-9.22-.46-5.8,0-10.85,.51-14.91,.91-.76,.08-1.51,.15-2.27,.22-1.58,.15-3.42,.22-5.63,.22-3.42,0-7.29-.17-11.38-.35l-1.82-.08c-2.1-.09-4.2-.2-6.3-.3-6.87-.34-13.98-.69-21.58-.69-1,0-2.01,0-3.01,.02-5.69,.07-10.91,.58-15.44,1.12-.82-.04-1.65-.06-2.47-.06-1.82,0-3.63,.09-5.43,.26-.72-.02-1.45-.04-2.19-.05-1.62-.14-3.25-.21-4.88-.21h-2.82c-7.6,0-15.4-.04-22.95-.09-7.68-.04-15.63-.09-23.52-.09-5.63,0-10.7,.02-15.48,.07-1.64,.02-3.28,.02-4.92,.02-7.9,0-15.82-.19-23.53-.57-1.87-.09-3.75-.14-5.74-.14-4.21,0-7.97,.2-11.3,.38-.73,.04-1.45,.08-2.18,.11-2.94,.15-5.66,.45-8.16,.84-6.27-.26-12.84-.47-19.56-.55-2.83-.03-5.72-.05-8.82-.05-8.42,0-16.79,.12-24.9,.23-8.11,.11-15.77,.22-23.48,.22-2.84,0-5.48-.01-8.05-.05h0c-.22,0-.44,0-.66,0-1.27,0-2.54,.04-3.81,.13-8.17-.08-15.53-.12-22.39-.13-3.1-.25-7.07-.49-11.29-.49-1.51,0-2.97,.03-4.41,.09-6.09-.73-12.91-1.33-20.07-1.33-6.59,0-12.8,.49-18.81,1.49-.2,0-.41-.02-.61-.02-1.83-.07-3.67-.16-5.52-.24-1.89-.09-3.86-.18-5.89-.26-.03-5.3-.11-10.67-.25-16.07,54.39-14.69,126.6-27.26,211.78-36.78,110.4-12.34,237.76-18.86,368.33-18.86m0-50c-274.11,0-512.19,28.05-632.18,69.22,3.07,34.09,2.57,68.42,1.55,102.63,5.81-.11,11.61-.23,17.42-.35,.04,0,.09,0,.13,0,1.17,0,2.11,.35,2.85,.9,5.47-.75,11.07-1,16.69-1,7.74,0,15.52,.47,23.09,.78,2.26,.09,4.52,.17,6.79,.24,.12-.04,.24-.08,.37-.11,4.7-1.13,9.48-1.56,14.27-1.56,6.23,0,12.48,.72,18.64,1.56,1.9-.23,3.86-.32,5.84-.32,3.03,0,6.11,.21,9.15,.49h.31c8.92,0,17.82,.06,26.73,.16,.4-.1,.83-.16,1.3-.16,.02,0,.04,0,.07,0,2.88,.03,5.76,.05,8.64,.05,16.13,0,32.25-.46,48.38-.46,2.75,0,5.5,.01,8.26,.04,7.92,.09,15.84,.4,23.76,.75,2.29-.51,4.6-.99,7-1.1,3.65-.18,7.33-.43,11-.43,1.1,0,2.19,.02,3.28,.08,8.68,.43,17.32,.63,26,.63,1.8,0,3.61,0,5.41-.03,5-.05,10-.07,14.99-.07,15.49,0,30.97,.18,46.46,.18,.94,0,1.88,0,2.82,0h0c.56,0,1.07,.08,1.54,.22,.57-.01,1.14-.02,1.71-.02,2.02,0,3.99,.08,5.91,.28,.37-.08,.77-.13,1.19-.13,.06,0,.11,.01,.18,.02,.57-.24,1.22-.37,1.97-.37,.85,0,1.59,.18,2.22,.48,5.43-.68,10.86-1.48,16.35-1.55,.79-.01,1.57-.02,2.36-.02,8.57,0,17.15,.57,25.7,.95,5.13,.22,10.26,.48,15.39,.48,3.42,0,6.84-.12,10.26-.43,4.16-.39,8.37-.92,12.55-.92,3.14,0,6.26,.3,9.33,1.18,.01,0,.02,.01,.04,.02,.8-.51,1.76-.82,2.84-.82,.34,0,.69,.03,1.04,.09,2.62,.47,5.26,.73,7.9,.89,2.25-.51,4.46-1.07,6.89-1.07,.1,0,.2,0,.31,0,1.23,.02,2.24,.5,3.04,1.21,2.59-.05,5.17-.13,7.75-.19,1.25-.03,2.49-.04,3.73-.04,4.14,0,8.27,.15,12.4,.3,.44-.13,.93-.2,1.47-.2,.05,0,.11,0,.16,0,1.49,.04,2.98,.06,4.47,.06,7.4,0,14.79-.41,22.18-.41,2.85,0,5.69,.06,8.54,.23,3.98,.24,7.95,.46,11.92,.66,3.22-.05,6.43-.18,9.64-.58,.14-.02,.28-.03,.41-.03,.4,0,.79,.07,1.17,.2,2.45-.13,4.91-.26,7.36-.37,1.06-.04,2.12-.06,3.18-.06,3.89,0,7.82,.23,11.73,.23,2.54,0,5.07-.1,7.57-.42,.61-.29,1.28-.47,2.04-.47h1.22c1.32,0,2.39,.51,3.2,1.3,15.62-.07,31.2-.77,46.79-.77,6.37,0,12.74,.12,19.12,.44,1.55,.08,3.11,.16,4.66,.25,18.53-.04,37.06-.88,55.58-.88,5.55,0,11.1,.08,16.66,.27,.19,0,.37,.02,.55,.05,3.82-.45,7.7-.62,11.59-.62,7.45,0,14.96,.64,22.28,1.21,9.09-.5,18.2-.67,27.3-.67,9.57,0,19.15,.19,28.72,.38,3.85,.08,7.67,.15,11.49,.15,5.54,0,11.07-.16,16.64-.7,4.5-.44,8.98-.83,13.44-.83,4.02,0,8.03,.32,12.02,1.22,1.76-.18,3.51-.25,5.26-.25,4.05,0,8.1,.38,12.18,.73,.36,0,.71-.02,1.07-.04,.07,0,.13-.01,.2-.01,0,0,0,0,.01,0,.03,0,.06,0,.09,0,4.99-.19,9.98-.67,14.98-.67,.96,0,1.91,.02,2.87,.06,7.92,.33,15.82,.57,23.74,.57,.77,0,1.55,0,2.32,0,8.68-.05,17.35-.53,26.02-.6,.28,0,.56,0,.84,0,4.96,0,9.9,.35,14.85,.58,3.47-.34,6.94-.71,10.41-1.14,1.69-.21,3.37-.28,5.04-.28,3.65,0,7.28,.34,10.91,.34,1.93,0,3.85-.1,5.78-.39,.82-.12,1.64-.19,2.45-.19,2.07,0,4.08,.42,5.81,1.31,2.32-.83,4.84-1.09,7.36-1.09,2.04,0,4.09,.17,6.03,.34,3.72,.33,7.21,.57,10.77,.57,2.08,0,4.17-.08,6.34-.28,5.24-.48,10.65-.91,16.05-.91,5.71,0,11.4,.49,16.85,1.91,1.5-.03,3.01-.04,4.51-.04,.85,0,1.69,0,2.54,.02,.23,0,.45,.04,.67,.07,4.83-1.02,9.75-1.57,14.79-1.57,.05,0,.09,0,.14,0,9.85,.02,19.64,1.51,29.49,1.51,.4,0,.8,0,1.2,0,7.4-.09,14.72-1.4,22.1-1.73,1.34-.06,2.73-.11,4.15-.11,3.02,0,6.15,.21,9.07,.96,1.94-.1,3.88-.14,5.84-.14,6.91,0,13.89,.51,20.87,.77,1.09,.04,2.17,.06,3.26,.06,7.19,0,14.28-.78,21.48-.92,1.21-.02,2.41-.03,3.62-.03,7.57,0,15.14,.43,22.7,.7,.45,.02,.86,.09,1.25,.2,2.61-.2,5.23-.26,7.86-.26,3.06,0,6.12,.08,9.14,.13,7.3,.11,14.59,.35,21.89,.62,.48-.16,1.02-.24,1.62-.24,.02,0,.04,0,.07,0,1.2,.01,2.37,.06,3.52,.28,3.61-1.87,6.99-3.75,10.13-5.66-2.13-6.16-1.69-12.89-.76-19.59-.95-1.08-1.47-2.59-1.14-4.38,.32-1.74,.56-3.49,.77-5.24v-10c0-.34,.03-.67,.09-.97-.11-1.73-.18-3.47-.09-5.19,0-.15,.04-.28,.06-.42-.02-.2-.06-.39-.06-.61,0-2.84,.06-5.66,.27-8.48-.65-7.08-1.41-14.17-1.22-21.24-90.57-52.91-362.01-91.32-682.79-91.32h0Z"/>
  </g>
  <g class="cls-33">
    <ellipse class="cls-18" cx="421.54" cy="387.41" rx="21" ry="14.5"/>
    <path class="cls-17" d="M421.54,347.91c-25.41,0-46,17.68-46,39.5s20.59,39.5,46,39.5,46-17.68,46-39.5-20.59-39.5-46-39.5h0Z"/>
  </g>
  <path class="cls-10" d="M490.41,616.6c2.72-.74,5.12-2.33,7.75-3.34,14.93-5.74,30.62,8.31,46.59,7.33,12.68-.78,23.34-10.91,36.02-11.65,3.95-.23,8.1,.44,11.73-1.14,3.62-1.58,5.94-6.89,2.97-9.5-11.77,3.05-24.02,3.65-36.16,4.23-15,.72-30.01,1.44-45.01,2.16-12.39,.59-31.34-1.82-42.45,2.85,1.91,6.71,11.97,10.86,18.55,9.07Z"/>
  <path class="cls-10" d="M443.66,694.41c12.35-19.21,30.2-38.3,53.04-38.87,22.47-.56,41.79,17.12,64.18,19.03,2.55,.22,5.19,.24,7.53,1.27,2.63,1.15,4.59,3.46,6.03,5.94,8.06,13.9,1.07,32.01-9.56,44.07-4.06,4.6-8.7,8.82-14.25,11.44-7.51,3.55-16.07,3.94-24.37,4.26-31.03,1.19-62.22,2.24-93.02-1.73-3.8-.49-7.81-1.15-10.75-3.61-7.56-6.31,.54-12.37,4.61-17.16,6.4-7.54,11.22-16.35,16.55-24.64Z"/>
  <path class="cls-10" d="M839.01,649.6c4.58,1.4,9.71-2.48,10.41-7.22,.71-4.74-2.34-9.53-6.58-11.76-4.24-2.24-9.38-2.24-14.01-1-2.05,.55-4.08,1.35-5.67,2.76-3.89,3.46-3.88,10.17-.4,14.05,3.48,3.87,9.61,4.77,14.37,2.66"/>
  <path class="cls-10" d="M331.8,659.73c4.43-1.36,9.12-3.1,11.75-6.91,2.63-3.82,1.76-10.26-2.66-11.66-1.47-.46-3.06-.31-4.59-.14-7.83,.87-16.34,2.31-21.58,8.2-1.18,1.33-2.18,2.92-2.42,4.68-.56,4.08,3.15,7.75,7.16,8.66,4.01,.91,8.18-.21,12.14-1.32"/>
  <path class="cls-10" d="M1149.94,711.34c-.3,4.87,.07,10.08,2.91,14.06,2.13,2.99,5.42,4.93,8.75,6.49,16.48,7.73,36.34,7.88,52.94,.4,14.07-6.34,29.2-20.15,33.33-35.6,4.41-16.49-13.38-27.37-28.9-29.31-11.92-1.49-28.04,1.6-39.83,3.18-20.05,2.7-28.01,21.4-29.18,40.77Z"/>
  <path class="cls-5" d="M283,718.95c-1.15,2.04-1.41,4.57-.68,6.8,2.17-.07,4.35-.14,6.52-.21-1.23-2.48-3.27-4.55-5.72-5.84"/>
  <path class="cls-5" d="M59.98,732.91c3.23,1.87,6.9,2.99,10.63,3.22,.53-2.7-.93-5.66-3.39-6.89-2.46-1.22-5.71-.6-7.54,1.45"/>
  <path class="cls-5" d="M704.44,662.06c.07,1.72,.13,3.45,.2,5.17,1.24,.02,2.48,.03,3.72,.05-.02-1.26-.04-2.51-.05-3.77-2.14-.61-4.27-1.21-6.41-1.82"/>
  <path class="cls-5" d="M823.75,744.64c1.39,1.3,3.61,1.63,5.31,.79-.98-2.17-2.9-3.9-5.17-4.63"/>
  <path class="cls-5" d="M980.65,658.08c-.03,3.2,3.43,5.93,6.54,5.17,1.72-3.94-3.95-8.5-7.43-5.98"/>
  <path class="cls-5" d="M1328.62,751.08c2.1,3.01,7.95-.44,6.32-3.74-2.29-1.32-5.6-.32-6.79,2.04"/>
  <path class="cls-10" d="M998.25,724.79c4.3-2.74,8.59-5.48,12.89-8.21-1.55-6.95-3.6-14.65-10.08-18.05-5.91-3.09-13.16-1.05-17.24,4.22-8.09,10.45,.88,24.31,12.15,25.81"/>
  <g class="cls-35">
    <path class="cls-21" d="M201.38,480.05c-11.56,0-21.62-3.96-27.6-10.86-6.71-7.76-10.09-20.32-12.52-31.58-9.3-43.27-10.24-87.76-11.23-134.88-1.24-59.05-2.53-120.12-21.76-178.67-2.19-6.67-4.58-13.19-6.88-19.49-5.21-14.23-10.13-27.67-12.19-40.96-1.59-10.23-1.16-20.62,1.15-27.81,2.47-7.71,5.78-8.5,7.55-8.93,16.75-4.04,37.11-4.58,54.82-4.58,5.74,0,11.62,.06,17.31,.12,5.67,.06,11.53,.12,17.24,.12,8.5,0,15.4-.14,21.7-.43,6.27-.29,13.37-.63,20.09-.63,4.59,0,8.77,.16,12.61,.49,.62,28.14-3.34,56.95-7.49,87.14-6.55,47.66-13.32,96.94-1.42,146.43,3.45,14.33,8.28,27.83,12.96,40.89,5.71,15.95,11.11,31.02,13.49,46.1,3.96,25.11-.23,52.91-12.12,80.41-7.67,17.74-21.44,41.17-43.46,52.04-6.66,3.29-14.56,5.09-22.25,5.09Z"/>
    <path class="cls-21" d="M236.09,46.79c-1.19,18.94-3.89,38.59-6.68,58.89-6.87,49.96-13.97,101.61-.96,155.68,3.76,15.65,8.83,29.79,13.73,43.48,5.31,14.81,10.32,28.81,12.33,41.56,3.22,20.42-.36,43.45-10.37,66.59-8.49,19.64-19.7,33.68-31.58,39.54-3.24,1.6-7.32,2.52-11.19,2.52-5.07,0-8.09-1.52-8.69-2.22-1.56-1.81-4.04-6.83-6.98-20.48-8.8-40.93-9.71-84.27-10.68-130.15-1.28-60.89-2.61-123.85-23-185.94-2.32-7.07-4.78-13.79-7.16-20.28-4.77-13.04-9.28-25.35-10.97-36.21-.63-4.03-.73-7.59-.6-10.4,12.4-1.8,26.61-2.08,39.41-2.08,5.61,0,11.43,.06,17.05,.12,5.74,.06,11.67,.12,17.51,.12,8.9,0,16.16-.15,22.87-.46,1.92-.09,3.92-.18,5.95-.27M249.06-3.54c-7.09,0-14.21,.32-21.27,.65-6.62,.31-13.49,.41-20.53,.41-11.26,0-22.91-.24-34.56-.24-21.06,0-42.09,.8-60.67,5.28-27.39,6.6-31.41,40-27.54,64.89,3.46,22.25,13,43.02,20.03,64.41,32.62,99.32,10.33,208.79,32.3,311,3.28,15.27,7.83,30.88,18.06,42.69,11.48,13.27,28.83,19.5,46.5,19.5,11.48,0,23.09-2.63,33.31-7.67,25.96-12.8,43.87-37.97,55.35-64.54,12.77-29.53,18.87-62.44,13.86-94.22-4.83-30.63-19.59-58.79-26.84-88.94-19.48-81.01,16.78-165.71,8.37-248.6-11.75-3.63-24.02-4.6-36.37-4.6h0Z"/>
  </g>
  <g class="cls-34">
    <path class="cls-21" d="M641.4,277.31c-17.23,0-34.7-8.15-45.6-21.27-12.76-15.37-17.2-37.86-11.32-57.32,1.15-3.8,2.77-7.88,4.49-12.19,2.79-7.01,5.96-14.96,7.88-23.83,4.95-22.83-.93-44.33-15.74-57.5-2.88-2.56-5.65-4.42-7.88-5.91-.3-.2-.63-.42-.96-.65,.14-1.66,.76-4.51,2.39-7.81,5.15-10.4,13.82-19.87,23-29.9,2.67-2.92,5.44-5.94,8.17-9.04,5.03-5.72,8.72-11.09,11.69-15.4q5.52-8.04,8.7-8.38c6.86-.72,65.32-2.79,102.68-2.79,1.87,0,3.6,0,5.19,.01-1.57,8.74-4.96,18.26-8.46,28.1-2.33,6.53-4.73,13.29-6.77,20.25-8.38,28.53-9.72,59.02-3.88,88.18,.99,4.93,2.14,9.65,3.26,14.22,2.25,9.2,4.37,17.9,4.39,25.58,.05,17.33-11.14,36.79-30.7,53.37-14.57,12.35-28.94,19.66-42.7,21.71-2.55,.38-5.18,.57-7.82,.57Z"/>
    <path class="cls-21" d="M700.11,50.61c-1.8,5.13-3.59,10.43-5.24,16.02-9.52,32.4-11.04,67.03-4.41,100.14,1.09,5.44,2.31,10.43,3.49,15.25,1.88,7.72,3.66,15,3.68,19.71,.03,9.66-8.35,22.77-21.87,34.23-10.81,9.17-21.26,14.72-30.22,16.06-1.33,.2-2.72,.3-4.13,.3-9.84,0-20.19-4.8-26.37-12.24-7.43-8.94-10.09-22.65-6.62-34.11,.84-2.78,2.27-6.38,3.79-10.19,3-7.52,6.72-16.89,9.09-27.78,2.8-12.91,2.99-26.24,.55-38.52-2.84-14.3-9.14-27.03-18.36-37.25,3.54-4.48,7.9-9.25,12.63-14.42,2.75-3.01,5.6-6.11,8.49-9.4,5.24-5.95,9.2-11.5,12.23-15.88,13.11-.6,38.57-1.47,63.28-1.92M728.9,.31c-37.2,0-97.37,2.07-105.36,2.93-20.49,2.21-22.42,16.17-36.46,32.12-12.45,14.14-26.34,27.27-34.81,44.37-5.6,11.32-7.99,26.41,.81,35.47,3.34,3.44,7.85,5.49,11.43,8.67,9,8.01,10.48,21.76,7.92,33.53-2.55,11.77-8.38,22.56-11.87,34.09-8.25,27.29-2.2,58.59,16.02,80.53,15.75,18.97,40.26,30.3,64.83,30.3,3.85,0,7.7-.28,11.51-.85,20.57-3.07,39.31-13.92,55.17-27.37,21.69-18.38,39.61-44.08,39.54-72.51-.04-15.16-5.16-29.78-8.14-44.64-5.04-25.18-3.88-51.59,3.36-76.23,7.66-26.07,22.15-52.47,15.48-78.81-.3-1.17-12.48-1.6-29.43-1.6h0Z"/>
  </g>
  <g class="cls-36">
    <path class="cls-21" d="M1015.72,491.03c-15.6,0-30.32-2.73-43.75-8.11-29.23-11.72-52-37.41-58-65.46-5.29-24.73,.57-53.99,17.43-86.98,2.21-4.32,4.54-8.67,7-13.28,15.93-29.75,33.98-63.48,25.16-101.76-1.68-7.27-4.19-13.8-6.41-19.55-1.2-3.11-2.33-6.05-3.22-8.8-4.81-14.91-4.99-32.7-5.17-49.9l-1.07-104.88c-.03-3.29,.03-6.02,.15-8.28,8.26-.05,15.92-.45,23.3-1.22,.08,0,.16,0,.23,0,1.26,.02,2.65,.1,4.11,.18,2.14,.11,4.57,.24,7.15,.24,1.78,0,3.47-.06,5.1-.19,11.59,1.44,24.45,2.15,39.19,2.15s29.13-.66,43.24-1.31c13.45-.61,26.16-1.19,38.19-1.19,.64,0,1.29,0,1.93,0,2.12,.01,5.54,.03,7.06,.32,.79,.95,2.05,3.71,2.14,7.24,.16,6.32-2,14.07-4.29,22.27-.63,2.26-1.26,4.53-1.86,6.79-8.04,30.48-10.04,61.18-11.97,90.87l-14.08,215.96c-.84,12.85-1.88,28.84,2.39,44.84,1.91,7.16,4.67,13.54,7.09,19.16,2.46,5.69,4.78,11.07,5.26,15.2,1.63,13.98-17.07,29.03-35.5,36.09-16.36,6.27-33.94,9.59-50.83,9.59h0Z"/>
    <path class="cls-21" d="M972.86,47.89c.42,.02,.86,.04,1.31,.07,2.34,.12,5.24,.28,8.49,.28,1.49,0,2.94-.03,4.36-.1,11.99,1.38,25.12,2.06,39.93,2.06s29.99-.68,44.38-1.33c6.59-.3,12.99-.59,19.18-.81-.44,1.58-.88,3.2-1.33,4.89-8.65,32.81-10.73,64.74-12.75,95.62l-1.91,29.32-1.79,27.41-10.38,159.22c-.91,13.9-2.15,32.94,3.19,52.92,2.39,8.93,5.66,16.52,8.29,22.62,.82,1.89,1.82,4.21,2.54,6.06-2.78,3.2-9.31,8.35-18.77,11.97-13.54,5.19-28.02,7.93-41.89,7.93-12.4,0-23.99-2.13-34.44-6.32-21.72-8.71-38.55-27.35-42.86-47.49-5.05-23.62,5.5-51.3,15.25-70.37,2.1-4.11,4.37-8.36,6.78-12.85,7.78-14.53,16.59-30.99,22.67-49.01,8.39-24.89,9.96-47.84,4.82-70.17-2.07-9-5.05-16.72-7.45-22.93-1.07-2.78-2.08-5.4-2.75-7.48-3.64-11.3-3.8-26.44-3.96-42.48l-.53-52.44-.37-36.6M1108.37-2.3c-25.64,0-53.96,2.5-81.42,2.5-13.3,0-26.39-.59-38.89-2.32-1.79,.27-3.59,.36-5.4,.36-3.49,0-7.04-.34-10.77-.42-.4,0-.76-.05-1.11-.12-7.95,.92-15.97,1.3-23.91,1.33-.41,0-.82,0-1.23,0-5.09,0-10.34-.11-15.53-.63-6.97,9.07-7.52,22.39-7.4,34.16,.36,34.96,.71,69.92,1.07,104.88,.2,19.3,.45,38.95,6.37,57.32,2.85,8.83,6.98,17.26,9.06,26.3,7.86,34.1-14.14,66.88-30.06,98.04-16.32,31.92-27.12,68.54-19.62,103.59,8.06,37.65,37.41,69.1,73.14,83.43,16.85,6.76,34.91,9.91,53.05,9.91,20.34,0,40.78-3.96,59.78-11.24,27.12-10.39,54.74-33.48,51.38-62.32-1.55-13.32-9.57-24.97-13.03-37.93-3.18-11.91-2.4-24.46-1.6-36.76,3.46-53.07,6.92-106.15,10.38-159.22,1.23-18.91,2.47-37.82,3.7-56.73,1.89-28.94,3.81-58.09,11.2-86.13,3.14-11.89,7.28-23.78,6.96-36.07-.32-12.29-6.35-25.44-17.82-29.86-5.12-1.97-10.74-2.03-16.23-2.06-.69,0-1.38,0-2.07,0h0Z"/>
  </g>
  <g class="cls-33">
    <path class="cls-30" d="M1111.54,386.91c-26.19,0-50.57-7.87-68.65-22.15-16.35-12.91-25.35-29.55-25.35-46.85s9-33.94,25.35-46.85c18.08-14.28,42.46-22.15,68.65-22.15s50.57,7.87,68.65,22.15c16.35,12.91,25.35,29.55,25.35,46.85s-9,33.94-25.35,46.85c-18.08,14.28-42.46,22.15-68.65,22.15Z"/>
    <path class="cls-30" d="M1111.54,273.91c20.29,0,39.66,6.11,53.15,16.77,5.92,4.68,15.85,14.43,15.85,27.23s-9.93,22.56-15.85,27.23c-13.49,10.66-32.86,16.77-53.15,16.77s-39.66-6.11-53.15-16.77c-5.92-4.68-15.85-14.43-15.85-27.23s9.93-22.56,15.85-27.23c13.49-10.66,32.86-16.77,53.15-16.77m0-50c-65.72,0-119,42.09-119,94s53.28,94,119,94,119-42.09,119-94-53.28-94-119-94h0Z"/>
  </g>
  <g>
    <path class="cls-20" d="M928.71,500.48c-11.1,0-20.84-6.91-20.84-14.79s9.74-14.79,20.84-14.79,20.83,6.91,20.83,14.79-9.74,14.79-20.83,14.79Z"/>
    <path class="cls-20" d="M929.32,475.42h0m-1.23,20.56h0m.62-50.07c-25.31,0-45.84,17.81-45.84,39.79s20.52,39.79,45.84,39.79,45.84-17.81,45.84-39.79-20.52-39.79-45.84-39.79h0Z"/>
  </g>
  <g class="cls-33">
    <path class="cls-19" d="M928.71,492.48c-11.1,0-20.84-6.91-20.84-14.79s9.74-14.79,20.84-14.79,20.83,6.91,20.83,14.79-9.74,14.79-20.83,14.79Z"/>
    <path class="cls-16" d="M929.32,467.42h0m-1.23,20.56h0m.62-50.07c-25.31,0-45.84,17.81-45.84,39.79s20.52,39.79,45.84,39.79,45.84-17.81,45.84-39.79-20.52-39.79-45.84-39.79h0Z"/>
  </g>
  <g class="cls-33">
    <ellipse class="cls-30" cx="288.04" cy="194.41" rx="66.5" ry="54.5"/>
    <path class="cls-30" d="M288.04,164.91c12.21,0,23.84,4.02,31.91,11.03,4.38,3.8,9.59,10.09,9.59,18.47s-5.22,14.67-9.59,18.47c-8.07,7.01-19.7,11.03-31.91,11.03s-23.84-4.02-31.91-11.03c-4.38-3.8-9.59-10.09-9.59-18.47s5.22-14.67,9.59-18.47c8.07-7.01,19.7-11.03,31.91-11.03m0-50c-50.53,0-91.5,35.59-91.5,79.5s40.97,79.5,91.5,79.5,91.5-35.59,91.5-79.5-40.97-79.5-91.5-79.5h0Z"/>
  </g>
  <g>
    <ellipse class="cls-29" cx="297.04" cy="205.41" rx="66.5" ry="54.5"/>
    <path class="cls-29" d="M297.04,175.91c12.21,0,23.84,4.02,31.91,11.03,4.38,3.8,9.59,10.09,9.59,18.47s-5.22,14.67-9.59,18.47c-8.07,7.01-19.7,11.03-31.91,11.03s-23.84-4.02-31.91-11.03c-4.38-3.8-9.59-10.09-9.59-18.47s5.22-14.67,9.59-18.47c8.07-7.01,19.7-11.03,31.91-11.03m0-50c-50.53,0-91.5,35.59-91.5,79.5s40.97,79.5,91.5,79.5,91.5-35.59,91.5-79.5-40.97-79.5-91.5-79.5h0Z"/>
  </g>
  <g>
    <path class="cls-29" d="M1117.54,398.91c-26.19,0-50.57-7.87-68.65-22.15-16.35-12.91-25.35-29.55-25.35-46.85s9-33.94,25.35-46.85c18.08-14.28,42.46-22.15,68.65-22.15s50.57,7.87,68.65,22.15c16.35,12.91,25.35,29.55,25.35,46.85s-9,33.94-25.35,46.85c-18.08,14.28-42.46,22.15-68.65,22.15Z"/>
    <path class="cls-29" d="M1117.54,285.91c20.29,0,39.66,6.11,53.15,16.77,5.92,4.68,15.85,14.43,15.85,27.23s-9.93,22.56-15.85,27.23c-13.49,10.66-32.86,16.77-53.15,16.77s-39.66-6.11-53.15-16.77c-5.92-4.68-15.85-14.43-15.85-27.23s9.93-22.56,15.85-27.23c13.49-10.66,32.86-16.77,53.15-16.77m0-50c-65.72,0-119,42.09-119,94s53.28,94,119,94,119-42.09,119-94-53.28-94-119-94h0Z"/>
  </g>
  <g>
    <ellipse class="cls-20" cx="421.54" cy="398.41" rx="21" ry="14.5"/>
    <path class="cls-20" d="M421.54,358.91c-25.41,0-46,17.68-46,39.5s20.59,39.5,46,39.5,46-17.68,46-39.5-20.59-39.5-46-39.5h0Z"/>
  </g>
  <path class="cls-7" d="M466.85,397.81c10.35-3.78,23.09,.81,28.65,10.33-8.83,7.12-21.08,7.96-32.42,7.55-18.72-.68-37.25-3.9-55.71-7.12-18.26-3.18-36.52-6.36-54.77-9.55-2.39-.42-4.88-.88-6.78-2.39s-2.9-4.43-1.52-6.42c1.17-1.68,3.46-2.06,5.5-2.26,7.74-.74,15.54-.88,23.31-.42"/>
  <path class="cls-7" d="M884.85,497.23c-7.39-.25-14.8,3.31-19.17,9.19-.62,.83-1.2,1.78-1.14,2.81,.1,1.78,1.99,2.88,3.68,3.5,17.57,6.46,36.52-2.9,54.04-9.47,23.8-8.93,50.14-13.32,70.09-28.91,2.03-1.59,4.15-3.65,4.01-6.2-.18-3.56-4.43-5.33-8-5.9-8.11-1.31-16.53-.71-24.36,1.72"/>
  <path class="cls-7" d="M1160.47,380.78c9.28-8.6,18.32-17.47,27.08-26.6-2.56,13.89-14.95,23.53-26.75,31.28-14.63,9.6-31.1,21.36-47.58,26.91,2.62-8.69,11.47-8.34,18.76-11.38,10.79-4.49,19.99-12.34,28.48-20.21Z"/>
  <path class="cls-7" d="M339.24,252.25c-21.4,.68-43.03,.26-63.88-4.61-12.84-3-30.14-7.49-38.4-18.22,32.6,14.14,66.55,22.85,102.28,22.83Z"/>
  <path class="cls-7" d="M304.83,270.12c-17.12,.23-30.64-1.45-46.55-8.29,14.22,6.27,31.04,8.49,46.55,8.29Z"/>
  <path class="cls-13" d="M1153.94,717.34c-.3,4.87,.07,10.08,2.91,14.06,2.13,2.99,5.42,4.93,8.75,6.49,16.48,7.73,36.34,7.88,52.94,.4,14.07-6.34,29.2-20.15,33.33-35.6,4.41-16.49-13.38-27.37-28.9-29.31-11.92-1.49-28.04,1.6-39.83,3.18-20.05,2.7-28.01,21.4-29.18,40.77Z"/>
  <path class="cls-13" d="M995.28,729.66c5.09-.16,10.18-.32,15.28-.48,2.22-6.77,4.39-14.44,.54-20.66-3.5-5.68-10.77-7.62-16.98-5.17-12.29,4.86-11.65,21.35-2.73,28.4"/>
  <path class="cls-13" d="M835.22,632.36c-4.29-2.13-9.98,.85-11.46,5.41-1.47,4.56,.75,9.78,4.56,12.69,3.81,2.9,8.88,3.75,13.65,3.29,2.11-.2,4.25-.66,6.04-1.79,4.41-2.77,5.5-9.4,2.7-13.79s-8.7-6.29-13.74-4.99"/>
  <path class="cls-13" d="M499.41,612.6c2.72-.74,5.12-2.33,7.75-3.34,14.93-5.74,30.62,8.31,46.59,7.33,12.68-.78,23.34-10.91,36.02-11.65,3.95-.23,8.1,.44,11.73-1.14,3.62-1.58,5.94-6.89,2.97-9.5-11.77,3.05-24.02,3.65-36.16,4.23-15,.72-30.01,1.44-45.01,2.16-12.39,.59-31.34-1.82-42.45,2.85,1.91,6.71,11.97,10.86,18.55,9.07Z"/>
  <path class="cls-13" d="M446.66,701.41c12.35-19.21,30.2-38.3,53.04-38.87,22.47-.56,41.79,17.12,64.18,19.03,2.55,.22,5.19,.24,7.53,1.27,2.63,1.15,4.59,3.46,6.03,5.94,8.06,13.9,1.07,32.01-9.56,44.07-4.06,4.6-8.7,8.82-14.25,11.44-7.51,3.55-16.07,3.94-24.37,4.26-31.03,1.19-62.22,2.24-93.02-1.73-3.8-.49-7.81-1.15-10.75-3.61-7.56-6.31,.54-12.37,4.61-17.16,6.4-7.54,11.22-16.35,16.55-24.64Z"/>
  <path class="cls-13" d="M335.7,663.08c4.58-.73,9.46-1.79,12.6-5.21s3.17-9.92-1.01-11.92c-1.39-.67-2.99-.73-4.53-.78-7.88-.23-16.51,0-22.51,5.11-1.36,1.15-2.56,2.58-3.05,4.3-1.13,3.96,2.04,8.11,5.88,9.57,3.85,1.46,8.13,.93,12.21,.39"/>
  <path class="cls-11" d="M303.25,83.91c.69,.08,1.09,.96,.98,1.71s-.57,1.35-1.02,1.93c-.17,.22-.34,.43-.5,.65,.25-.8,.96-1.41,1.74-1.49s1.58,.36,1.98,1.09c-1.06-.47-2.01-1.24-2.71-2.22,.94-.52,1.88-1.03,2.83-1.55l-1.83,1.88c-.19-.22-.26-.56-.17-.85"/>
  <path class="cls-11" d="M53.87,437.45c.7,.28,1.41,.57,2.11,.85,.27,.11,.58,.21,.83,.07,.29-.16,.32-.56,.33-.89,.02-.86,.03-1.72,.05-2.57-.18,.9-.27,1.88,.12,2.71s1.41,1.43,2.24,1.05c-.88,.22-1.82,.17-2.68-.12-.54,.78-.92,1.68-1.11,2.62,.8-.64,1.07-1.87,.62-2.79-.45-.92-1.58-1.45-2.57-1.21"/>
  <path class="cls-11" d="M887.24,221.44c.24,.9-.08,1.92-.78,2.52s-1.75,.75-2.59,.37c1.1-.22,2.2-.44,3.31-.66,.31,1.29,.4,2.64,.27,3.96-.21-1.21-.42-2.42-.64-3.63,.86-.11,1.71-.22,2.57-.33-.79,0-1.58,0-2.36-.01-.01-.9-.03-1.81-.04-2.71"/>
  <path class="cls-11" d="M1113.23,582.03c1.75-.4,3.85,.26,4.58,1.45s-.04,2.72-1.66,3.33c.4-1.07,1.56-2.07,3.11-2.28,1.55-.21,3.34,.64,3.3,1.75-.28-1.65-4.95-1.51-4.9-3.17,.01-.45,.43-.84,.84-1.2,1.2-1.06,2.4-2.12,3.6-3.18-.37,1.75-2.19,3.31-4.56,3.9-.6,.15-1.33,.23-1.83-.05-.42-.23-.53-.63-.75-.98-.55-.85-1.93-1.38-3.24-1.26"/>
  <path class="cls-11" d="M1265.34,169.84l6.2-1.03c-1.94,1.12-4.07,1.36-6.09,.7-.26-1.53-.53-3.06-.79-4.59,.72,1.2,.95,3.13,.54,4.67-.99-.06-1.99,.39-2.82,1.27,1.06-1.03,2.36-1.4,3.57-1.03-.23,1.9,.28,3.98,1.24,5.11"/>
  <path class="cls-11" d="M461.87,473.18c.31,.75,.63,1.56,.49,2.37s-.96,1.54-1.72,1.26c.16-.86,1.38-1.09,2.09-.59s1,1.4,1.25,2.24c-.56-.85-1.12-1.69-1.68-2.54,.75-.44,1.5-.89,2.25-1.33-.53,.85-1.88,.86-2.58,.15s-.78-1.89-.42-2.82"/>
  <g>
    <path class="cls-15" d="M25.33,40.53c-.44,.15-.92,.3-1.44,.45-.52,.15-1.04,.23-1.55,.23-.79,0-1.41-.21-1.86-.63-.08-.19-.15-.31-.21-.38-.05-.07-.09-.14-.13-.21-.04-.08-.07-.18-.08-.32-.19-.24-.34-.51-.45-.82-.11-.31-.19-.63-.22-.96-.04-.33-.05-.66-.02-1s.07-.66,.15-.96c.03-.07,.05-.13,.06-.2,0-.07,.02-.14,.04-.23,.06-.27,.13-.53,.2-.78,.07-.25,.17-.47,.29-.66-.06-.15-.06-.32,0-.5,.06-.19,.13-.35,.21-.5,.22-.64,.4-1.18,.55-1.63s.3-.89,.46-1.32c.27-.76,.52-1.5,.75-2.24,.24-.74,.45-1.54,.64-2.39,.13-.08,.22-.14,.28-.18,.09-.03,.17-.06,.24-.08,.28,.15,.61,.3,.99,.44,.38,.14,.69,.21,.94,.21,.13,.08,.2,.15,.24,.19,.03,.04,.06,.08,.09,.11,.17,.22,.32,.44,.45,.67,.13,.23,.17,.53,.12,.89-.09,.15-.17,.23-.21,.23-.08,.34-.16,.62-.25,.86-.09,.24-.18,.47-.27,.71-.11,.25-.21,.5-.31,.76-.09,.25-.17,.56-.24,.93-.06,.08-.11,.16-.13,.23s-.05,.14-.08,.23c-.03,.08-.07,.17-.11,.26-.04,.09-.1,.17-.18,.24-.05,.44-.12,.79-.22,1.06-.1,.27-.21,.54-.32,.81-.19,.49-.36,.98-.51,1.46s-.24,1.04-.27,1.66c.08-.03,.15-.05,.22-.05h.2c.14,0,.31,.03,.49,.08,.47-.27,.99-.43,1.54-.48,.56-.05,1.11-.08,1.66-.1h.66c.22,0,.42-.02,.61-.05,.14,.08,.23,.13,.27,.14,.04,0,.1,.01,.18,.01,.11,0,.2,0,.28,.03,.19,.19,.37,.32,.54,.4,.17,.08,.35,.16,.54,.23,.17,.07,.34,.14,.51,.21s.33,.18,.48,.32l.17,1.08c.11,.15,.16,.25,.14,.3,0,.13-.03,.24-.09,.3l.05,.28c-.24,.05-.4,.11-.48,.18-.09,.07-.17,.14-.25,.23-.13,.02-.22,.03-.27,.03h-.15c-.22,0-.49,.04-.8,.13-.42-.15-.86-.23-1.32-.23-.17,0-.35,0-.54,.03s-.38,.03-.57,.05c-.19,.03-.38,.06-.58,.08-.2,.02-.4,.03-.6,.03l-.54,.15Z"/>
    <path class="cls-15" d="M36.97,39.04c.08,.5,.05,.9-.08,1.18-.13,.29-.32,.5-.57,.64-.24,.14-.52,.22-.84,.24-.31,.02-.61,0-.9-.05-.16-.24-.3-.53-.42-.88-.13-.35-.24-.72-.35-1.1-.11-.38-.21-.75-.29-1.12-.09-.37-.16-.7-.22-.98,.08-.2,.13-.43,.15-.69,.02-.26,.04-.52,.05-.79,0-.27,.02-.54,.02-.82s.03-.54,.06-.79c.11-.71,.27-1.38,.48-2.02s.38-1.3,.51-1.99c.03-.15,.02-.29-.04-.43-.06-.13-.07-.26-.04-.38,.02-.07,.06-.11,.14-.14,.08-.03,.13-.08,.14-.16,.05-.18,.06-.34,.04-.45-.02-.12,0-.26,.08-.43,.08-.13,.18-.33,.29-.59s.16-.53,.13-.82c.14-.1,.27-.22,.4-.35,.12-.13,.25-.26,.39-.37,.13-.11,.28-.21,.45-.29s.37-.13,.6-.13c.13,.17,.21,.35,.25,.55,.04,.2,.08,.4,.12,.6,.04,.2,.1,.39,.18,.57,.08,.18,.21,.32,.4,.42v.5c0,.2,0,.4,.02,.59,.01,.19,.05,.37,.11,.53,.05,.16,.15,.26,.27,.31-.28,.81-.55,1.61-.79,2.4-.24,.79-.44,1.58-.6,2.38-.16,.8-.25,1.6-.29,2.41-.04,.81,.01,1.62,.15,2.45Z"/>
    <path class="cls-15" d="M47.54,36.37c-.02,.24-.07,.46-.15,.67-.09,.21-.19,.41-.32,.61s-.26,.38-.41,.55c-.15,.18-.29,.33-.44,.47,.05,.22,.05,.38,.01,.49-.04,.11-.05,.27-.04,.49-.24,.67-.59,1.12-1.07,1.35-.48,.23-.93,.18-1.35-.14-.17-.13-.32-.31-.44-.52-.12-.21-.28-.34-.48-.39,.05-.29,.02-.57-.07-.86-.09-.29-.2-.44-.31-.45-.05-.35-.12-.73-.21-1.13-.09-.4-.18-.81-.26-1.22-.08-.41-.15-.81-.2-1.21-.05-.39-.07-.76-.06-1.1,.02-.17-.01-.32-.08-.45-.07-.13-.12-.29-.15-.48-.06-.39-.08-.79-.06-1.22s.04-.84,.04-1.22-.02-.77-.06-1.2c-.04-.43-.07-.84-.11-1.24-.03-.39-.05-.76-.05-1.08s.04-.58,.12-.77c.09-.2,.22-.37,.39-.49s.32-.26,.46-.42c.35,.03,.62,.19,.83,.45s.28,.52,.24,.76c.33,.22,.59,.5,.79,.84,.2,.34,.35,.73,.47,1.16,.12,.43,.2,.88,.25,1.36,.05,.48,.09,.95,.12,1.41,.03,.46,.06,.9,.09,1.32s.09,.78,.19,1.08c.58-.89,1.07-1.68,1.46-2.38,.39-.7,.79-1.37,1.2-2,.41-.64,.86-1.29,1.37-1.94,.5-.66,1.16-1.39,1.96-2.22,.16,.02,.29,.05,.39,.1,.1,.05,.19,.09,.27,.13,.08,.03,.17,.06,.28,.09,.11,.03,.26,.02,.45-.01,.06,.17,.11,.29,.14,.37,.03,.08,.06,.15,.08,.23,.02,.08,.05,.17,.09,.29,.04,.12,.11,.29,.2,.5,.05,.05,.06,.12,.05,.2s-.03,.16-.04,.24c0,.08-.01,.13-.01,.16s.04,.03,.12,0c-.05,.24-.13,.45-.25,.64-.12,.19-.17,.42-.15,.69-.36,.5-.76,1.03-1.19,1.56s-.86,1.09-1.3,1.66c-.43,.57-.84,1.17-1.24,1.8-.39,.63-.73,1.29-1.01,1.98-.08,0-.14,.03-.18,.08-.04,.05-.07,.1-.11,.16-.03,.06-.07,.11-.11,.16-.04,.05-.09,.08-.15,.08Z"/>
    <path class="cls-15" d="M64.56,26.61c.01,.12,.02,.21,.01,.27,0,.06-.02,.11-.02,.16,0,.05-.01,.11-.01,.16s.02,.15,.05,.26c-.33,.57-.71,.96-1.14,1.17-.43,.21-.9,.36-1.4,.45-.5,.09-1.02,.19-1.54,.29-.53,.1-1.05,.32-1.57,.66-.2-.08-.39-.08-.55,0s-.4,.11-.72,.08c-.09,.1-.21,.17-.35,.21s-.28,.09-.42,.14c.06,.15,.09,.31,.08,.47,0,.16,.01,.29,.06,.39,.55,.05,1.16,.04,1.83-.03,.67-.07,1.32-.11,1.97-.13,.02,.08,0,.14-.02,.16-.03,.02-.04,.07-.02,.14,.11,.08,.22,.19,.33,.31s.22,.25,.33,.37c.11,.12,.22,.21,.34,.29,.12,.08,.25,.1,.41,.09,.06,.13,.11,.28,.13,.44,.02,.16,0,.32-.06,.49-.25,.19-.5,.38-.75,.57-.25,.19-.51,.37-.79,.52s-.57,.27-.87,.37c-.31,.09-.65,.13-1.03,.11h-.18s-.09-.03-.15-.08c-.13,.08-.3,.11-.53,.08-.23-.03-.41,0-.53,.08-.17-.08-.38-.12-.62-.11-.24,0-.46-.02-.65-.09-.25,.35-.48,.73-.68,1.13s-.38,.83-.54,1.29c.53,.08,.98,.12,1.33,.1,.35-.02,.69-.05,1-.09,.31-.04,.64-.08,.97-.13s.75-.05,1.25-.04c.31-.18,.69-.31,1.12-.37,.43-.06,.83-.16,1.19-.29,.12,.05,.24,.14,.33,.26,.09,.13,.18,.24,.27,.35,.09,.11,.18,.21,.27,.29,.09,.08,.21,.12,.35,.1,.06,.07,.11,.15,.13,.24s.04,.18,.06,.26,.04,.16,.08,.21c.04,.06,.11,.08,.2,.06-.24,.55-.51,.98-.81,1.27-.31,.29-.66,.52-1.05,.67s-.83,.27-1.31,.35c-.48,.08-1.01,.19-1.59,.3-.14,.03-.26,.03-.35-.01-.09-.04-.2-.06-.33-.06-.36,.08-.79,.16-1.3,.23s-1.01,.09-1.53,.08c-.52-.02-1.01-.09-1.48-.21-.47-.13-.86-.35-1.15-.67-.13-.12-.21-.26-.25-.42-.04-.16-.15-.28-.32-.37-.02-.22-.05-.46-.09-.73-.05-.27-.09-.55-.14-.84s-.08-.58-.11-.87c-.02-.29-.01-.55,.04-.78,.05-.25,.15-.48,.29-.68,.15-.2,.2-.42,.15-.66,.08-.02,.12-.06,.14-.14,.01-.08,.08-.1,.19-.09,.09-.3,.2-.59,.31-.86,.11-.27,.22-.53,.34-.78,.12-.25,.24-.51,.35-.77s.23-.55,.34-.87c-.22-.22-.38-.46-.48-.72-.1-.26-.18-.52-.22-.78s-.09-.53-.12-.81-.09-.56-.17-.84c.16-.25,.35-.46,.58-.62,.23-.16,.47-.29,.74-.39,.27-.1,.56-.18,.87-.25s.64-.14,.99-.23c.63-.22,1.19-.39,1.68-.5,.5-.12,.98-.21,1.46-.29,.48-.08,.98-.15,1.5-.21s1.11-.17,1.77-.3c.14,.15,.27,.23,.4,.23,.06-.15,.14-.2,.22-.14,.09,.06,.12,.01,.11-.14,.16,.29,.36,.53,.6,.72s.51,.36,.81,.49Z"/>
    <path class="cls-15" d="M64.37,29.46c.11-.35,.29-.66,.53-.91,.24-.25,.51-.47,.8-.64,.29-.18,.59-.32,.91-.44,.31-.12,.61-.22,.9-.3,.63-.29,1.3-.56,2.01-.82,.71-.26,1.45-.49,2.19-.69,.75-.2,1.51-.33,2.3-.39,.79-.06,1.61,.05,2.47,.32,.05,.17,.12,.33,.21,.48,.09,.15,.19,.3,.29,.45,.1,.15,.19,.3,.27,.44,.08,.14,.13,.29,.14,.44,.16,.15,.28,.32,.38,.49,.09,.18,.11,.41,.05,.69-.16,.13-.31,.26-.46,.37-.15,.11-.31,.21-.48,.29-.58-.15-1.17-.2-1.77-.15-.6,.05-1.13,.09-1.6,.13-.14-.15-.31-.23-.51-.23s-.4,.03-.61,.1c-.21,.07-.42,.13-.64,.2-.21,.07-.41,.08-.6,.05-.16,.13-.35,.22-.58,.26-.23,.04-.48,.08-.74,.11-.02,.08,0,.14,.05,.16s.05,.08,.02,.16c.09,.12,.22,.2,.37,.25s.31,.1,.47,.15,.31,.11,.44,.19c.13,.08,.21,.2,.26,.37,.24,0,.44,.06,.61,.18,.17,.12,.31,.26,.42,.43,.11,.17,.19,.35,.25,.54s.08,.37,.08,.52c.05,.13,.1,.19,.16,.18,.06-.02,.13,.02,.21,.1,.05,.22,.16,.44,.35,.67,.19,.23,.34,.48,.45,.74,.03,.42,.05,.79,.07,1.12s-.04,.66-.17,1c-.24,.62-.56,1.18-.98,1.66-.42,.49-.89,.92-1.41,1.3-.53,.38-1.09,.7-1.68,.97-.6,.27-1.18,.5-1.74,.68-.06-.02-.13-.02-.19,0-.06,.02-.08-.03-.05-.13-.13,.12-.26,.19-.41,.23-.15,.03-.31,.05-.48,.04-.17,0-.35-.02-.53-.04-.18-.02-.35,0-.51,.03-.11-.12-.21-.23-.29-.34-.09-.11-.15-.25-.2-.42-.08,0-.11-.04-.11-.13,0-.08-.02-.13-.08-.13,.09-.17,.14-.26,.13-.29,0-.02-.03-.05-.07-.06-.04-.02-.08-.04-.11-.06s-.04-.06-.02-.11c.06-.13,.09-.29,.07-.47-.02-.18-.03-.36-.05-.54-.02-.18,0-.36,.04-.53s.15-.3,.34-.4c.53,.07,1.04,.05,1.52-.06,.48-.11,.93-.26,1.35-.47,.42-.2,.83-.42,1.21-.66,.38-.23,.77-.44,1.14-.63,.05-.15,.11-.28,.2-.38,.09-.1,.18-.19,.27-.28,.09-.08,.18-.18,.26-.28,.08-.1,.13-.23,.17-.38,.01-.12-.01-.19-.08-.21-.07-.03-.11-.09-.11-.19l-.26-.08c-.3-.18-.64-.34-1.01-.47s-.7-.26-.97-.42c-.17,.1-.33,.13-.48,.08-.15-.05-.34-.1-.58-.15-.53-.03-1.05-.09-1.54-.18s-.97-.24-1.43-.45c-.03-.08-.07-.16-.12-.23s-.13-.08-.26-.05c-.09-.13-.19-.26-.28-.39-.09-.13-.18-.26-.26-.42,.03-.2,.05-.37,.07-.52,.02-.14-.03-.28-.14-.42,.06-.22,.11-.39,.14-.53,.03-.13,.03-.31,0-.53Z"/>
    <path class="cls-15" d="M78.62,37.8c.03,.13,.05,.26,.07,.38,.01,.12,.04,.24,.07,.38-.06,.17-.12,.33-.17,.49-.05,.16-.09,.31-.14,.47-.05,.12-.08,.19-.09,.23-.02,.03-.02,.06-.02,.08s0,.04,.01,.06c0,.02,.01,.1,.01,.21l-.09,.3c-.08,.12-.17,.21-.28,.28-.11,.07-.22,.13-.33,.18-.03,.03-.08,.06-.14,.09s-.11,.05-.14,.09l-.07,.3-.31,.05c-.27,.07-.5,.1-.68,.1h-.28c-.19-.18-.34-.33-.45-.43-.11-.1-.23-.19-.35-.28-.16-.24-.24-.41-.26-.52s-.04-.21-.07-.32c-.03-.22-.07-.36-.12-.43l-.33-.35,.28-.23-.26-.48c.19-.15,.33-.26,.42-.33,.09-.07,.17-.14,.24-.21,.06-.08,.13-.17,.21-.29,.08-.12,.2-.31,.38-.58l.21-.33,.31,.18c.06,.05,.2,.1,.41,.14s.4,.08,.55,.11c.27,.08,.52,.15,.75,.19,.24,.04,.42,.13,.57,.26l.09,.2Zm1.3-7.06c-.03,.25-.06,.44-.08,.55-.02,.12-.04,.23-.04,.34s.01,.24,.04,.39c.02,.15,.07,.39,.13,.71l.07,.4-.35,.08c-.08,.03-.21,.12-.39,.25-.18,.13-.34,.24-.48,.33-.22,.13-.43,.28-.64,.44-.2,.16-.41,.25-.61,.26-.25-.13-.42-.24-.52-.3-.09-.07-.19-.14-.28-.23-.08-.17-.15-.33-.21-.48s-.13-.3-.21-.45c-.05-.12-.08-.19-.09-.23-.02-.03-.03-.05-.04-.06,0,0-.02-.02-.05-.04s-.07-.07-.15-.15l-.14-.3c-.02-.25,.03-.51,.14-.78,.03-.13,.06-.25,.09-.35l-.17-.28,.19-.28c.11-.17,.19-.29,.24-.37,.05-.08,.11-.16,.19-.24l.21-.2c.25-.02,.45-.03,.6-.04,.15,0,.3-.04,.46-.09,.27,.07,.44,.13,.53,.19,.09,.06,.17,.12,.25,.19,.17,.13,.3,.2,.38,.2h.47l-.05,.4,.52,.13Z"/>
  </g>
  <g>
    <path class="cls-15" d="M1180.06,18.66c.66,.08,1.25,.23,1.77,.43,.52,.2,.96,.47,1.32,.81,.25,.42,.49,.87,.72,1.36,.23,.49,.4,1,.52,1.53,.12,.53,.17,1.07,.17,1.63,0,.55-.12,1.12-.34,1.69-.46,.6-1.01,1.1-1.66,1.47s-1.35,.69-2.11,.92c-.75,.24-1.54,.44-2.34,.61-.81,.17-1.6,.34-2.37,.5,.02,.39,.02,.79,.01,1.22s-.05,.86-.12,1.29c-.07,.43-.18,.84-.32,1.25s-.33,.77-.57,1.11c-.27,0-.54,.04-.83,.11-.28,.08-.53,.14-.75,.19-.11-.07-.21-.13-.29-.19-.09-.06-.21-.1-.37-.11,.03-.17,0-.34-.12-.52-.11-.18-.22-.36-.33-.54-.11-.18-.19-.36-.22-.53s.04-.33,.22-.48c-.11-.12-.17-.27-.17-.45,.11-.2,.21-.48,.29-.83,.09-.35,.16-.7,.21-1.05,.06-.34,.07-.66,.04-.95-.03-.29-.19-.5-.47-.63,.02-.03,.05-.05,.09-.05s.09,0,.14-.03c-.13-.1-.2-.24-.22-.43-.02-.18-.08-.34-.18-.48,.03-.08,.05-.16,.07-.23,.01-.07,.07-.09,.16-.08-.05-.3-.04-.59,.01-.86,.05-.27,.14-.53,.25-.77,.11-.24,.24-.48,.4-.72,.16-.23,.31-.47,.45-.71,.11-.02,.18,0,.2,.05,.02,.05,.08,.04,.15-.03,.2-.17,.35-.34,.42-.53,.08-.18,.12-.39,.12-.63,.11-.35,.24-.71,.4-1.07,.16-.36,.33-.69,.52-1s.4-.57,.62-.81,.47-.41,.72-.53c.19-.17,.42-.32,.71-.47,.28-.14,.59-.25,.92-.33,.33-.08,.66-.12,1-.13,.34,0,.65,.03,.93,.11,.08,.03,.12,.02,.13-.05,0-.07,.04-.1,.08-.1Zm-.97,6.03c.39-.19,.81-.33,1.26-.44,.45-.11,.82-.32,1.12-.62-.19-.18-.46-.35-.82-.49s-.75-.23-1.18-.26c-.42-.03-.85,0-1.28,.11s-.8,.32-1.12,.62c-.09,.3-.17,.54-.24,.72-.06,.18-.15,.39-.26,.64,.03,.08,.08,.15,.15,.19,.07,.04,.12,.11,.15,.19,.36-.2,.73-.32,1.1-.34,.37-.02,.74-.13,1.12-.31Z"/>
    <path class="cls-15" d="M1197.57,26.72c-.02,.2,0,.4,.05,.58,.05,.19,.11,.37,.18,.54,.07,.18,.14,.36,.2,.54,.06,.19,.11,.37,.14,.55,.03,.24,.03,.49,0,.77-.03,.28-.09,.55-.17,.81-.08,.26-.18,.5-.31,.71s-.27,.37-.45,.47c-.22,.3-.49,.54-.8,.71-.31,.17-.61,.37-.87,.6-.17,.12-.37,.2-.58,.25-.21,.05-.43,.1-.65,.15-.17,.1-.38,.21-.61,.32s-.48,.21-.73,.3-.5,.16-.75,.2c-.25,.04-.47,.06-.66,.04-.47,.18-.93,.31-1.38,.37-.45,.06-.97,.02-1.57-.11-.57,.08-1.09,.06-1.57-.08-.48-.13-.9-.35-1.27-.64s-.69-.65-.97-1.06-.5-.84-.67-1.3c-.13-.96-.09-1.83,.09-2.61s.46-1.5,.81-2.17c.35-.66,.76-1.28,1.21-1.84,.46-.56,.9-1.11,1.32-1.65,.09,.03,.17,.03,.22-.01,.05-.04,.11-.1,.15-.18,.05-.08,.1-.15,.15-.21,.05-.07,.12-.11,.2-.13,.11-.25,.27-.44,.48-.57s.38-.31,.51-.54c.14-.03,.26-.08,.35-.15,.09-.07,.18-.14,.27-.23s.18-.16,.27-.24c.09-.08,.2-.13,.33-.16v-.28c.28-.13,.49-.29,.62-.47,.13-.18,.29-.39,.48-.64,.14-.02,.25-.03,.34-.03s.22-.02,.39-.05c.13-.24,.24-.41,.34-.53,.1-.12,.25-.24,.46-.38,.19,.1,.4,.17,.62,.2,.23,.03,.43,.14,.6,.33,.02,.17,.06,.3,.14,.39,.08,.09,.16,.18,.26,.25,.09,.08,.18,.16,.27,.24,.09,.08,.15,.2,.18,.35,.06,.02,.11,0,.13-.03,.02-.03,.07-.04,.13-.03,.05,.24,.1,.39,.17,.47,.06,.08,.12,.22,.19,.44-.08,.17-.14,.34-.18,.52-.04,.18-.14,.31-.29,.39-.02,.12,.02,.18,.09,.19,.08,0,.12,.05,.14,.14,.02,.15,0,.26-.07,.33,.38,.66,.71,1.35,1.01,2.08,.3,.73,.64,1.42,1.01,2.08Zm-2.95,2.4c.06-.18,.15-.34,.25-.45,.1-.12,.16-.29,.18-.53-.08-.13-.13-.24-.14-.32-.02-.08-.02-.2-.02-.37-.35-.52-.64-1.08-.89-1.68-.25-.6-.53-1.16-.85-1.68-.03,.07-.09,.13-.17,.2-.08,.07-.17,.05-.26-.05-.03,.13-.09,.23-.17,.29-.08,.06-.17,.08-.26,.08-.09,0-.19-.03-.29-.08s-.19-.1-.27-.16c-.46,.39-.91,.76-1.37,1.13-.46,.37-.86,.8-1.23,1.29-.06,.03-.1,.05-.12,.04-.02,0-.06,0-.14,.04-.13,.32-.28,.61-.46,.87s-.36,.53-.53,.79c-.17,.27-.32,.55-.45,.86s-.2,.66-.21,1.06c.27,.24,.58,.38,.94,.43,.36,.05,.73,.06,1.12,.03,.38-.03,.76-.09,1.13-.16,.37-.08,.71-.11,1.02-.11,.66-.17,1.23-.39,1.7-.67,.47-.28,.97-.56,1.48-.84Z"/>
    <path class="cls-15" d="M1203.03,32.52c.08,.5,.05,.9-.08,1.18-.13,.29-.32,.5-.57,.64-.24,.14-.52,.22-.84,.24-.31,.02-.61,0-.9-.05-.16-.24-.3-.53-.42-.88-.13-.35-.24-.72-.35-1.1-.11-.38-.21-.75-.29-1.12-.09-.37-.16-.7-.22-.98,.08-.2,.13-.43,.15-.69,.02-.26,.04-.52,.05-.79,0-.27,.02-.54,.02-.82s.03-.54,.06-.79c.11-.71,.27-1.38,.48-2.02s.38-1.3,.51-1.99c.03-.15,.02-.29-.04-.43-.06-.13-.07-.26-.04-.38,.02-.07,.06-.11,.14-.14,.08-.03,.13-.08,.14-.16,.05-.18,.06-.34,.04-.45-.02-.12,0-.26,.08-.43,.08-.13,.18-.33,.29-.59s.16-.53,.13-.82c.14-.1,.27-.22,.4-.35,.12-.13,.25-.26,.39-.37,.13-.11,.28-.21,.45-.29s.37-.13,.6-.13c.13,.17,.21,.35,.25,.55,.04,.2,.08,.4,.12,.6,.04,.2,.1,.39,.18,.57,.08,.18,.21,.32,.4,.42v.5c0,.2,0,.4,.02,.59,.01,.19,.05,.37,.11,.53,.05,.16,.15,.26,.27,.31-.28,.81-.55,1.61-.79,2.4-.24,.79-.44,1.58-.6,2.38-.16,.8-.25,1.6-.29,2.41-.04,.81,.01,1.62,.15,2.45Z"/>
    <path class="cls-15" d="M1210.59,29.7c-.14,.03-.24,.12-.31,.26-.06,.14-.12,.29-.18,.44-.06,.15-.11,.29-.17,.42s-.14,.19-.25,.19c-.02,.13-.06,.25-.13,.35s-.14,.21-.2,.32-.11,.23-.14,.35-.02,.27,.05,.44c-.13,.1-.21,.24-.24,.43-.03,.19-.07,.36-.11,.53-.04,.17-.11,.31-.2,.43-.09,.12-.27,.17-.52,.15-.05,.07-.06,.11-.02,.13,.03,.02,.05,.08,.07,.18-.17-.03-.3-.02-.39,.04-.09,.06-.19,.1-.32,.11-.3-.1-.55-.28-.74-.53-.2-.25-.37-.53-.52-.84-.15-.31-.28-.63-.4-.95-.12-.32-.23-.6-.34-.83,.05-.18,.05-.37,.02-.54s-.09-.32-.17-.44c.77-1.75,1.61-3.61,2.52-5.6,.91-1.98,1.78-3.94,2.59-5.88,.36,.15,.72,.32,1.07,.52s.67,.42,.97,.67c.29,.25,.54,.54,.74,.87,.2,.33,.34,.69,.4,1.1-.03,.1-.07,.14-.11,.11s-.07-.01-.11,.04c.06,.08,.1,.14,.11,.18,0,.03,0,.07,0,.1,0,.03-.01,.08-.01,.14s.02,.14,.07,.24c-.06-.02-.11,0-.13,.03-.02,.03-.07,.03-.15,0,.06,.18,.08,.34,.06,.45-.02,.12-.06,.22-.11,.31-.05,.09-.09,.19-.12,.3s-.02,.25,.02,.42c-.05,0-.08,.01-.11,.04s-.04,.05-.06,.08c-.02,.03-.04,.05-.06,.08s-.06,.03-.11,.01c.05,.37,.06,.74,.05,1.11s-.03,.74-.04,1.12c0,.38,0,.77,.01,1.18,.02,.41,.07,.84,.17,1.27,.57-.35,1.02-.81,1.35-1.36s.61-1.18,.82-1.87c.21-.69,.37-1.43,.48-2.22,.11-.79,.23-1.6,.35-2.42,.14-.15,.25-.34,.33-.55,.08-.22,.15-.45,.21-.69,.06-.24,.12-.49,.19-.73,.06-.24,.14-.47,.24-.67,.24,.03,.44,.11,.6,.24,.17,.13,.32,.26,.46,.4,.14,.14,.29,.28,.45,.4,.16,.13,.35,.21,.59,.24,.19,.29,.36,.56,.52,.83,.16,.27,.26,.55,.31,.86-.08,.13-.14,.29-.18,.45s-.08,.34-.13,.5c-.05,.17-.11,.32-.19,.47-.08,.14-.19,.26-.33,.37-.05,.44-.11,.84-.18,1.2s-.14,.72-.21,1.07c-.07,.35-.13,.72-.18,1.1-.05,.38-.06,.79-.05,1.25-.13,.39-.26,.8-.4,1.24-.14,.44-.25,.83-.33,1.19-.25,.22-.45,.48-.59,.78-.14,.3-.29,.61-.45,.91-.06,.07-.1,.08-.12,.05-.02-.03-.07-.06-.17-.08,.02,.07,.02,.12,0,.15-.02,.03-.04,.06-.06,.09-.02,.03-.04,.06-.05,.11,0,.05,0,.12,.04,.2-.22,.1-.42,.24-.59,.43-.17,.19-.36,.35-.55,.5-.2,.15-.43,.25-.71,.3-.28,.05-.63,0-1.07-.18-.64-.5-1.21-1.08-1.71-1.74s-.9-1.44-1.21-2.34Z"/>
    <path class="cls-15" d="M1232.79,22.16c-.39,0-.82,.03-1.27,.09-.46,.06-.9,.12-1.34,.19-.31,.05-.62,.09-.91,.13-.29,.03-.55,.06-.79,.08-.11,.37-.22,.7-.33,.98-.11,.29-.23,.56-.35,.83-.12,.29-.24,.58-.34,.87-.1,.29-.2,.61-.29,.95-.16,.27-.29,.52-.39,.74-.1,.23-.18,.48-.25,.77-.19,.25-.33,.52-.42,.79-.09,.28-.17,.52-.21,.72l-.09,.3c-.09,.1-.15,.18-.17,.24s-.06,.11-.12,.16c-.02,.18-.07,.37-.16,.55-.03,.08-.06,.16-.07,.24-.02,.08-.02,.13-.02,.16,0,.17-.04,.28-.12,.33,.02,.08,.02,.17,0,.27-.02,.09-.03,.18-.05,.26-.05,.2-.06,.36-.05,.48,.05,.07,.09,.13,.13,.18,.04,.05,.07,.12,.08,.2,.09,.07,.17,.11,.21,.13,.06,.05,.16,.11,.28,.18l.21,.25c.08,.49,0,.87-.21,1.16-.24,.32-.64,.48-1.2,.48h-.28c-.08-.08-.13-.15-.14-.2-.13-.05-.23-.09-.31-.13-.08-.03-.15-.1-.21-.2-.2-.1-.37-.19-.49-.25l-.21-.13v-.3c-.11-.15-.19-.32-.25-.5-.05-.18-.1-.37-.13-.55-.03-.15-.07-.29-.11-.43-.04-.13-.09-.25-.15-.35-.03-.97,.05-1.8,.26-2.47,.2-.67,.42-1.32,.64-1.94,.12-.34,.25-.68,.38-1.02,.12-.34,.24-.7,.33-1.07l.21-.25c.11-.27,.2-.49,.27-.67,.07-.18,.15-.36,.22-.54,.05-.12,.09-.23,.13-.34s.07-.21,.11-.29c-.09,0-.18,0-.26,.01-.08,0-.16,.02-.24,.04-.09,.02-.18,.03-.26,.04-.08,0-.16,.01-.24,.01-.11,0-.19,0-.24-.02-.17,.08-.36,.13-.57,.13h-.24s-.09,0-.13-.01-.07-.01-.11-.01c-.16,0-.28,.03-.38,.08h-.78s-.07,0-.12,.01c-.05,0-.09,.01-.12,.01-.11,0-.23-.01-.35-.04-.12-.02-.26-.08-.4-.16-.19-.27-.31-.41-.38-.43l-.21-.3c-.02-.1-.04-.2-.07-.29-.03-.09-.06-.2-.09-.32-.06-.17-.12-.35-.18-.54-.05-.19-.08-.42-.08-.69,.02-.13,.05-.24,.09-.3,.05-.07,.09-.13,.12-.18l.07-.38,.31,.03h.66c.5,0,1.01-.02,1.53-.06,.52-.04,1.05-.09,1.6-.14,.31-.03,.63-.07,.95-.1,.32-.03,.66-.07,1-.1,.06-.15,.12-.29,.19-.43l.24-.13c.28-.02,.48,.02,.6,.11s.22,.18,.29,.26c.35-.03,.7-.07,1.05-.11s.71-.1,1.07-.16c.53-.08,1.07-.16,1.61-.23s1.06-.1,1.57-.1c.22,0,.43,0,.64,.03s.39,.04,.57,.08l.24,.18c.05,.1,.11,.19,.2,.28,.09,.08,.18,.17,.27,.25,.19,.18,.38,.4,.57,.66s.26,.62,.21,1.11c-.13,.2-.22,.32-.28,.35l-.21,.3-.24-.03c-.09,0-.18,.01-.26,.04-.08,.03-.16,.05-.24,.09-.06,.03-.13,.06-.19,.09s-.13,.05-.21,.06c-.14,0-.25,0-.34-.01-.09,0-.18-.01-.27-.01Z"/>
    <path class="cls-15" d="M1231.33,22.94c.11-.35,.29-.66,.53-.91,.24-.25,.51-.47,.8-.64,.29-.18,.59-.32,.91-.44,.31-.12,.61-.22,.9-.3,.63-.29,1.3-.56,2.01-.82,.71-.26,1.45-.49,2.19-.69,.75-.2,1.51-.33,2.3-.39,.79-.06,1.61,.05,2.47,.32,.05,.17,.12,.33,.21,.48,.09,.15,.19,.3,.29,.45,.1,.15,.19,.3,.27,.44,.08,.14,.13,.29,.14,.44,.16,.15,.28,.32,.38,.49,.09,.18,.11,.41,.05,.69-.16,.13-.31,.26-.46,.37-.15,.11-.31,.21-.48,.29-.58-.15-1.17-.2-1.77-.15-.6,.05-1.13,.09-1.6,.13-.14-.15-.31-.23-.51-.23s-.4,.03-.61,.1c-.21,.07-.42,.13-.64,.2-.21,.07-.41,.08-.6,.05-.16,.13-.35,.22-.58,.26-.23,.04-.48,.08-.74,.11-.02,.08,0,.14,.05,.16s.05,.08,.02,.16c.09,.12,.22,.2,.37,.25s.31,.1,.47,.15,.31,.11,.44,.19c.13,.08,.21,.2,.26,.37,.24,0,.44,.06,.61,.18,.17,.12,.31,.26,.42,.43,.11,.17,.19,.35,.25,.54s.08,.37,.08,.52c.05,.13,.1,.19,.16,.18,.06-.02,.13,.02,.21,.1,.05,.22,.16,.44,.35,.67,.19,.23,.34,.48,.45,.74,.03,.42,.05,.79,.07,1.12s-.04,.66-.17,1c-.24,.62-.56,1.18-.98,1.66-.42,.49-.89,.92-1.41,1.3-.53,.38-1.09,.7-1.68,.97-.6,.27-1.18,.5-1.74,.68-.06-.02-.13-.02-.19,0-.06,.02-.08-.03-.05-.13-.13,.12-.26,.19-.41,.23-.15,.03-.31,.05-.48,.04-.17,0-.35-.02-.53-.04-.18-.02-.35,0-.51,.03-.11-.12-.21-.23-.29-.34-.09-.11-.15-.25-.2-.42-.08,0-.11-.04-.11-.13,0-.08-.02-.13-.08-.13,.09-.17,.14-.26,.13-.29,0-.02-.03-.05-.07-.06-.04-.02-.08-.04-.11-.06s-.04-.06-.02-.11c.06-.13,.09-.29,.07-.47-.02-.18-.03-.36-.05-.54-.02-.18,0-.36,.04-.53s.15-.3,.34-.4c.53,.07,1.04,.05,1.52-.06,.48-.11,.93-.26,1.35-.47,.42-.2,.83-.42,1.21-.66,.38-.23,.77-.44,1.14-.63,.05-.15,.11-.28,.2-.38,.09-.1,.18-.19,.27-.28,.09-.08,.18-.18,.26-.28,.08-.1,.13-.23,.17-.38,.01-.12-.01-.19-.08-.21-.07-.03-.11-.09-.11-.19l-.26-.08c-.3-.18-.64-.34-1.01-.47s-.7-.26-.97-.42c-.17,.1-.33,.13-.48,.08-.15-.05-.34-.1-.58-.15-.53-.03-1.05-.09-1.54-.18s-.97-.24-1.43-.45c-.03-.08-.07-.16-.12-.23s-.13-.08-.26-.05c-.09-.13-.19-.26-.28-.39-.09-.13-.18-.26-.26-.42,.03-.2,.05-.37,.07-.52,.02-.14-.03-.28-.14-.42,.06-.22,.11-.39,.14-.53,.03-.13,.03-.31,0-.53Z"/>
    <path class="cls-15" d="M1245.58,31.29c.03,.13,.05,.26,.07,.38,.01,.12,.04,.24,.07,.38-.06,.17-.12,.33-.17,.49-.05,.16-.09,.31-.14,.47-.05,.12-.08,.19-.09,.23-.02,.03-.02,.06-.02,.08s0,.04,.01,.06c0,.02,.01,.1,.01,.21l-.09,.3c-.08,.12-.17,.21-.28,.28-.11,.07-.22,.13-.33,.18-.03,.03-.08,.06-.14,.09s-.11,.05-.14,.09l-.07,.3-.31,.05c-.27,.07-.5,.1-.68,.1h-.28c-.19-.18-.34-.33-.45-.43-.11-.1-.23-.19-.35-.28-.16-.24-.24-.41-.26-.52s-.04-.21-.07-.32c-.03-.22-.07-.36-.12-.43l-.33-.35,.28-.23-.26-.48c.19-.15,.33-.26,.42-.33,.09-.07,.17-.14,.24-.21,.06-.08,.13-.17,.21-.29,.08-.12,.2-.31,.38-.58l.21-.33,.31,.18c.06,.05,.2,.1,.41,.14s.4,.08,.55,.11c.27,.08,.52,.15,.75,.19,.24,.04,.42,.13,.57,.26l.09,.2Zm1.3-7.06c-.03,.25-.06,.44-.08,.55-.02,.12-.04,.23-.04,.34s.01,.24,.04,.39c.02,.15,.07,.39,.13,.71l.07,.4-.35,.08c-.08,.03-.21,.12-.39,.25-.18,.13-.34,.24-.48,.33-.22,.13-.43,.28-.64,.44-.2,.16-.41,.25-.61,.26-.25-.13-.42-.24-.52-.3-.09-.07-.19-.14-.28-.23-.08-.17-.15-.33-.21-.48s-.13-.3-.21-.45c-.05-.12-.08-.19-.09-.23-.02-.03-.03-.05-.04-.06,0,0-.02-.02-.05-.04s-.07-.07-.15-.15l-.14-.3c-.02-.25,.03-.51,.14-.78,.03-.13,.06-.25,.09-.35l-.17-.28,.19-.28c.11-.17,.19-.29,.24-.37,.05-.08,.11-.16,.19-.24l.21-.2c.25-.02,.45-.03,.6-.04,.15,0,.3-.04,.46-.09,.27,.07,.44,.13,.53,.19,.09,.06,.17,.12,.25,.19,.17,.13,.3,.2,.38,.2h.47l-.05,.4,.52,.13Z"/>
  </g>
  <path class="cls-15" d="M1324.96,60.7c.12-.09,.26-.23,.42-.42,.16-.19,.32-.39,.49-.6,.17-.21,.34-.43,.52-.66,.18-.23,.36-.43,.54-.61,.18-.18,.35-.32,.52-.42,.17-.1,.33-.15,.48-.14,.08,.4,.09,.79,.04,1.19s-.16,.83-.32,1.32c-.1,.12-.25,.29-.45,.5-.19,.21-.41,.44-.64,.7s-.47,.52-.71,.8c-.25,.28-.48,.55-.7,.8-.22,.26-.42,.49-.58,.7-.17,.21-.28,.37-.35,.49-.16,.17-.37,.4-.63,.7-.26,.3-.53,.61-.82,.94s-.57,.65-.83,.97c-.27,.32-.49,.58-.66,.79-.02,.06-.01,.11,.01,.14,.03,.04,.04,.09,.04,.15-.11,.11-.19,.22-.22,.32s-.05,.19-.06,.28,0,.18,0,.28,0,.2-.04,.32c-.08,.07-.14,.15-.21,.23-.06,.09-.12,.17-.18,.26-.06,.09-.12,.17-.19,.24-.07,.07-.16,.14-.26,.2-.19-.01-.34-.04-.45-.08-.11-.04-.25-.08-.41-.11-.13-.15-.21-.34-.22-.56-.01-.23,0-.46,.04-.7,.04-.24,.1-.48,.18-.71,.08-.23,.16-.43,.23-.61,.09-.26,.19-.44,.3-.55s.17-.2,.18-.29c.08-.11,.24-.3,.46-.55,.22-.25,.46-.52,.73-.8,.26-.28,.52-.56,.77-.83,.25-.27,.44-.48,.57-.64,.08-.18,.25-.42,.5-.7,.25-.28,.5-.57,.77-.87,.27-.3,.51-.58,.73-.84,.22-.27,.34-.48,.38-.64Zm-2.19-2.1c-.02,.06-.04,.12-.05,.18-.01,.06-.04,.11-.09,.14,.05,.13,.07,.2,.06,.22,.11,.23,.21,.46,.3,.7s.19,.47,.3,.7c-.02,.14,0,.27,.06,.39,.06,.13,.09,.25,.11,.38,.02,.16,0,.34-.05,.53s-.13,.33-.23,.41c-.07,.09-.15,.17-.24,.22-.09,.06-.18,.13-.25,.22-.06,.05-.12,.07-.18,.09-.06,.01-.13,.03-.19,.05-.1,.08-.24,.15-.41,.22-.17,.07-.31,.09-.42,.07-.14,.06-.28,.1-.42,.12s-.29,.01-.47-.03c-.35,.06-.64-.03-.86-.25-.23-.22-.39-.49-.5-.79-.04-.33-.03-.63,.03-.9,.06-.27,.14-.51,.25-.74s.23-.44,.37-.63c.14-.19,.27-.38,.39-.56,.06,.02,.1,0,.12-.05,.02-.06,.06-.1,.11-.12,.04-.09,.09-.16,.15-.2s.11-.1,.15-.18c.08-.02,.15-.07,.19-.14,.04-.07,.1-.11,.18-.14,.09-.11,.16-.2,.2-.26s.08-.13,.14-.22h.11s.06,0,.12-.02c.04-.08,.07-.14,.1-.18,.03-.04,.08-.08,.14-.13,.06,.03,.12,.06,.19,.07,.07,.01,.13,.05,.18,.1,0,.06,.01,.1,.04,.14s.06,.07,.08,.09,.05,.06,.08,.09c.02,.03,.04,.07,.05,.11,.08,.07,.12,.12,.13,.15,.01,.03,.03,.08,.05,.14Zm-1.02,2.44c.03-.11,.04-.17,.04-.18s0-.02-.01-.04c-.04-.07-.07-.14-.1-.22-.03-.08-.06-.15-.1-.22-.06,.07-.11,.08-.17,.03-.05,.06-.1,.11-.15,.15-.05,.05-.1,.1-.15,.17-.06,.09-.11,.17-.15,.22-.04,.06-.07,.14-.08,.26,.07,.06,.15,.07,.24,.05,.09-.02,.18-.03,.25-.03,.08-.02,.14-.05,.2-.09l.17-.1Zm5.15,6.16c-.02,.14,0,.26,.05,.38,.05,.12,.09,.24,.11,.37,.02,.16,0,.34-.04,.54-.05,.2-.12,.33-.23,.4-.07,.1-.15,.18-.25,.24-.1,.06-.19,.13-.26,.22-.06,.03-.11,.06-.17,.08-.06,.02-.12,.04-.2,.06-.1,.07-.24,.14-.4,.21-.17,.07-.31,.1-.43,.08-.14,.06-.28,.1-.41,.12-.13,.02-.29,.01-.48-.03-.35,.06-.63-.03-.86-.25s-.38-.49-.49-.81c-.04-.32-.03-.61,.03-.88s.14-.51,.24-.74c.1-.23,.22-.44,.36-.63s.27-.38,.4-.56c.05,.02,.08,0,.11-.06s.07-.1,.11-.11c.03-.09,.08-.16,.14-.2,.07-.04,.12-.11,.16-.2,.08-.02,.14-.07,.18-.13s.11-.11,.18-.13c.08-.11,.15-.2,.19-.26,.04-.06,.09-.13,.15-.22,.05-.01,.08-.01,.11,0,.02,0,.06,0,.11,0,.05-.09,.08-.15,.11-.19,.03-.03,.07-.08,.13-.14,.06,.04,.12,.07,.19,.08,.07,0,.13,.04,.18,.11,0,.12,.05,.2,.13,.23,.08,.03,.12,.09,.14,.2,.07,.07,.11,.11,.13,.14,.02,.02,.04,.07,.06,.15-.02,.06-.04,.12-.06,.18-.02,.06-.05,.11-.1,.13,.06,.13,.08,.2,.06,.22,.11,.23,.21,.46,.3,.71,.09,.25,.2,.48,.32,.71Zm-1.54,.48c.02-.1,.03-.18,.03-.22-.05-.07-.08-.14-.11-.22-.02-.08-.05-.15-.09-.22-.05,.06-.08,.08-.11,.08s-.04-.01-.06-.03c-.06,.06-.11,.11-.16,.15-.05,.04-.1,.1-.15,.15-.05,.1-.09,.18-.14,.24-.05,.06-.07,.14-.07,.24,.07,.07,.15,.09,.24,.07,.09-.02,.18-.03,.25-.03,.08-.02,.14-.05,.19-.08s.11-.07,.18-.12Z"/>
  <path class="cls-9" d="M598.6,607.3c.88,2.58,1.97,5.16,3.76,7.22,3.27,3.75,8.55,5.3,13.53,5.06,4.98-.24,9.74-2.06,14.29-4.1"/>
  <g>
    <path class="cls-27" d="M655.29,617.07c-21.08,0-41.17-3.66-59.72-10.89-33.78-13.16-50.89-27-50.89-41.16,0-9.1,6.07-18.09,17.56-26,18.29-12.59,36.23-17.51,45.21-18.63,0,.05,0,.09,0,.14,0,.37,.12,1.22,1.02,2.32,6.95,8.5,20.84,19.43,47.52,23.24,4.78,.68,9.5,1.03,14.05,1.03s8.75-.32,12.93-.96c7.76-1.18,14.78-4.13,22.49-7.57,9.16-4.09,19.26-9.29,23.1-19.32,41.94,8.8,68.95,26.69,68.95,45.77,0,25.59-74.94,47.56-126.52,51.44-5.5,.41-10.63,.61-15.69,.61h0Z"/>
    <path d="M729.46,520.97c40.52,8.73,66.54,25.89,66.54,44.04,0,10.7-15.55,22.53-42.67,32.44-24.01,8.78-55.61,15.48-82.47,17.5-5.46,.41-10.56,.61-15.58,.61-20.89,0-40.8-3.63-59.17-10.79l-.06-.02c-6.11-2.38-18.82-7.33-29.98-14.41-13.2-8.38-19.89-16.9-19.89-25.33,0-10.85,9.19-19.45,16.91-24.76,17.17-11.82,33.99-16.79,43.18-18.19,.2,.51,.52,1.1,1.03,1.72,12.9,15.78,33.48,21.63,48.47,23.77,4.85,.69,9.64,1.04,14.26,1.04s8.9-.33,13.16-.98c7.94-1.21,15.06-4.2,22.88-7.68,9.08-4.05,19.05-9.18,23.4-18.97m-2.08-3.5c.01,.37-.05,.78-.22,1.21-3.67,9.64-13.65,14.65-22.32,18.51-7.21,3.22-14.28,6.26-22.11,7.46-4.22,.64-8.46,.94-12.7,.94-4.62,0-9.24-.36-13.84-1.01-16.82-2.4-35.29-8.9-46.57-22.7-.67-.81-.68-1.35-.68-1.35,0-.54,.36-1.76,.31-1.86,0-.02-.02-.03-.02-.03,0,0-.02,0-.03,0-.05,0-.1,.04-.14,.06-8.92,.71-28.05,5.56-47.67,19.07-11.56,7.96-18.21,17.27-18.21,27.23,0,22.4,39.62,37.8,51.84,42.56,22.49,8.76,43.44,10.99,60.26,10.99,5.8,0,11.1-.26,15.81-.62,51.51-3.87,127.91-25.62,127.91-52.94,0-20.88-29.2-38.93-71.62-47.54h0Z"/>
  </g>
  <path class="cls-9" d="M648.86,617.97c3.28,7.38,11.68,11.61,19.01,9.56,1.53-.43,2.99-1.09,4.44-1.77,3.7-1.75,7.59-3.91,9.41-7.81"/>
  <path class="cls-9" d="M700.19,615.71c2.1,2.66,4.34,5.44,7.3,6.5,1.64,.59,3.39,.61,5.1,.56,3.59-.09,7.28-.47,10.48-2.39,3.19-1.93,5.79-5.74,5.69-9.95"/>
  <path class="cls-31" d="M629.38,614.23c-5.51-.84-10.95-1.99-16.31-3.49-3.71-1.04-7.81-1.9-11.54-3.25-.36-.39-.85-.7-1.49-.88-.81-.21-1.6-.45-2.38-.74-2.53-.85-4.45,1.8-3.97,3.89-1.51,6.33,7.56,12.1,12.81,13.47,7.58,1.97,15.51,.92,22.56-2.26,.71-.32,1.16-.77,1.42-1.28,1.8-1.51,1.7-5.03-1.09-5.46Z"/>
  <path class="cls-31" d="M681.62,616.3c-.26,.03-.52,.07-.78,.11-.31-.12-.65-.21-1.02-.22-1.78-.06-3.48,.24-5.19,.54-1.61,.09-3.22,.1-4.83,.04-2.39-.1-4.64-.33-6.96,.39-.15,.05-.29,.1-.43,.16-5.11-.09-10.21-.41-15.29-.95-3.26-.34-4.27,4.41-1.63,5.84,.03,.01,.05,.03,.08,.04,2.34,2.51,5.88,4.07,8.93,5.59,3.47,1.73,6.89,2.35,10.77,2.48,3.31,.11,6.43-.04,9.35-1.69,3.33-1.87,6.39-4.52,9.27-6.98,1.96-1.67,.51-5.7-2.28-5.35Z"/>
  <path class="cls-31" d="M729.35,606.83c-10.61,3.85-22.24,4.98-33.22,7.03-.87,.16-1.47,.73-1.83,1.47-.93,1.22-1.2,3.07,.06,4.58,.48,.58,1.04,1.07,1.65,1.5,.44,1.23,1.75,1.88,2.86,2,2.6,.28,5.07,1.81,7.66,2.31,2.79,.53,5.6,.65,8.41,.3,4.04-.51,9.67-1.68,12.13-5.63,2.3-2.45,4.13-5.63,5.78-8.54,1.4-2.46-.93-5.95-3.5-5.02Z"/>
  <ellipse class="cls-1" cx="671.09" cy="500.52" rx="62.51" ry="61.65"/>
  <path class="cls-14" d="M668.93,475.64c-18.88,0-34.18,20.35-34.18,45.45,0,8.93,1.94,17.26,5.29,24.28,3.42,1.18,6.86,2.23,10.42,2.91,1.35,.04,2.75-.01,4.04,.42,.25,.08,.47,.2,.68,.32,.56,.06,1.12,.15,1.69,.26,6.89-.18,13.92,.11,20.74,.36,.41,.02,.83,.01,1.24,.02,.1-.01,.2-.03,.3-.03,1.82-.11,3.52-.75,5.28-1.16,1.62-.38,3.22-.5,4.87-.51,1.61-.59,3.25-1.18,4.83-1.83,1.39-.57,2.69-1.31,4.13-1.71,3.07-6.82,4.85-14.79,4.85-23.32,0-25.1-15.3-45.45-34.18-45.45Z"/>
  <ellipse class="cls-12" cx="669.37" cy="433.08" rx="6.19" ry="6.02"/>
  <ellipse class="cls-6" cx="669.1" cy="421.02" rx="1.72" ry="1.02"/>
  <line class="cls-8" x1="669.16" y1="422.18" x2="669.16" y2="426.57"/>
  <ellipse class="cls-4" cx="679.99" cy="509.51" rx="2.96" ry="2.87"/>
  <ellipse class="cls-4" cx="658.36" cy="509.41" rx="2.96" ry="2.87"/>
  <path class="cls-2" d="M670.88,526.23c.69,1.43,4.77,.98,9.12-1.01"/>
  <path class="cls-23" d="M735.88,560.43c1.29-.02,2.58-.04,3.86-.07,2.07,.08,3.99-.35,5.78-1.29,1.86-.6,3.47-1.64,4.83-3.1,.78-1.01,1.56-2.02,2.35-3.04,1.1-1.72,1.69-3.58,1.78-5.58,.36-1.33,.36-2.66,0-3.99-.09-2-.68-3.86-1.78-5.58-.78-1.01-1.56-2.02-2.35-3.04-1.87-1.86-4.08-3.14-6.62-3.86-1.47-.58-2.98-1.04-4.53-1.37-2.73-.58-5.55-.96-8.34-1.1-.71-.04-1.42-.05-2.12,0-.77,.05-3.34,.35-4.11,.55-.72,.19-1.18,.46-2.02,.82-.33,.14-1.41,.51-2,.87-1.77,1.06-3.13,2.41-4.37,4.01-.23,.29-.94,1.09-1.27,1.68-.24,.42-1.42,3.23-1.54,3.67-.14,.52-.53,3.51-.56,4.07-.06,1.3,.92,5.35,.53,4.17,.03,.09,.05,.19,.08,.28,.16,.48,1.27,3.23,1.55,3.68,.06,.1,.13,.19,.18,.29,.41,.54,.82,1.08,1.24,1.61,.4,.6,.85,1.17,1.34,1.7,1.03,.97,2.25,1.91,3.42,2.68,.21,.14,.41,.27,.64,.38,1.78,.87,3.67,1.64,5.54,2.31,.72,.26,1.45,.45,2.2,.57,1.55,.25,3.21,.57,4.79,.6,.94,.02,1.92-.19,2.82-.31,1.25-.17,2.42-.24,3.58-.69,1.34-.52,2.82-1.02,4.06-1.76,.16-.09,.29-.2,.44-.3,1.03-.72,2.34-1.65,3.24-2.52,1.02-.99,1.91-2.27,2.71-3.42,.54-.78,.71-1.38,1.14-2.41,.32-.75,.72-1.53,.94-2.34,.19-.68,.29-2.07,.33-2.33,.08-.57,.29-1.58,.29-2.34,0-.12,0-.23-.01-.34-.05-1.21-.3-3.04-.57-4.21-.03-.15-.07-.29-.11-.44-.33-1.1-1.06-2.77-1.59-3.79-.41-.79-.93-1.33-1.51-2.09-1.4-1.81-1.39-1.77-3.17-3.15-1.75-1.35-3.3-2.22-5.5-2.9-.22-.07-.42-.12-.64-.17-1.33-.18-2.66-.36-3.99-.54l-.33-.03c-.17,0-.33,.01-.5,.02-1.4,.09-3.13,.3-4.49,.61-.45,.1-.88,.25-1.32,.41,6.33,4.82,12.66,9.64,18.99,14.46,.2-4.6,.24-9.21,.12-13.82-9.32,2.52-18.63,5.05-27.95,7.57,.33,.78,.67,1.56,1,2.34,.94,1.75,2.23,3.15,3.86,4.21,1.45,1.33,3.15,2.22,5.1,2.68,1.99,.63,3.99,.71,5.98,.27,2-.09,3.86-.68,5.58-1.78,3.2-2.06,6.02-5.14,6.89-8.96,.18-1.33,.36-2.66,.54-3.99,0-2.71-.69-5.23-2.05-7.57-.33-.78-.67-1.56-1-2.34-.78-1.01-1.56-2.02-2.35-3.04-1.36-1.46-2.97-2.5-4.83-3.1-1.17-.68-2.43-1.02-3.79-1.02-1.99-.45-3.99-.36-5.98,.27-2.47,.8-4.7,2.1-6.62,3.86-1.46,1.36-2.5,2.97-3.1,4.83-.94,1.79-1.37,3.71-1.29,5.78,.12,4.61,.08,9.21-.12,13.82,0,2.71,.69,5.23,2.05,7.57,.94,1.75,2.23,3.15,3.86,4.21,1.45,1.33,3.15,2.22,5.1,2.68,2.66,.71,5.32,.71,7.98,0,.54-.2,1.08-.37,1.65-.47-1.33,.18-2.66,.36-3.99,.54,.35-.04,.65-.04,1-.01-1.33-.18-2.66-.36-3.99-.54,.22,.03,.43,.09,.64,.17-1.19-.5-2.39-1.01-3.58-1.51,.14,.06,.27,.13,.4,.22-1.01-.78-2.02-1.56-3.04-2.35,.18,.14,.33,.28,.48,.46-.78-1.01-1.56-2.02-2.35-3.04,.13,.19,.24,.36,.34,.57-.5-1.19-1.01-2.39-1.51-3.58,.11,.29,.18,.57,.22,.88-.18-1.33-.36-2.66-.54-3.99,.02,.24,.01,.45,0,.69,.18-1.33,.36-2.66,.54-3.99-.05,.31-.13,.59-.24,.88,.5-1.19,1.01-2.39,1.51-3.58-.11,.23-.23,.41-.39,.61,.78-1.01,1.56-2.02,2.35-3.04-.18,.21-.36,.38-.57,.56,1.01-.78,2.02-1.56,3.04-2.35-.29,.22-.59,.39-.92,.55,1.19-.5,2.39-1.01,3.58-1.51-.52,.21-1.04,.35-1.59,.42,1.33-.18,2.66-.36,3.99-.54-.49,.05-.96,.04-1.45,0,1.33,.18,2.66,.36,3.99,.54-1.29-.18-2.49-.61-3.69-1.11,1.19,.5,2.39,1.01,3.58,1.51-.45-.19-.88-.37-1.29-.65,1.01,.78,2.02,1.56,3.04,2.35-.2-.16-.38-.32-.55-.52l2.35,3.04c-.1-.12-.18-.24-.26-.38,.5,1.19,1.01,2.39,1.51,3.58-.06-.12-.1-.25-.12-.38,.18,1.33,.36,2.66,.54,3.99v-.18c-.18,1.33-.36,2.66-.53,3.99l.05-.17c-.5,1.19-1.01,2.39-1.51,3.58l.1-.16c-.78,1.01-1.56,2.02-2.35,3.04l.16-.15c-1.01,.78-2.02,1.56-3.04,2.35l.21-.11c-1.19,.5-2.39,1.01-3.58,1.51l.23-.06c-1.33,.18-2.66,.36-3.99,.54,1.53-.18,3.17,.03,4.69,.23-1.33-.18-2.66-.36-3.99-.54,2.21,.32,4.35,.89,6.43,1.7,1.33-9.82,2.66-19.64,3.99-29.46-1.29,.02-2.58,.04-3.86,.07-3.89,.07-7.84,1.63-10.61,4.39-1.46,1.36-2.5,2.97-3.1,4.83-.94,1.79-1.37,3.71-1.29,5.78,.17,3.88,1.45,7.9,4.39,10.61s6.57,4.46,10.61,4.39h0Z"/>
  <path class="cls-23" d="M730.49,545.38c5.07,1.1,10.14,2.2,15.22,3.29,2.5,.54,4.99,1.08,7.49,1.62,2.31,.5,4.8,.79,7.01,1.62-1.19-.5-2.39-1.01-3.58-1.51,.29,.13,.54,.26,.81,.44l-3.04-2.35c.15,.11,.29,.24,.41,.39-.78-1.01-1.56-2.02-2.35-3.04l.15,.23c-.5-1.19-1.01-2.39-1.51-3.58,.09,.17,.14,.35,.16,.54-.18-1.33-.36-2.66-.54-3.99l-.02,.4c.18-1.33,.36-2.66,.54-3.99l-.12,.38c.5-1.19,1.01-2.39,1.51-3.58-.11,.25-.25,.49-.42,.71l2.35-3.04c-1.31,1.65-2.84,3.1-4.49,4.4,1.01-.78,2.02-1.56,3.04-2.35-3.15,2.43-6.68,4.25-10.33,5.81l3.58-1.51c-8.47,3.57-17.27,6.16-25.49,10.35-7.72,3.93-14.94,8.81-22.94,12.19,1.19-.5,2.39-1.01,3.58-1.51-4.09,1.69-8.29,2.9-12.68,3.51,1.33-.18,2.66-.36,3.99-.54-7.63,1-15.31,.34-22.9-.67,1.33,.18,2.66,.36,3.99,.54-9.47-1.28-18.91-3.08-28.47-3.58-4.06-.21-8.12-.14-12.16,.37-3.36,.42-6.64,.91-9.95,1.6-2.33,.48-4.65,.97-7,1.29,1.33-.18,2.66-.36,3.99-.54-2.34,.29-4.67,.38-7.02,.09,1.33,.18,2.66,.36,3.99,.54-2.33-.34-4.55-1.03-6.71-1.93,1.19,.5,2.39,1.01,3.58,1.51-6.02-2.58-11.7-6.06-17.46-9.18-3-1.63-6.01-3.26-9.01-4.88-2.74-1.49-5.59-2.87-8.09-4.74,1.01,.78,2.02,1.56,3.04,2.35-.98-.77-1.86-1.61-2.62-2.59,.78,1.01,1.56,2.02,2.35,3.04-.45-.63-.82-1.29-1.14-2,.5,1.19,1.01,2.39,1.51,3.58-.28-.72-.48-1.43-.59-2.19,.18,1.33,.36,2.66,.54,3.99-.06-.63-.06-1.22,.01-1.85-.18,1.33-.36,2.66-.54,3.99,.09-.49,.21-.95,.39-1.42l-1.51,3.58c.1-.23,.21-.45,.34-.67l-2.35,3.04c1.26-1.11,2.55-2.18,3.88-3.21-1.01,.78-2.02,1.56-3.04,2.35,5.25-4.03,10.98-7.35,17.07-9.94l-3.58,1.51c4.12-1.72,8.53-3.4,12.96-4.12-1.33,.18-2.66,.36-3.99,.54,.46-.05,.86-.06,1.32-.02-1.33-.18-2.66-.36-3.99-.54,.29,.04,.57,.11,.84,.22-1.19-.5-2.39-1.01-3.58-1.51,.24,.1,.47,.24,.68,.4-1.01-.78-2.02-1.56-3.04-2.35,.85,.69,1.52,1.55,2.32,2.3,1.72,1.6,3.67,3,5.55,4.4s3.76,2.7,5.66,4.02c3.87,2.7,7.8,5.33,11.82,7.8,8.89,5.46,18.41,10.15,28.37,13.33,5.54,1.77,11.15,2.73,16.91,3.46,4.21,.53,8.47,.7,12.71,.46,5.48-.31,11.02-1.07,16.35-2.37,5.29-1.29,10.37-3.31,15.3-5.6,5.37-2.49,10.08-5.83,14.7-9.5,4-3.18,7.4-7.02,11.43-10.16-1.01,.78-2.02,1.56-3.04,2.35,1.75-1.33,3.59-2.49,5.6-3.38-1.19,.5-2.39,1.01-3.58,1.51,1.89-.79,3.85-1.33,5.87-1.63-1.33,.18-2.66,.36-3.99,.54,2.43-.33,4.86-.31,7.28,0-1.33-.18-2.66-.36-3.99-.54,2.71,.38,5.34,1.1,7.87,2.14-1.19-.5-2.39-1.01-3.58-1.51,2.39,1.02,4.64,2.29,6.73,3.83v-25.9c-15.36,7.3-30.87,14.28-46.54,20.89,1.19-.5,2.39-1.01,3.58-1.51-13.02,5.49-26.34,10.61-40.41,12.55,1.33-.18,2.66-.36,3.99-.54-7.94,1.05-15.97,1.04-23.91,0,1.33,.18,2.66,.36,3.99,.54-7.91-1.08-15.64-3.17-23.01-6.25,1.19,.5,2.39,1.01,3.58,1.51-14.09-5.98-25.78-16.28-39.83-22.31-3.83-1.65-6.92-2.86-11.2-2.92-1.53-.02-3.14,.3-4.63,.56-.37,.06-.69,.14-1.04,.25-2.94,.97-5.51,2.42-7.7,4.63-2.06,2.07-3.73,5.03-4.45,7.84-.77,3.01-.72,6.23,.09,9.22,.37,1.35,1.12,3.04,1.82,4.25s1.77,2.46,2.7,3.56c1.23,1.45,2.87,2.55,4.38,3.66,2.26,1.66,4.98,2.6,7.59,3.56,1.87,.69,3.76,1.35,5.7,1.83,1.55,.38,3.11,.58,4.69,.8,1.52,.2,3.03,.45,4.57,.46,1.43,0,2.83-.23,4.24-.42s2.82-.33,4.18-.75c8.02-2.42,14.44-8.14,17-16.22,.6-1.89,.81-3.99,.92-5.94,.11-2.02-.25-4.14-.67-6.1-.08-.37-.2-.72-.33-1.08-.51-1.43-1.11-2.97-1.85-4.31s-1.87-2.67-2.88-3.84c-.29-.34-.59-.64-.93-.92-6.06,7.85-12.12,15.71-18.18,23.56,9.78,7.21,19.68,14.44,30.7,19.67,6.43,3.05,13.12,5.76,20.1,7.26,7.71,1.66,15.68,2.29,23.55,1.75,8.9-.62,17.73-2.22,26.43-4.18,3.57-.8,7.15-3.79,8.96-6.89,1.88-3.22,2.68-7.95,1.51-11.56s-3.42-7.13-6.89-8.96c-3.67-1.94-7.48-2.43-11.56-1.51-5.2,1.17-10.43,2.22-15.71,2.95,1.33-.18,2.66-.36,3.99-.54-7.17,.95-14.43,1.26-21.62,.31,1.33,.18,2.66,.36,3.99,.54-6.04-.85-11.89-2.58-17.52-4.93l3.58,1.51c-12.48-5.29-23.52-13.31-34.36-21.31-1.72-1.1-3.58-1.69-5.58-1.78-1.99-.45-3.99-.36-5.98,.27-3.16,1.02-5.75,2.73-7.79,5.38-1.95,2.53-3.37,5.8-3.22,9.09,.17,3.77,1.38,8.08,4.39,10.61,.34,.29,.64,.58,.93,.92-.78-1.01-1.56-2.02-2.35-3.04,.33,.44,.59,.88,.82,1.38l-1.51-3.58c.24,.61,.4,1.22,.49,1.87-.18-1.33-.36-2.66-.54-3.99,.06,.66,.06,1.31-.02,1.97,.18-1.33,.36-2.66,.54-3.99-.1,.67-.27,1.3-.51,1.93,.5-1.19,1.01-2.39,1.51-3.58-.26,.62-.58,1.19-.98,1.74,.78-1.01,1.56-2.02,2.35-3.04-.53,.67-1.11,1.23-1.78,1.75,1.01-.78,2.02-1.56,3.04-2.35-.7,.5-1.42,.92-2.21,1.27,1.19-.5,2.39-1.01,3.58-1.51-1.16,.48-2.34,.8-3.58,.99,1.33-.18,2.66-.36,3.99-.54-1.61,.21-3.2,.17-4.82-.04,1.33,.18,2.66,.36,3.99,.54-3.38-.5-6.75-1.61-9.9-2.93,1.19,.5,2.39,1.01,3.58,1.51-.89-.41-1.72-.89-2.5-1.47l3.04,2.35c-.54-.43-1.02-.89-1.45-1.44,.78,1.01,1.56,2.02,2.35,3.04-.18-.26-.32-.51-.46-.79,.5,1.19,1.01,2.39,1.51,3.58-.11-.28-.18-.53-.23-.82,.18,1.33,.36,2.66,.54,3.99-.02-.19-.02-.37,0-.56-.18,1.33-.36,2.66-.54,3.99,.02-.19,.07-.38,.14-.56-.5,1.19-1.01,2.39-1.51,3.58,.14-.3,.28-.54,.48-.81-.78,1.01-1.56,2.02-2.35,3.04,.13-.15,.28-.29,.44-.41-1.01,.78-2.02,1.56-3.04,2.35,.16-.12,.33-.22,.51-.3-1.19,.5-2.39,1.01-3.58,1.51,.39-.16,.76-.25,1.18-.31-1.33,.18-2.66,.36-3.99,.54,.44-.03,.87-.02,1.31,.02-1.33-.18-2.66-.36-3.99-.54,1.03,.14,2,.43,2.96,.83-1.19-.5-2.39-1.01-3.58-1.51,10.88,4.67,20.28,11.96,30.54,17.73,6.11,3.44,12.63,6.29,19.28,8.5,6.79,2.26,13.72,3.49,20.81,4.4,13.19,1.7,26.7,.4,39.56-2.91,13.23-3.41,25.82-8.98,38.33-14.35,13.56-5.83,27-11.91,40.32-18.24,4.65-2.21,7.43-8.02,7.43-12.95,0-2.71-.69-5.23-2.05-7.57-1.33-2.25-3.13-4.05-5.38-5.38-3.68-2.72-8-4.64-12.32-6.11-1.6-.54-3.24-.96-4.9-1.24-2.88-.48-5.85-.94-8.79-.92-5.28,.04-10.26,1.14-15.09,3.18-5.01,2.12-9.24,5.25-13.3,8.88-3.06,2.75-5.92,5.71-9.18,8.24,1.01-.78,2.02-1.56,3.04-2.35-3.95,3.03-8.27,5.51-12.85,7.47,1.19-.5,2.39-1.01,3.58-1.51-5.48,2.31-11.24,3.84-17.14,4.64,1.33-.18,2.66-.36,3.99-.54-6.06,.78-12.19,.78-18.25-.03,1.33,.18,2.66,.36,3.99,.54-6.9-.96-13.6-2.97-20.02-5.65l3.58,1.51c-6.34-2.68-12.38-5.98-18.22-9.62s-11.6-7.49-17.08-11.63c1.01,.78,2.02,1.56,3.04,2.35-2.58-1.99-4.55-4.57-7.35-6.31-5.02-3.11-10.77-3.09-16.32-1.69-5.18,1.31-10.09,3.27-15,5.38-3.75,1.61-7.37,3.51-10.82,5.68-1.78,1.12-3.51,2.32-5.19,3.58-2.49,1.88-5.14,3.77-7.43,5.92-1.08,1.01-2.19,2.5-2.84,3.84s-1.43,2.93-1.8,4.46c-.49,2.02-.85,4.27-.65,6.38s.39,4.22,1.13,6.18c1.44,3.81,2.46,5.44,4.99,8.62,3.32,4.15,8.28,6.71,12.87,9.2,4.32,2.34,8.64,4.69,12.96,7.03,4.1,2.23,8.16,4.59,12.38,6.61,6.55,3.14,13.35,5.43,20.74,5.03,6.49-.35,12.7-2.16,19.09-3.07-1.33,.18-2.66,.36-3.99,.54,7.83-1.05,15.72-.38,23.51,.67-1.33-.18-2.66-.36-3.99-.54,12.09,1.64,24.34,4.33,36.6,3.54,6.52-.42,13.05-1.49,19.15-3.88,6.02-2.35,11.71-5.2,17.32-8.39,5.24-2.98,10.44-6.03,16-8.39-1.19,.5-2.39,1.01-3.58,1.51,4.13-1.73,8.38-3.15,12.57-4.74,5.16-1.96,10.45-4.01,15.12-6.98,2.81-1.79,5.54-3.85,7.94-6.16,.71-.68,1.38-1.4,2.01-2.16,1.6-1.93,2.82-3.59,3.78-5.86,1.4-3.31,1.84-7.02,.89-10.55-1.84-6.8-7.5-11.2-14.18-12.65-2.74-.59-5.48-1.19-8.21-1.78-6.44-1.39-12.88-2.79-19.32-4.18-3.94-.85-8.01-.56-11.56,1.51-3.11,1.82-6.08,5.39-6.89,8.96-.87,3.84-.69,8.15,1.51,11.56,2.05,3.18,5.15,6.07,8.96,6.89h0Z"/>
  <path class="cls-23" d="M759.09,552.06l.39,.05c-1.33-.18-2.66-.36-3.99-.54,2.1,.29,4.12,.84,6.08,1.64-1.19-.5-2.39-1.01-3.58-1.51,1.81,.78,3.5,1.76,5.08,2.95l-3.04-2.35c1.13,.88,2.18,1.85,3.14,2.92v-21.21c-1.38,1.3-2.82,2.53-4.32,3.69,1.01-.78,2.02-1.56,3.04-2.35-3.79,2.89-7.92,5.28-12.31,7.15,1.19-.5,2.39-1.01,3.58-1.51-4.67,1.96-9.56,3.3-14.58,3.99,1.33-.18,2.66-.36,3.99-.54-4.88,.63-9.77,.48-14.68,.52-5.87,.05-11.86,.6-17.52,2.25-9.15,2.66-17.45,7.55-26.18,11.25,1.19-.5,2.39-1.01,3.58-1.51-3.84,1.61-7.79,2.94-11.93,3.51,1.33-.18,2.66-.36,3.99-.54-2.26,.28-4.51,.33-6.78,.09-2.07-.08-3.99,.35-5.78,1.29-1.86,.6-3.47,1.64-4.83,3.1-2.6,2.6-4.56,6.87-4.39,10.61,.17,3.88,1.45,7.9,4.39,10.61l3.04,2.35c2.34,1.36,4.86,2.04,7.57,2.05,4.2,.43,8.48-.15,12.61-.93,3.03-.57,5.98-1.55,8.84-2.7,6.97-2.8,13.59-6.29,20.48-9.24-1.19,.5-2.39,1.01-3.58,1.51,4.14-1.75,8.4-3.17,12.87-3.79-1.33,.18-2.66,.36-3.99,.54,4.19-.53,8.42-.45,12.63-.45,5.22,0,10.31-.47,15.47-1.33,3.57-.6,7.08-1.54,10.48-2.8,4.45-1.66,8.88-3.57,12.96-6.02,4.5-2.7,8.75-5.98,12.57-9.58,2.63-2.48,4.56-6.98,4.39-10.61-.18-4.1-1.63-7.54-4.39-10.61-1.4-1.56-3-2.81-4.66-4.09s-3.29-2.51-5.17-3.46c-2.32-1.17-4.75-2.22-7.23-2.98-2.66-.82-5.49-1.09-8.24-1.42-2.07-.08-3.99,.35-5.78,1.29-1.86,.6-3.47,1.64-4.83,3.1-2.6,2.6-4.56,6.87-4.39,10.61s1.45,7.9,4.39,10.61c1.01,.78,2.02,1.56,3.04,2.35,2.34,1.36,4.86,2.04,7.57,2.05h0Z"/>
  <path d="M627.09,467.01c.78-1.48,1.62-2.93,2.54-4.33,.44-.68,.9-1.36,1.38-2.01,.05-.07,.1-.14,.16-.21-.09,.12-.07,.09,.01-.01,.11-.14,.23-.27,.35-.4,.08-.08,.15-.16,.24-.23,.02-.02,.23-.2,.1-.1s.09-.06,.11-.08c.09-.06,.19-.12,.29-.17-.68-.68-1.37-1.37-2.05-2.05-.68,1.02-1.39,2.02-2.12,3.01-.18,.25-.37,.49-.55,.74-.03,.03-.28,.37-.14,.18-.09,.12-.19,.24-.28,.36-.38,.48-.77,.96-1.16,1.44,.84,.49,1.67,.97,2.51,1.46,.03-.09,.07-.17,.1-.26-.06,.15-.06,.14,.01-.02,.08-.17,.15-.33,.24-.5,.17-.33,.35-.65,.54-.96s.4-.62,.62-.91c-.18,.24,.16-.2,.2-.24,.12-.14,.24-.28,.37-.42,.53-.58,.62-1.56,0-2.12-.58-.53-1.56-.62-2.12,0-1.24,1.37-2.18,2.91-2.85,4.63-.23,.59,.15,1.41,.69,1.69s1.39,.29,1.82-.23c1.68-2.04,3.26-4.15,4.73-6.34,.35-.53,.23-1.39-.23-1.82-.5-.46-1.21-.57-1.82-.23-1.58,.87-2.58,2.57-3.55,4.03s-1.88,3.01-2.7,4.58c-.36,.69-.2,1.66,.54,2.05,.69,.37,1.66,.2,2.05-.54h0Z"/>
  <path d="M639.23,454.08c-2.14,1.66-3.3,4.18-4.34,6.62,.93,.25,1.86,.5,2.8,.76,0-.11,0-.21,0-.32-.03,.13-.02,.11,.01-.08,.05-.21,.11-.41,.18-.62,.07-.17,.08-.2,.04-.09,.03-.07,.07-.15,.1-.22,.08-.17,.17-.34,.26-.5,.38-.7,.79-1.39,1.25-2.05,.49-.71,.77-1.08,1.34-1.72,.53-.61,1.09-1.18,1.68-1.73-.79-.61-1.57-1.21-2.36-1.82-1.97,3.39-4.47,6.16-7.11,9.1l2.36,1.82c1.31-1.85,2.62-3.71,3.93-5.56,.45-.64,.14-1.7-.54-2.05-.77-.41-1.57-.15-2.05,.54-1.31,1.85-2.62,3.71-3.93,5.56-.43,.61-.16,1.51,.39,1.94s1.47,.44,1.97-.12c2.74-3.05,5.51-6.14,7.58-9.71,.87-1.5-1.12-2.97-2.36-1.82-1.35,1.25-2.55,2.66-3.58,4.19-1.03,1.53-2.2,3.36-2.16,5.27,.01,.64,.45,1.3,1.1,1.45,.59,.13,1.43-.07,1.69-.69,.49-1.15,.99-2.3,1.62-3.38,.64-1.09,1.18-1.8,2.25-2.62,.62-.48,.55-1.62,0-2.12-.66-.61-1.46-.51-2.12,0h0Z"/>
  <path class="cls-32" d="M730.62,538.57c1.48,.44,2.95,.92,4.4,1.44,.71,.26,1.42,.52,2.13,.8,.37,.14,.73,.29,1.09,.44,.16,.06,.31,.13,.47,.19,.1,.04,.21,.09,.31,.13,.17,.07,.21,.09,.11,.04,.72,.31,1.64,.24,2.05-.54,.34-.64,.23-1.73-.54-2.05-3.01-1.28-6.08-2.4-9.22-3.34-.75-.22-1.67,.27-1.85,1.05-.18,.81,.24,1.61,1.05,1.85h0Z"/>
  <path class="cls-32" d="M590.36,559.92c3.08-1.86,6.31-3.17,9.83-4.01,.79-.19,1.26-1.08,1.05-1.85-.22-.81-1.05-1.24-1.85-1.05-3.71,.88-7.28,2.34-10.54,4.31-.69,.42-.95,1.35-.54,2.05s1.36,.96,2.05,.54h0Z"/>
  <path class="cls-24" d="M596.83,530.25c-.53,.13-1.03,.51-1.28,.99-.1,.18-.19,.39-.23,.6s-.08,.44-.06,.66,.04,.45,.12,.66c.14,.37,.25,.58,.51,.88,.03,.03,.06,.07,.09,.09,.12,.11,.26,.22,.41,.3s.31,.15,.47,.2c.02,0,.05,.01,.07,.02,.15,.03,.32,.05,.47,.07,.06,0,.11,0,.17,0,.18-.02,.37-.03,.55-.09s.34-.13,.5-.21,.3-.21,.43-.32c.19-.15,.33-.36,.46-.55,.03-.05,.06-.1,.09-.15,.08-.16,.15-.33,.21-.51,.02-.05,.03-.11,.04-.16,.03-.18,.07-.38,.06-.57s-.03-.37-.07-.54c-.01-.06-.03-.11-.05-.17-.06-.15-.13-.35-.23-.5s-.21-.3-.33-.43c-.08-.08-.18-.15-.27-.22-.1-.08-.19-.16-.3-.22-.22-.12-.46-.23-.71-.28-.19-.04-.38-.06-.57-.08-.07,0-.14,0-.21,0-.26,.01-.54,.04-.79,.13s-.5,.18-.71,.34c-.17,.09-.32,.22-.42,.39-.13,.14-.22,.31-.27,.51-.06,.2-.07,.4-.03,.6,0,.2,.07,.39,.18,.56,.21,.32,.51,.6,.9,.69l.4,.05c.27,0,.52-.07,.76-.2,.08-.06,.17-.11,.26-.15l-.36,.15c.12-.05,.24-.08,.36-.1l-.4,.05c.13-.02,.27-.02,.4,0l-.4-.05c.11,.02,.23,.05,.33,.09l-.36-.15c.1,.04,.19,.09,.27,.16l-.3-.23c.06,.05,.12,.11,.17,.17l-.23-.3c.05,.06,.09,.12,.12,.19l-.15-.36c.03,.07,.05,.14,.06,.21l-.05-.4c.01,.08,0,.16,0,.24l.05-.4c-.01,.1-.04,.19-.08,.28l.15-.36c-.04,.09-.09,.17-.15,.25l.23-.3c-.06,.07-.12,.13-.19,.19l.3-.23c-.07,.05-.13,.09-.21,.12l.36-.15c-.07,.03-.14,.05-.21,.06l.4-.05c-.07,0-.13,0-.2,0l.4,.05c-.06,0-.11-.02-.17-.05l.36,.15s-.1-.05-.14-.08l.3,.23s-.09-.08-.13-.12l.23,.3c-.05-.06-.09-.13-.12-.2l.15,.36c-.03-.08-.05-.16-.07-.25l.05,.4c-.01-.08-.01-.17,0-.25l-.05,.4c0-.07,.03-.14,.05-.2l-.15,.36c.02-.06,.06-.11,.09-.16l-.23,.3s.06-.07,.1-.1l-.3,.23s.09-.06,.14-.08l-.36,.15s.06-.02,.09-.03c.2-.05,.37-.14,.51-.27,.16-.11,.29-.25,.39-.42,.11-.17,.17-.36,.18-.56,.04-.2,.04-.4-.03-.6-.12-.36-.34-.71-.69-.9s-.75-.25-1.16-.15h0Z"/>
  <path class="cls-24" d="M631.94,569.51c1.93,0,1.93-3,0-3s-1.93,3,0,3h0Z"/>
  <path class="cls-24" d="M632.63,566.88c-.17-.08-.35-.17-.54-.21s-.39-.07-.58-.06c-.18,.01-.4,.04-.58,.1s-.38,.14-.54,.25c-.67,.44-1.1,1.13-1.11,1.95,0,.19,.03,.4,.07,.59s.14,.39,.22,.57c.04,.08,.08,.15,.13,.21,.12,.16,.24,.34,.39,.48,.27,.25,.53,.42,.86,.56s.59,.19,.95,.23c.54,.05,1.07-.11,1.55-.34,.24-.11,.45-.28,.65-.45s.35-.38,.49-.59c.1-.16,.16-.34,.23-.51,.03-.06,.05-.13,.06-.19,.09-.41,.09-.73,0-1.14-.1-.46-.4-.93-.76-1.23-.14-.12-.29-.24-.45-.33s-.35-.17-.53-.23c-.25-.09-.53-.13-.79-.14s-.52,.02-.76,.11c-.16,.06-.36,.13-.51,.24s-.32,.22-.45,.37c-.26,.31-.44,.64-.44,1.06,0,.37,.16,.81,.44,1.06s.66,.46,1.06,.44c.38-.02,.81-.14,1.06-.44,.04-.04,.08-.08,.12-.12l-.3,.23c.05-.04,.11-.07,.16-.1l-.36,.15c.07-.03,.14-.05,.21-.06l-.4,.05c.09-.01,.18,0,.28,0l-.4-.05c.11,.02,.21,.05,.3,.09l-.36-.15c.1,.04,.19,.1,.28,.16l-.3-.23c.08,.07,.16,.14,.22,.22l-.23-.3c.04,.06,.08,.12,.11,.19l-.15-.36c.03,.07,.05,.14,.06,.21l-.05-.4c0,.08,0,.16,0,.24l.05-.4c-.01,.08-.04,.16-.07,.24l.15-.36c-.04,.09-.09,.17-.14,.24l.23-.3c-.07,.08-.14,.16-.23,.22l.3-.23c-.11,.08-.22,.15-.34,.2l.36-.15c-.13,.06-.27,.09-.42,.11l.4-.05c-.13,.02-.27,.02-.4,0l.4,.05c-.11-.02-.22-.05-.32-.09l.36,.15c-.11-.05-.21-.11-.31-.18l.3,.23c-.08-.07-.16-.14-.22-.22l.23,.3c-.06-.08-.11-.17-.16-.26l.15,.36c-.03-.08-.05-.17-.07-.25l.05,.4c0-.08,0-.15,0-.22l-.05,.4c.01-.06,.03-.11,.05-.16l-.15,.36c.03-.06,.06-.12,.1-.18l-.23,.3c.05-.06,.11-.12,.17-.17l-.3,.23c.07-.05,.13-.09,.21-.12l-.36,.15c.06-.02,.13-.04,.2-.05l-.4,.05c.06,0,.11,0,.17,0l-.4-.05c.06,0,.11,.02,.16,.04l-.36-.15h.03c.17,.12,.36,.18,.56,.19,.2,.04,.4,.04,.6-.03,.35-.1,.73-.36,.9-.69,.18-.35,.28-.77,.15-1.16-.11-.35-.34-.74-.69-.9h0Z"/>
  <path class="cls-24" d="M764.31,542.07c-.43,0-.85,.02-1.27,.11-.48,.1-.95,.35-1.31,.69-.32,.31-.59,.76-.67,1.2-.07,.38-.09,.68,.01,1.06,.09,.34,.28,.65,.51,.9,.12,.13,.27,.24,.42,.34,.06,.04,.13,.08,.2,.12,.23,.12,.47,.22,.71,.3,.13,.05,.27,.09,.41,.12,.26,.05,.53,.09,.8,.09,.94,0,1.94-.47,2.36-1.35,.1-.2,.2-.42,.24-.65,.07-.42,.08-.67,0-1.09-.11-.57-.51-1.05-1-1.35-.33-.2-.79-.25-1.16-.15-.35,.1-.73,.36-.9,.69-.18,.35-.28,.77-.15,1.16s.35,.69,.69,.9c.02,.01,.05,.03,.07,.05l-.3-.23s.08,.07,.11,.11l-.23-.3s.06,.1,.09,.15l-.15-.36c.02,.06,.04,.11,.05,.17l-.05-.4c.01,.09,.01,.17,0,.26l.05-.4c-.01,.09-.04,.18-.07,.26l.15-.36c-.04,.08-.08,.16-.14,.24l.23-.3c-.05,.06-.1,.11-.16,.16l.3-.23c-.07,.05-.14,.09-.22,.13l.36-.15c-.12,.05-.23,.08-.36,.1l.4-.05c-.16,.02-.33,.02-.49,0l.4,.05c-.23-.03-.46-.1-.67-.19l.36,.15c-.14-.06-.28-.13-.41-.22l.3,.23c-.05-.04-.1-.08-.14-.13l.23,.3s-.06-.08-.08-.13l.15,.36c-.02-.05-.04-.11-.04-.17l.05,.4c0-.06,0-.12,0-.18l-.05,.4c.01-.07,.03-.14,.06-.2l-.15,.36c.03-.08,.07-.15,.12-.22l-.23,.3c.05-.07,.11-.13,.18-.18l-.3,.23c.09-.07,.18-.12,.28-.16l-.36,.15c.15-.06,.3-.09,.45-.12l-.4,.05c.24-.03,.48-.03,.72-.03,.38,0,.79-.17,1.06-.44s.46-.69,.44-1.06-.14-.79-.44-1.06-.65-.43-1.06-.44h0Z"/>
  <path class="cls-25" d="M699.07,569.28c1.93,0,1.93-3,0-3s-1.93,3,0,3h0Z"/>
  <path class="cls-25" d="M700.09,568.81c1.79-1.96,3.57-3.93,5.36-5.89,.53-.58,.62-1.56,0-2.12-.58-.53-1.56-.62-2.12,0-1.79,1.96-3.57,3.93-5.36,5.89-.53,.58-.62,1.56,0,2.12,.58,.53,1.56,.62,2.12,0h0Z"/>
  <path class="cls-25" d="M635.07,547.71c1.39,.6,2.74,1.28,4.03,2.06,.64,.38,1.26,.79,1.87,1.21,.3,.21,.6,.43,.9,.65,.07,.06,.15,.11,.22,.17,.19,.14-.16-.13,.03,.02,.16,.13,.33,.26,.49,.39,.61,.49,1.53,.64,2.12,0,.5-.55,.65-1.59,0-2.12-2.49-2.02-5.2-3.7-8.14-4.97-.72-.31-1.64-.24-2.05,.54-.34,.65-.23,1.72,.54,2.05h0Z"/>
  <path class="cls-25" d="M753.22,536.74c-.21-2.27-.43-4.54-.64-6.8-.07-.78-.64-1.54-1.5-1.5-.75,.03-1.58,.66-1.5,1.5,.21,2.27,.43,4.54,.64,6.8,.07,.78,.64,1.54,1.5,1.5,.75-.03,1.58-.66,1.5-1.5h0Z"/>
  <path class="cls-28" d="M662.21,475.32c-.96-.56-1.89-1.18-2.77-1.86l.3,.23c-.22-.17-.43-.34-.64-.51-.31-.26-.64-.44-1.06-.44-.37,0-.81,.16-1.06,.44s-.46,.66-.44,1.06c.02,.38,.14,.81,.44,1.06,1.17,.97,2.4,1.85,3.71,2.6,.34,.2,.78,.26,1.16,.15,.35-.1,.73-.36,.9-.69,.38-.72,.19-1.63-.54-2.05h0Z"/>
  <path class="cls-28" d="M668.31,475.41c-.04-2.03-.03-4.06,.03-6.09,.02-.79-.71-1.54-1.5-1.5s-1.48,.66-1.5,1.5c-.06,2.03-.07,4.06-.03,6.09,.01,.78,.68,1.54,1.5,1.5s1.51-.66,1.5-1.5h0Z"/>
  <path class="cls-28" d="M671.52,474.12l-.03-.02,.3,.23-.02-.02,.23,.3v-.03c.04,.12,.09,.24,.14,.36v-.03c.01,.13,.03,.27,.05,.4,0-.03,0-.05,0-.08l-.05,.4s.01-.05,.02-.08l-.15,.36c.24-.53,.54-1.03,.82-1.54s.6-1.02,.91-1.51c.42-.66,.16-1.68-.54-2.05-.74-.39-1.6-.17-2.05,.54-.4,.62-.77,1.26-1.13,1.9-.17,.31-.34,.63-.5,.95-.17,.34-.34,.69-.34,1.08,0,.3,.07,.56,.21,.83,.12,.23,.37,.49,.61,.61,.36,.18,.75,.26,1.16,.15,.35-.1,.73-.36,.9-.69,.18-.35,.28-.77,.15-1.16-.12-.36-.34-.72-.69-.9h0Z"/>
  <path class="cls-3" d="M102.32,47.76c-5.21-6.08-9.91-13.88-8.92-22.2,.19-1.63,.62-3.26,1.46-4.62,2.43-3.95,7.8-4.51,11.67-2.4,3.88,2.11,6.55,6.18,8.82,10.25-.73-5.89,3.13-11.57,7.96-14.15,3.95-2.11,8.89-2.48,12.58,.14,5.07,3.6,6.15,11.73,3.94,17.94-2.21,6.2-6.91,10.85-11.64,14.98-3.47,3.03-8.75,10.29-13.34,10.3-4.35,.02-9.84-7.09-12.54-10.24Z"/>
</svg>