<?xml version="1.0" encoding="UTF-8"?>
<svg id="Layer_1" data-name="Layer 1" xmlns="http://www.w3.org/2000/svg" viewBox="0 0 57 31.5">
  <defs>
    <style>
      .cls-1 {
        fill: #f2f2f2;
      }

      .cls-2 {
        fill: #ed1e79;
      }

      .cls-3 {
        opacity: .7;
      }
    </style>
  </defs>
  <g class="cls-3">
    <rect class="cls-1" x="2.72" y="3.5" width="52.28" height="21.29" rx="10.64" ry="10.64"/>
    <path class="cls-2" d="M44.35,3.5H13.37C7.49,3.5,2.72,8.27,2.72,14.15s4.77,10.65,10.65,10.65h30.99c5.88,0,10.65-4.77,10.65-10.65s-4.77-10.65-10.65-10.65h0Z"/>
  </g>
  <g>
    <path class="cls-1" d="M5.89,14.51s.02-.03,.05-.03c.02,0,.05,0,.07,0-.05-.04-.09-.1-.1-.18-.01-.08-.05-.14-.1-.19,.01-.03,.02-.06,.04-.08,.01-.03,.04-.04,.09-.03-.02-.12-.02-.24,.01-.34s.07-.21,.13-.3c.06-.1,.12-.19,.2-.28,.08-.09,.15-.19,.23-.28,.06-.01,.1,0,.11,.01,.01,.02,.04,.02,.07-.01,.11-.06,.18-.13,.22-.21s.06-.16,.06-.25c.06-.15,.13-.29,.21-.43,.08-.14,.17-.28,.27-.4,.1-.12,.21-.23,.32-.32,.11-.09,.24-.16,.37-.21,.09-.07,.21-.13,.36-.19,.15-.06,.3-.1,.47-.13,.17-.03,.34-.05,.51-.05,.18,0,.34,.01,.49,.05,.03,.01,.05,0,.06-.02,0-.03,.02-.04,.05-.04,.34,.03,.64,.09,.91,.17,.27,.08,.49,.19,.68,.33,.13,.17,.25,.35,.36,.54s.2,.4,.27,.6c.06,.21,.09,.43,.09,.65,0,.22-.06,.45-.17,.67-.24,.25-.52,.44-.86,.59-.34,.15-.7,.27-1.09,.37-.39,.1-.79,.18-1.21,.24s-.82,.13-1.21,.2c0,.15,0,.31,0,.48,0,.17-.03,.34-.07,.51s-.09,.34-.16,.5-.17,.31-.29,.45c-.14,0-.27,0-.42,.03-.15,.03-.28,.06-.39,.08-.05-.03-.11-.05-.16-.08-.05-.03-.11-.04-.19-.05,.02-.07,0-.14-.06-.21-.06-.07-.11-.14-.17-.21-.06-.07-.09-.14-.11-.21-.02-.07,.02-.13,.12-.19-.05-.04-.08-.1-.08-.18,.03,.02,.06,.03,.1,.03-.01-.1,0-.22,.05-.36,.04-.14,.08-.28,.11-.42,.03-.14,.04-.26,.02-.38-.02-.11-.1-.2-.24-.25Zm2.63-1.97c-.03,.06-.05,.12-.07,.16-.02,.05-.04,.09-.06,.13-.02,.04-.04,.08-.07,.12-.02,.04-.05,.08-.08,.13,.01,.03,.04,.06,.08,.08,.04,.02,.07,.04,.08,.08,.09-.04,.19-.07,.28-.09s.19-.04,.28-.05c.09-.01,.19-.02,.28-.04,.09-.02,.19-.04,.29-.08,.1-.04,.21-.07,.32-.1,.11-.02,.22-.05,.33-.08,.11-.03,.21-.06,.31-.1,.1-.04,.19-.09,.26-.15-.09-.07-.24-.14-.43-.19-.19-.06-.39-.09-.61-.11-.22-.01-.44,0-.66,.04-.22,.04-.41,.12-.57,.24Z"/>
    <path class="cls-1" d="M14.74,16.79c-.19,.05-.4,.1-.62,.15-.22,.05-.45,.08-.67,.08-.34,0-.6-.07-.8-.21-.03-.06-.06-.1-.09-.13-.02-.02-.04-.05-.06-.07-.02-.03-.03-.06-.04-.11-.08-.08-.15-.17-.19-.27-.05-.1-.08-.21-.1-.32-.02-.11-.02-.22,0-.33,0-.11,.03-.22,.07-.32,.01-.02,.02-.04,.02-.07s0-.05,.02-.08c.03-.09,.06-.18,.09-.26s.07-.16,.13-.22c-.03-.05-.03-.11,0-.17s.06-.12,.09-.17c.09-.21,.17-.39,.24-.54,.06-.15,.13-.3,.2-.44,.11-.25,.22-.5,.32-.75s.19-.51,.27-.8c.05-.03,.09-.05,.12-.06,.04-.01,.07-.02,.1-.03,.12,.05,.26,.1,.43,.15,.16,.05,.3,.07,.4,.07,.05,.03,.09,.05,.1,.06,.01,.01,.03,.03,.04,.04,.07,.07,.14,.15,.19,.22,.05,.08,.07,.17,.05,.3-.04,.05-.07,.08-.09,.08-.03,.11-.07,.21-.11,.29s-.08,.16-.12,.24c-.05,.08-.09,.17-.13,.25s-.07,.19-.1,.31c-.03,.03-.05,.05-.06,.08-.01,.02-.02,.05-.04,.08s-.03,.06-.05,.09c-.02,.03-.04,.06-.08,.08-.02,.15-.05,.26-.1,.35-.04,.09-.09,.18-.14,.27-.08,.16-.15,.33-.22,.49-.06,.16-.1,.35-.12,.55,.03-.01,.07-.02,.1-.02h.09c.06,0,.13,0,.21,.03,.2-.09,.42-.14,.66-.16,.24-.02,.48-.03,.71-.03h.28c.09,0,.18,0,.26-.02,.06,.03,.1,.04,.12,.05,.02,0,.04,0,.08,0,.05,0,.09,0,.12,0,.08,.06,.16,.11,.23,.13,.07,.03,.15,.05,.23,.08,.07,.02,.15,.05,.22,.07,.07,.03,.14,.06,.21,.11l.07,.36c.05,.05,.07,.08,.06,.1,0,.04-.01,.08-.04,.1l.02,.09c-.1,.02-.17,.04-.21,.06s-.07,.05-.11,.08c-.05,0-.09,0-.12,0h-.07c-.09,0-.21,.01-.34,.04-.18-.05-.37-.08-.57-.08-.07,0-.15,0-.23,0-.08,0-.16,.01-.24,.02-.08,.01-.16,.02-.25,.02-.08,0-.17,0-.26,0l-.23,.05Z"/>
    <path class="cls-1" d="M22.96,16.18c-.04,.1-.1,.19-.18,.29s-.17,.19-.27,.26c-.1,.08-.22,.14-.35,.19-.13,.05-.26,.08-.41,.08-.09-.02-.15-.04-.18-.05-.03-.02-.06-.04-.1-.05-.02-.01-.04-.02-.06-.03-.02,0-.03-.02-.05-.02l-.12-.04,.04-.11s.01-.08-.01-.1c-.02-.03-.06-.06-.12-.1-.02-.02-.04-.03-.06-.05-.02-.02-.04-.03-.05-.05l-.17-.16,.27-.06c.17-.04,.28-.09,.34-.15,.06-.06,.08-.17,.07-.31-.13-.02-.25-.03-.34,0-.09,.02-.18,.04-.28,.06-.12,.03-.24,.05-.37,.07-.12,.02-.26,.03-.41,.03-.05,0-.1,0-.15,0-.05,0-.1,0-.15-.01l-.1-.02c-.01-.06-.03-.1-.04-.1s-.03-.02-.04-.03c-.03-.03-.07-.07-.11-.11-.04-.05-.05-.11-.02-.18-.03-.05-.05-.1-.06-.15-.04,.07-.07,.14-.09,.21l-.04,.08-.1,.02s-.02,.02-.03,.04-.01,.03-.01,.05l-.05,.14s-.03,.02-.04,.03c-.01,0-.03,.02-.04,.03-.01,.05-.03,.1-.05,.15-.02,.05-.04,.1-.06,.14-.03,.07-.06,.14-.09,.21-.02,.07-.03,.14-.03,.21l-.04,.09s-.07,.06-.11,.08c-.04,.02-.08,.04-.12,.05-.01,.01-.03,.02-.06,.03-.02,0-.04,.02-.06,.02l-.03,.09-.12,.02c-.07,.01-.13,.02-.16,.03-.03,0-.07,0-.11,0h-.1c-.07-.06-.13-.1-.17-.13-.04-.03-.09-.06-.14-.09-.06-.07-.09-.12-.1-.15s-.01-.06-.02-.09c-.01-.03-.02-.06-.03-.08,0-.02-.01-.04-.03-.05l-.13-.1,.11-.08v-.14c.15-.29,.29-.56,.44-.82,.15-.26,.31-.53,.47-.81,.05-.09,.11-.18,.16-.27,.05-.09,.1-.18,.16-.27,0-.02-.01-.04-.01-.06s0-.05,.02-.08c.07-.1,.13-.18,.18-.26,.05-.08,.09-.15,.14-.23,.05-.1,.11-.19,.17-.28,.06-.09,.13-.18,.22-.28l.16-.06s.04-.01,.07-.02c.03,0,.06-.01,.09-.01l.15,.02c.19-.07,.35-.17,.5-.31,.14-.13,.29-.29,.44-.48l.1-.12,.13,.07s.08,.03,.14,.05c.06,.01,.12,.03,.19,.05,.12,.02,.24,.05,.34,.08,.11,.03,.2,.07,.26,.13,.04,.09,.06,.16,.07,.2,0,.04,.02,.09,.03,.13,.02,.1,.04,.19,.06,.29,.02,.1,.03,.2,.04,.32,.03,.1,.06,.19,.09,.28,.02,.09,.05,.19,.07,.28,.03,.13,.07,.26,.1,.39s.08,.25,.13,.36c.05,0,.09,0,.1,0,.03-.01,.07-.02,.11-.03,.04,0,.08-.01,.13-.02h.11s.04,.08,.04,.08c0,.03,.04,.06,.1,.08,.09,0,.15,.02,.19,.05,.04,.02,.08,.05,.11,.08,.03,.02,.05,.04,.08,.05l.15,.05-.08,.13c-.07,.1-.16,.2-.29,.29-.12,.09-.26,.17-.42,.23,0,.03,.01,.07,.02,.1s.01,.06,.03,.1c.02,.1,.04,.19,.05,.29,.01,.1,.01,.2,0,.31l-.02,.03Zm-2.93-1.45c.2-.01,.39-.02,.55-.04s.35-.04,.55-.07c-.05-.17-.1-.34-.15-.52s-.11-.36-.17-.54l-.06,.08c-.13,.12-.26,.25-.39,.4-.12,.15-.23,.28-.32,.41-.04,.05-.08,.1-.12,.15s-.08,.1-.11,.15c.04,0,.08,0,.12,0s.07,0,.11,0Z"/>
    <path class="cls-1" d="M26.55,14.68s-.09,.07-.12,.12c-.03,.05-.07,.1-.1,.15-.03,.06-.07,.12-.11,.18-.04,.06-.09,.11-.15,.15-.03,.08-.07,.15-.1,.2-.03,.05-.09,.1-.16,.16-.07,.22-.23,.47-.48,.73,0,.05-.03,.1-.06,.15-.03,.05-.06,.09-.1,.14-.01,.02-.03,.04-.04,.05-.01,.02-.02,.04-.03,.05l-.02,.08s-.07,.08-.11,.12-.08,.06-.11,.09c-.01,.02-.04,.04-.07,.07l-.15,.05c-.49-.06-.79-.27-.9-.66v-.08s.04-.06,.05-.09c.01-.03,.02-.06,.04-.1,.03-.08,.06-.16,.1-.24s.09-.15,.17-.21c.01-.04,.04-.1,.09-.19,.05-.09,.13-.22,.24-.39,.09-.13,.17-.24,.22-.32,.05-.08,.1-.14,.13-.19-.07-.09-.15-.17-.24-.24-.09-.14-.16-.27-.23-.4-.06-.13-.11-.24-.15-.34,0-.07-.02-.13-.03-.19s-.03-.1-.04-.16c-.02-.06-.04-.12-.05-.19-.01-.06-.02-.13-.02-.19-.03-.04-.05-.08-.06-.12l.02-.08s.02-.09,.01-.16c-.01-.06-.03-.13-.05-.2-.01-.06-.03-.12-.05-.19-.02-.07-.02-.13-.02-.2,0-.07,.03-.13,.07-.19,.04-.06,.1-.11,.19-.16h.17c.06,.02,.12,.05,.18,.07,.06,.03,.11,.05,.17,.08,.07,.03,.15,.06,.21,.08,.07,.03,.14,.06,.21,.11l.07,.12,.13,.09v.09s.01,.05,.01,.09c0,.07,.01,.12,.04,.13l.04,.1c0,.08,.01,.15,.03,.22,.02,.07,.04,.14,.06,.2,.02,.06,.04,.13,.06,.19,.02,.07,.02,.14,.01,.22,.04-.02,.07-.04,.1-.06,.01-.01,.03-.02,.04-.02,.01,0,.03-.01,.04-.03l.6-.67-.02-.08,.21-.17c.05-.04,.11-.09,.16-.13,.05-.04,.09-.08,.13-.13l.11-.07c.22-.28,.52-.45,.92-.52l.14-.02,.04,.11c.03,.06,.08,.12,.17,.17s.17,.1,.27,.14l.09,.05c.03,.06,.05,.1,.05,.13s0,.05-.01,.08l.04,.08c-.05,.13-.12,.23-.2,.29-.08,.06-.15,.12-.23,.17-.06,.04-.12,.09-.17,.12-.05,.04-.09,.08-.12,.14l-.07,.07c-.14,.07-.23,.16-.27,.27l-.03,.1h-.12s-.02,.01-.05,.03c-.02,.02-.06,.07-.11,.15-.05,.06-.08,.09-.1,.11-.02,.02-.04,.03-.05,.04,0,.02-.02,.04-.03,.06s-.02,.04-.04,.07c-.09,.07-.14,.13-.16,.16-.02,.04-.04,.08-.07,.12-.03,.04-.05,.09-.08,.13-.02,.04-.06,.09-.12,.13l-.05,.13Z"/>
    <path class="cls-1" d="M33.37,15.35c-.06,.01-.1,.04-.13,.09-.03,.05-.05,.1-.08,.15-.02,.05-.05,.1-.07,.14-.02,.04-.06,.06-.11,.06,0,.04-.03,.08-.06,.12s-.06,.07-.09,.1c-.03,.04-.05,.08-.06,.12-.01,.04,0,.09,.02,.15-.05,.03-.09,.08-.1,.14-.01,.06-.03,.12-.05,.18s-.05,.1-.09,.14c-.04,.04-.11,.06-.22,.05-.02,.02-.02,.04-.01,.04,.01,0,.02,.02,.03,.06-.07-.01-.13,0-.17,.01s-.08,.03-.14,.04c-.13-.03-.23-.09-.32-.18s-.16-.18-.22-.28c-.06-.1-.12-.21-.17-.31s-.1-.2-.15-.28c.02-.06,.02-.12,.01-.18-.01-.06-.04-.11-.07-.15,.33-.58,.69-1.21,1.08-1.87,.39-.66,.76-1.31,1.11-1.96,.16,.05,.31,.11,.46,.17,.15,.06,.29,.14,.42,.22,.12,.08,.23,.18,.32,.29,.09,.11,.15,.23,.17,.37-.01,.03-.03,.05-.05,.04-.02,0-.03,0-.05,.01,.03,.03,.04,.05,.05,.06s0,.02,0,.03,0,.03,0,.05,.01,.05,.03,.08c-.03,0-.05,0-.06,0s-.03,.01-.07,0c.03,.06,.04,.11,.03,.15-.01,.04-.03,.07-.05,.1-.02,.03-.04,.06-.05,.1s-.01,.08,.01,.14c-.02,0-.04,0-.05,.01,0,0-.02,.02-.02,.02,0,0-.02,.02-.03,.03-.01,0-.03,0-.05,0,.02,.12,.03,.25,.02,.37,0,.12-.01,.25-.02,.37s0,.26,0,.4,.03,.28,.07,.42c.24-.12,.44-.27,.58-.45,.15-.19,.26-.39,.35-.62,.09-.23,.16-.48,.21-.74,.05-.26,.1-.53,.15-.81,.06-.05,.11-.11,.14-.19s.06-.15,.09-.23c.03-.08,.05-.16,.08-.24,.03-.08,.06-.16,.1-.22,.1,.01,.19,.04,.26,.08s.14,.09,.2,.13c.06,.05,.12,.09,.19,.13s.15,.07,.25,.08c.08,.1,.15,.19,.22,.28,.07,.09,.11,.19,.13,.29-.03,.04-.06,.1-.08,.15-.02,.06-.04,.11-.06,.17-.02,.06-.05,.11-.08,.16-.03,.05-.08,.09-.14,.12-.02,.15-.05,.28-.08,.4-.03,.12-.06,.24-.09,.36-.03,.12-.06,.24-.08,.37-.02,.13-.03,.26-.02,.42-.05,.13-.11,.27-.17,.41-.06,.15-.11,.28-.14,.4-.11,.07-.19,.16-.25,.26-.06,.1-.12,.2-.19,.3-.03,.02-.04,.03-.05,.02s-.03-.02-.07-.03c0,.02,0,.04,0,.05,0,.01-.02,.02-.03,.03,0,0-.02,.02-.02,.04,0,.02,0,.04,.02,.07-.09,.03-.18,.08-.25,.14-.07,.06-.15,.12-.24,.17-.08,.05-.19,.08-.3,.1-.12,.02-.27,0-.46-.06-.28-.17-.52-.36-.73-.58-.21-.22-.39-.48-.52-.78Z"/>
    <path class="cls-1" d="M43.06,14.36c0,.07,0,.13,.02,.19,.02,.06,.05,.12,.08,.18,.03,.06,.06,.12,.09,.18,.03,.06,.05,.12,.06,.19,.01,.08,.01,.16,0,.26-.01,.09-.04,.18-.07,.27s-.08,.17-.13,.24c-.05,.07-.12,.12-.19,.16-.09,.1-.21,.18-.34,.24-.14,.06-.26,.12-.38,.2-.07,.04-.16,.07-.25,.08-.09,.02-.18,.03-.28,.05-.07,.03-.16,.07-.26,.1-.1,.04-.21,.07-.31,.1s-.22,.05-.32,.07-.2,.02-.28,.01c-.2,.06-.4,.1-.59,.12s-.42,0-.67-.04c-.24,.03-.47,.02-.67-.03-.21-.04-.39-.12-.55-.21-.16-.1-.3-.22-.42-.35-.12-.14-.21-.28-.29-.43-.05-.32-.04-.61,.04-.87,.08-.26,.2-.5,.35-.72,.15-.22,.33-.43,.52-.61,.2-.19,.38-.37,.57-.55,.04,.01,.07,0,.1,0,.02-.01,.05-.03,.07-.06,.02-.03,.04-.05,.07-.07,.02-.02,.05-.04,.09-.04,.05-.08,.12-.15,.21-.19,.09-.04,.16-.1,.22-.18,.06-.01,.11-.03,.15-.05s.08-.05,.12-.08c.04-.03,.08-.05,.12-.08,.04-.02,.09-.04,.14-.05v-.09c.12-.04,.21-.1,.27-.16,.06-.06,.13-.13,.21-.21,.06,0,.11,0,.15,0s.09,0,.17-.02c.05-.08,.1-.14,.15-.18,.04-.04,.11-.08,.2-.13,.08,.03,.17,.06,.27,.07,.1,.01,.18,.05,.26,.11,0,.06,.03,.1,.06,.13,.03,.03,.07,.06,.11,.08s.08,.05,.12,.08c.04,.03,.06,.07,.08,.12,.03,0,.05,0,.06,0s.03-.01,.06,0c.02,.08,.04,.13,.07,.16,.03,.02,.05,.07,.08,.15-.03,.06-.06,.11-.08,.17-.02,.06-.06,.1-.13,.13,0,.04,0,.06,.04,.06,.03,0,.05,.02,.06,.05,0,.05,0,.09-.03,.11,.16,.22,.31,.45,.44,.69s.27,.48,.44,.69Zm-1.27,.8c.03-.06,.06-.11,.11-.15,.04-.04,.07-.1,.08-.18-.03-.04-.05-.08-.06-.1,0-.03-.01-.07-.01-.12-.15-.17-.28-.36-.38-.56-.11-.2-.23-.39-.36-.56-.01,.02-.04,.04-.07,.07s-.07,.02-.11-.02c-.01,.04-.04,.08-.07,.1-.03,.02-.07,.03-.11,.03s-.08-.01-.13-.03c-.04-.01-.08-.03-.12-.05-.2,.13-.39,.26-.59,.38s-.37,.27-.53,.43c-.03,.01-.04,.02-.05,.01,0,0-.03,0-.06,.01-.05,.11-.12,.2-.2,.29s-.15,.18-.23,.26c-.07,.09-.14,.19-.19,.29-.05,.1-.08,.22-.09,.35,.11,.08,.25,.13,.41,.14,.16,.02,.32,.02,.48,0,.17-.01,.33-.03,.49-.05,.16-.03,.31-.04,.44-.04,.28-.06,.53-.13,.73-.22s.42-.19,.64-.28Z"/>
    <path class="cls-1" d="M49.37,16.99c-.24-.09-.42-.22-.56-.4s-.27-.37-.41-.58c-.02-.03-.04-.07-.06-.1-.02-.03-.04-.06-.06-.09l-.14-.22-.08-.13-.12,.09-.18,.13-.1,.08c-.18,.13-.35,.27-.53,.4-.18,.13-.37,.25-.57,.35-.2,.1-.41,.19-.63,.25s-.46,.1-.71,.1l-.22-.09c-.13-.06-.24-.11-.32-.15s-.19-.11-.3-.21c-.03-.05-.06-.1-.09-.14-.02-.04-.05-.09-.08-.13-.07-.11-.13-.21-.18-.3-.05-.09-.09-.19-.14-.3,.02-.08,.05-.21,.09-.4,.04-.19,.09-.39,.15-.62,.06-.22,.12-.45,.18-.68,.06-.23,.13-.42,.2-.59,.06-.15,.13-.3,.21-.46s.16-.31,.25-.45c.09-.14,.19-.25,.3-.35s.22-.16,.34-.17c.03,.04,.07,.07,.11,.08,.04,.02,.08,.03,.11,.04,.09,.11,.19,.21,.28,.29,.09,.08,.2,.16,.32,.24-.03,.14-.08,.3-.15,.47s-.13,.34-.2,.51c-.07,.17-.14,.34-.21,.5s-.12,.3-.16,.42c-.04,.1-.07,.2-.1,.32-.06,.21-.12,.49-.17,.85,.08-.02,.17-.05,.26-.11,.09-.06,.19-.11,.27-.18,.1-.07,.2-.14,.3-.23,.13-.11,.24-.2,.32-.29,.09-.09,.17-.18,.25-.28s.16-.2,.24-.32,.18-.25,.29-.41c.1-.13,.21-.28,.32-.43s.22-.3,.33-.45c.11-.14,.22-.27,.33-.39,.11-.12,.21-.21,.29-.28,.05,.06,.12,.11,.21,.16s.17,.09,.27,.12c.04,.05,.08,.1,.12,.14s.07,.08,.11,.11c.04,.05,.08,.1,.12,.14s.07,.09,.11,.13c0,.04-.02,.09-.03,.15-.01,.06-.03,.13-.05,.2-.02,.07-.04,.15-.06,.22-.02,.08-.04,.15-.06,.21-.05,.21-.09,.37-.12,.48s-.05,.19-.06,.25c-.01,.06-.02,.11-.02,.16s0,.1,0,.17c0,.06,0,.11,.01,.17,0,.05,.02,.1,.04,.16,.02,.06,.05,.11,.08,.15l.4-.26c.11-.07,.22-.17,.33-.3,.1-.13,.21-.27,.3-.44,.1-.17,.19-.35,.29-.54,.09-.2,.19-.4,.28-.6,.14-.3,.29-.59,.43-.87,.15-.28,.28-.5,.42-.65,.15,.08,.28,.16,.39,.24,.11,.08,.21,.17,.29,.26,.08,.1,.15,.2,.2,.33,.05,.12,.09,.27,.11,.44-.12,.2-.24,.4-.35,.61-.11,.21-.22,.41-.32,.62-.14,.27-.28,.54-.42,.81s-.31,.53-.48,.77c-.18,.24-.37,.47-.59,.67-.22,.2-.47,.38-.75,.52-.07-.02-.14-.02-.19-.02-.11,0-.2,.02-.27,.08Z"/>
  </g>
</svg>