<?xml version="1.0" encoding="UTF-8"?>
<svg id="Layer_1" data-name="Layer 1" xmlns="http://www.w3.org/2000/svg" viewBox="0 0 35 23">
  <defs>
    <style>
      .cls-1 {
        fill: #998675;
      }

      .cls-1, .cls-2 {
        stroke: #fff;
        stroke-miterlimit: 10;
        stroke-width: 2px;
      }

      .cls-2 {
        fill: none;
      }
    </style>
  </defs>
  <rect class="cls-1" x="1" y="1" width="33" height="21"/>
  <path class="cls-2" d="M23.5,4.76c.33-.02,.7-.03,.96,.13,.54,.34,.05,.97-.08,1.49-.24,.98,1.13,1.84,2.47,1.92,.46,.03,.96,0,1.35,.17,.72,.32,.67,1.1,.52,1.71-.71,.07-1.42,.15-2.13,.22,.06,.81,.12,1.63,.18,2.44-.27,.02-.27-.35-.01-.42s.53,.06,.75,.19c.78,.43,1.64,1.15,1.15,1.77-.58,.73-2.13,.28-3.18,.6-1.3,.39-1.65,1.89-3.03,2.06,.02,.74,0,1.53-.57,2.13s-1.96,.8-2.53,.2c-.23-.24-.27-.56-.48-.81-.3-.38-.9-.57-1.48-.67-1.34-.24-2.79-.15-4.05,.26-.97,.31-2.04,.81-2.99,.46-.79-.3-1.02-1.13-.62-1.72s1.27-.94,2.15-1.05c-.45-.81-.91-1.62-1.36-2.44-1.02,.6-2.83-.04-2.84-1.01s1.79-1.63,2.82-1.04c-.2-1.16,.23-2.38,1.18-3.32-.81-.31-1.61-.75-1.9-1.39s.14-1.49,1.04-1.62c1.03-.14,1.82,.64,2.32,1.32,.65-.66,1.7-1.09,2.79-1.16-.4-.75,.32-1.7,1.39-1.83,1.57-.2,1.37,.89,2.24,1.28,1.08,.48,2.63,.19,3.95,.12Z"/>
  <path class="cls-2" d="M18.26,9.81c-1.11-.27-2.08,1.04-2.22,2.32-.05,.48-.02,1,.18,1.43,.37,.77,1.26,1.08,2.02,.89s1.39-.78,1.89-1.46c.54-.73,.97-1.75,.62-2.62-.46-1.15-1.87-1.22-2.99-1.1"/>
</svg>