<svg xmlns="http://www.w3.org/2000/svg" width="256" height="256" viewBox="0 0 100 100"><rect width="100" height="100" rx="20" fill="#82bf92"></rect><path fill="#fff" d="M40.10 66.62L24.80 50.78L24.80 68.12Q24.44 68.24 23.84 68.39Q23.24 68.54 22.52 68.54L22.52 68.54Q19.88 68.54 19.88 66.32L19.88 66.32L19.88 31.82Q20.18 31.70 20.81 31.55Q21.44 31.40 22.16 31.40L22.16 31.40Q24.80 31.40 24.80 33.62L24.80 33.62L24.80 48.56L41.30 31.46Q42.86 31.52 43.64 32.24Q44.42 32.96 44.42 33.92L44.42 33.92Q44.42 34.70 44 35.36Q43.58 36.02 42.80 36.80L42.80 36.80L29.84 49.52Q35.30 54.86 39.29 59.03Q43.28 63.20 46.16 65.78L46.16 65.78Q46.04 67.10 45.35 67.85Q44.66 68.60 43.58 68.60L43.58 68.60Q42.56 68.60 41.75 68.03Q40.94 67.46 40.10 66.62L40.10 66.62ZM74.06 66.62L58.76 50.78L58.76 68.12Q58.40 68.24 57.80 68.39Q57.20 68.54 56.48 68.54L56.48 68.54Q53.84 68.54 53.84 66.32L53.84 66.32L53.84 31.82Q54.14 31.70 54.77 31.55Q55.40 31.40 56.12 31.40L56.12 31.40Q58.76 31.40 58.76 33.62L58.76 33.62L58.76 48.56L75.26 31.46Q76.82 31.52 77.60 32.24Q78.38 32.96 78.38 33.92L78.38 33.92Q78.38 34.70 77.96 35.36Q77.54 36.02 76.76 36.80L76.76 36.80L63.80 49.52Q69.26 54.86 73.25 59.03Q77.24 63.20 80.12 65.78L80.12 65.78Q80 67.10 79.31 67.85Q78.62 68.60 77.54 68.60L77.54 68.60Q76.52 68.60 75.71 68.03Q74.90 67.46 74.06 66.62L74.06 66.62Z"></path></svg>